<?xml version="1.0" standalone="no"?>
<!DOCTYPE svg PUBLIC "-//W3C//DTD SVG 20010904//EN"
 "http://www.w3.org/TR/2001/REC-SVG-20010904/DTD/svg10.dtd">
<svg version="1.0" xmlns="http://www.w3.org/2000/svg"
 width="56" height="56" viewBox="0 0 1141.000000 309.000000"
 preserveAspectRatio="xMidYMid meet">

<g transform="translate(0.000000,309.000000) scale(0.100000,-0.100000)"
fill="#000000" stroke="none">
<path d="M4480 2349 c-69 -12 -152 -50 -206 -95 -92 -75 -145 -252 -125 -414
31 -244 182 -370 439 -370 155 0 263 41 343 128 103 111 136 312 81 490 -37
118 -126 206 -245 244 -73 23 -209 31 -287 17z m163 -150 c53 -15 103 -62 121
-116 39 -113 29 -297 -21 -382 -64 -110 -247 -106 -311 7 -42 75 -51 236 -20
359 13 55 63 110 113 128 49 17 69 18 118 4z"/>
<path d="M3127 2323 c-12 -11 -8 -88 5 -101 7 -7 24 -12 39 -12 65 0 72 -38
67 -339 -3 -248 -4 -248 -77 -258 l-41 -6 0 -53 0 -54 220 0 220 0 0 54 0 53
-41 6 c-23 3 -47 10 -53 17 -6 6 -11 48 -11 103 l0 92 168 3 167 2 0 -87 c0
-49 -4 -95 -10 -103 -5 -8 -28 -19 -52 -25 l-43 -10 -3 -52 -3 -53 220 0 221
0 0 54 0 54 -38 7 c-70 12 -67 -3 -70 286 -3 297 -2 305 65 311 l38 3 0 55 0
55 -215 0 -215 0 -3 -45 c-4 -49 13 -70 54 -70 44 0 54 -24 54 -126 l0 -94
-167 2 -168 3 0 92 c0 103 5 113 62 122 l38 6 3 58 3 57 -214 0 c-117 0 -217
-3 -220 -7z"/>
<path d="M5072 2273 c3 -56 4 -58 33 -61 65 -8 65 -7 65 -302 0 -295 2 -286
-64 -297 l-36 -6 0 -53 0 -54 170 0 170 0 0 55 c0 54 -1 55 -29 55 -16 0 -39
9 -52 19 -24 19 -24 22 -27 240 -2 138 1 221 7 221 5 0 71 -125 147 -277 75
-153 144 -286 152 -295 13 -16 34 -18 164 -18 l148 0 0 338 c0 185 4 343 9
351 5 8 26 17 47 20 l39 6 3 58 3 57 -171 0 -170 0 0 -55 c0 -58 -1 -57 65
-67 39 -6 45 -42 45 -265 0 -117 -3 -213 -8 -213 -4 0 -72 131 -152 291 -80
160 -153 295 -162 300 -9 5 -103 9 -208 9 l-191 0 3 -57z"/>
<path d="M6077 2324 c-12 -12 -8 -89 5 -102 7 -7 24 -12 39 -12 55 0 59 -19
59 -292 0 -135 -4 -258 -10 -272 -6 -16 -20 -28 -37 -31 -50 -11 -58 -20 -58
-66 l0 -44 305 -3 c259 -2 313 0 355 14 146 47 223 170 232 369 8 169 -29 282
-121 362 -84 73 -102 77 -451 81 -171 2 -314 0 -318 -4z m570 -180 c56 -42 67
-76 70 -214 4 -152 -12 -211 -66 -247 -30 -21 -46 -23 -147 -23 l-114 0 0 256
0 256 114 -4 c98 -3 119 -6 143 -24z"/>
<path d="M7122 2273 c3 -53 5 -58 28 -61 54 -6 71 -13 81 -36 9 -19 -4 -59
-81 -251 -122 -306 -120 -302 -172 -312 l-43 -9 -3 -52 -3 -52 176 0 176 0 -3
52 c-3 51 -4 51 -43 62 -48 14 -56 39 -29 97 l17 39 168 0 168 0 16 -30 c8
-16 15 -43 15 -60 0 -27 -4 -31 -45 -42 -47 -13 -52 -21 -47 -80 l4 -38 235 0
234 0 -3 53 -3 52 -42 10 c-24 6 -49 17 -57 25 -8 8 -76 159 -151 335 -76 176
-144 328 -153 338 -13 15 -38 17 -229 17 l-214 0 3 -57z m321 -246 c26 -62 47
-116 47 -120 0 -4 -45 -7 -100 -7 -76 0 -100 3 -100 13 0 8 17 54 38 103 21
49 42 97 45 107 4 9 10 17 14 17 5 0 30 -51 56 -113z"/>
<path d="M550 1060 l0 -240 25 0 c24 0 24 1 27 108 l3 107 103 3 102 3 0 -111
0 -110 30 0 30 0 -2 238 -3 237 -25 0 c-25 0 -25 -1 -30 -100 l-5 -100 -88 -3
c-57 -2 -94 1 -103 9 -10 8 -14 37 -14 105 0 94 0 94 -25 94 l-25 0 0 -240z"/>
<path d="M1747 1293 c-4 -3 -7 -40 -7 -81 0 -67 -2 -73 -17 -67 -99 39 -180
-15 -199 -133 -9 -59 12 -134 47 -168 31 -30 55 -33 193 -22 l38 3 -1 229 c-1
126 -4 233 -7 238 -6 10 -38 11 -47 1z m-25 -234 c21 -39 23 -113 5 -148 -6
-13 -24 -33 -38 -43 -55 -41 -105 19 -103 123 2 86 40 127 99 109 11 -4 28
-22 37 -41z"/>
<path d="M2397 1293 c-4 -3 -7 -111 -7 -240 l0 -233 30 0 29 0 3 103 c3 116 4
116 95 102 52 -8 56 -15 74 -127 12 -76 13 -78 40 -78 l29 0 -6 63 c-4 34 -15
88 -26 121 -17 51 -17 59 -4 70 36 27 45 98 19 153 -24 52 -77 73 -184 73 -47
0 -89 -3 -92 -7z m214 -74 c28 -36 25 -85 -8 -115 -31 -29 -56 -37 -109 -32
l-39 3 -3 74 c-4 104 -4 104 74 99 55 -3 69 -8 85 -29z"/>
<path d="M4447 1294 c-4 -4 -7 -113 -7 -241 l0 -234 28 3 27 3 5 120 c3 66 10
128 15 137 16 27 58 32 86 10 22 -19 24 -28 29 -144 l5 -123 28 -3 27 -3 0
114 c0 128 -12 171 -57 207 -23 18 -38 21 -80 18 l-52 -5 -3 71 c-3 63 -5 71
-23 74 -12 2 -24 0 -28 -4z"/>
<path d="M4965 1288 c-3 -7 -4 -115 -3 -238 l3 -225 28 -3 27 -3 -2 238 -3
238 -23 3 c-12 2 -24 -3 -27 -10z"/>
<path d="M5907 1293 c-4 -3 -7 -15 -7 -25 0 -13 7 -18 25 -18 20 0 25 5 25 25
0 18 -5 25 -18 25 -10 0 -22 -3 -25 -7z"/>
<path d="M9120 1278 c-64 -33 -99 -94 -107 -184 -10 -119 20 -210 85 -259 35
-26 155 -28 192 -3 32 22 65 82 56 103 -9 25 -47 14 -66 -20 -9 -16 -33 -39
-53 -50 -36 -20 -37 -20 -69 -1 -63 37 -88 90 -88 186 0 104 42 184 103 195
46 9 80 -7 102 -49 15 -28 26 -36 47 -36 34 0 35 10 6 61 -28 50 -57 69 -116
75 -37 4 -57 0 -92 -18z"/>
<path d="M10737 1294 c-4 -4 -7 -43 -7 -86 l0 -79 -30 16 c-93 48 -189 -34
-190 -163 0 -59 20 -116 52 -146 21 -20 33 -21 176 -17 l52 1 -2 238 c-3 230
-4 237 -23 240 -12 2 -24 0 -28 -4z m-35 -218 c44 -54 31 -168 -23 -207 -29
-21 -33 -21 -58 -6 -36 21 -54 79 -47 146 7 58 18 78 51 91 27 11 56 2 77 -24z"/>
<path d="M7525 1278 c-2 -7 -5 -93 -7 -190 -3 -161 -5 -179 -24 -205 -37 -49
-74 -40 -101 25 -10 23 -20 32 -37 32 -40 0 -38 -38 7 -100 16 -22 24 -25 86
-25 61 0 71 3 89 25 35 43 43 95 40 275 -3 168 -3 170 -26 173 -12 2 -24 -3
-27 -10z"/>
<path d="M10055 1268 c-3 -13 -4 -117 -3 -233 l3 -210 133 -3 c124 -2 133 -1
130 15 -3 15 -18 19 -103 23 l-100 5 -3 213 -2 212 -25 0 c-17 0 -26 -7 -30
-22z"/>
<path d="M5733 1223 c-13 -9 -23 -26 -23 -39 0 -21 -5 -24 -36 -24 -31 0 -35
-3 -32 -22 2 -17 12 -24 33 -28 l30 -5 3 -118 c3 -152 12 -167 89 -167 45 0
54 3 51 16 -2 9 -19 22 -38 28 l-35 11 0 115 0 115 35 5 c27 4 36 10 38 28 3
20 -1 22 -37 22 -40 0 -41 1 -41 34 0 42 -8 48 -37 29z"/>
<path d="M6093 1225 c-11 -8 -24 -26 -27 -40 -5 -21 -12 -25 -42 -25 -31 0
-35 -3 -32 -22 2 -17 11 -24 33 -26 16 -2 33 -9 37 -15 4 -7 8 -62 8 -122 0
-141 8 -155 86 -155 46 0 55 3 52 16 -2 9 -19 22 -38 28 l-35 11 -3 118 -3
117 41 0 c36 0 40 2 40 25 0 23 -4 25 -40 25 -39 0 -40 1 -40 34 0 42 -10 50
-37 31z"/>
<path d="M6648 1223 c-9 -10 -18 -27 -20 -38 -2 -14 -13 -21 -38 -25 -32 -5
-36 -10 -31 -40 0 -5 14 -10 30 -10 17 0 31 -6 35 -16 3 -9 6 -66 6 -128 0
-97 3 -115 18 -129 19 -18 106 -24 116 -9 8 13 -8 29 -37 36 -17 4 -31 16 -37
32 -12 30 -13 184 -2 201 4 6 23 13 42 15 27 2 35 7 35 23 0 16 -8 21 -35 23
-39 4 -50 15 -50 55 0 31 -10 34 -32 10z"/>
<path d="M10371 1217 c-11 -13 -21 -31 -21 -40 0 -12 -8 -17 -29 -17 -33 0
-44 -11 -35 -34 4 -10 18 -16 35 -16 l29 0 0 -112 c0 -95 3 -118 20 -145 18
-30 24 -33 69 -33 28 0 52 4 55 8 8 13 -8 29 -37 36 -17 4 -31 16 -37 32 -12
30 -13 184 -2 201 4 6 23 13 42 15 27 2 35 7 35 23 0 16 -8 21 -35 23 -38 4
-50 15 -50 49 0 32 -14 35 -39 10z"/>
<path d="M967 1135 c-78 -73 -76 -228 3 -300 17 -16 36 -20 86 -20 58 0 67 3
94 30 18 19 37 53 46 87 15 51 15 60 0 113 -11 34 -29 68 -47 86 -26 26 -37
29 -92 29 -53 0 -66 -4 -90 -25z m123 -28 c35 -27 50 -62 50 -117 0 -62 -22
-107 -62 -129 -57 -30 -115 52 -105 147 9 85 70 136 117 99z"/>
<path d="M1240 988 l0 -168 24 0 c24 0 24 1 28 119 3 103 6 124 24 148 27 36
63 41 92 11 19 -21 22 -36 24 -148 l3 -125 28 -3 27 -3 0 125 c0 132 -5 157
-39 193 -20 21 -30 23 -116 21 l-95 -1 0 -169z"/>
<path d="M1914 1152 c-16 -11 -44 -55 -44 -69 0 -23 51 -14 72 12 31 40 83 27
100 -25 12 -34 -10 -50 -68 -50 -48 0 -59 -4 -85 -29 -51 -51 -35 -148 28
-172 13 -5 62 -6 109 -3 l84 7 0 111 c0 187 -21 225 -125 226 -33 0 -65 -4
-71 -8z m124 -199 c4 -39 -10 -67 -43 -89 -23 -15 -27 -15 -50 0 -57 38 -13
129 60 123 26 -2 30 -6 33 -34z"/>
<path d="M2792 1140 c-57 -48 -78 -162 -43 -242 30 -69 52 -83 133 -83 68 0
71 1 99 35 54 65 11 98 -46 36 -40 -44 -67 -45 -106 -7 -21 22 -29 39 -29 65
l0 35 103 3 102 3 3 33 c4 41 -20 94 -55 121 -35 28 -128 29 -161 1z m123 -46
c14 -15 25 -30 25 -35 0 -4 3 -14 6 -23 5 -14 -5 -16 -70 -16 -73 0 -76 1 -76
24 0 28 45 76 72 76 10 0 30 -12 43 -26z"/>
<path d="M3085 1135 c-35 -34 -34 -88 1 -120 15 -14 32 -25 39 -25 7 0 33 -9
59 -20 67 -30 78 -65 32 -102 -31 -26 -61 -22 -89 12 -26 30 -60 39 -72 20 -4
-6 3 -26 15 -44 24 -39 71 -53 144 -42 76 12 113 82 77 148 -10 20 -75 58 -99
58 -20 0 -63 27 -68 43 -8 24 23 57 53 57 13 0 35 -12 48 -26 26 -28 58 -29
63 0 2 10 -6 29 -19 42 -20 21 -32 24 -91 24 -60 0 -72 -3 -93 -25z"/>
<path d="M3402 1140 c-73 -60 -81 -212 -16 -289 47 -56 165 -54 209 4 27 35
25 65 -5 65 -10 0 -30 -16 -44 -35 -15 -19 -36 -35 -47 -35 -31 0 -70 31 -85
66 -24 57 -14 64 91 64 115 0 127 4 119 39 -11 51 -27 86 -52 114 -23 24 -33
27 -86 27 -45 -1 -67 -6 -84 -20z m109 -30 c19 -10 49 -59 49 -80 0 -6 -29
-10 -75 -10 -72 0 -75 1 -75 24 0 26 44 76 67 76 8 0 23 -5 34 -10z"/>
<path d="M3706 1138 c-35 -32 -38 -62 -7 -66 16 -3 31 5 46 22 29 34 69 34 91
2 8 -14 14 -35 12 -48 -3 -21 -9 -23 -64 -26 -53 -2 -65 -7 -89 -32 -52 -55
-30 -160 36 -174 16 -3 63 -3 104 1 l75 6 0 137 0 138 -29 31 c-26 28 -35 31
-89 31 -49 0 -66 -4 -86 -22z m140 -163 c10 -26 -19 -96 -48 -113 -26 -15 -28
-15 -53 8 -34 32 -32 63 6 94 34 29 86 35 95 11z"/>
<path d="M3967 1151 c-2 -3 -1 -79 1 -168 l4 -163 29 0 29 0 0 133 c0 129 1
134 24 157 17 15 33 21 50 18 20 -4 26 -1 26 13 0 17 -8 19 -80 17 -45 0 -82
-4 -83 -7z"/>
<path d="M4204 1142 c-42 -35 -59 -82 -59 -164 1 -71 3 -80 31 -115 53 -65
160 -70 201 -10 33 49 33 71 0 75 -19 2 -29 -2 -34 -15 -10 -28 -45 -63 -63
-63 -21 0 -55 36 -69 73 -24 64 -4 148 45 186 24 19 30 20 48 8 12 -8 26 -25
33 -37 6 -13 19 -27 27 -32 42 -23 49 35 10 81 -24 29 -31 31 -87 31 -44 -1
-68 -6 -83 -18z"/>
<path d="M5075 1151 c-3 -2 -5 -78 -5 -168 l0 -163 30 0 30 0 0 103 c0 56 4
117 10 136 17 59 70 80 106 40 16 -18 19 -40 22 -150 l4 -129 29 0 29 0 0 119
c0 193 -22 222 -163 219 -48 -1 -90 -4 -92 -7z"/>
<path d="M5406 1129 c-14 -17 -26 -41 -26 -54 0 -29 45 -85 68 -85 10 0 30 -7
46 -15 15 -8 33 -15 39 -15 14 0 36 -31 37 -52 0 -20 -51 -58 -79 -58 -11 0
-30 14 -43 30 -27 37 -68 42 -68 8 1 -56 70 -87 162 -73 34 5 49 14 66 39 41
60 20 121 -50 150 -107 44 -108 45 -108 69 0 51 67 66 96 22 28 -42 88 -29 65
14 -24 43 -40 51 -111 51 -64 0 -70 -2 -94 -31z"/>
<path d="M5907 1153 c-4 -3 -7 -80 -7 -170 l0 -163 25 0 25 0 0 170 c0 158 -1
170 -18 170 -10 0 -22 -3 -25 -7z"/>
<path d="M6257 1154 c-4 -4 -7 -62 -7 -128 0 -192 25 -222 175 -210 l85 7 0
153 c0 164 -3 184 -29 184 -35 0 -41 -21 -41 -145 0 -114 -1 -123 -23 -143
-29 -28 -59 -28 -83 -1 -16 18 -20 42 -24 153 -5 122 -6 131 -25 134 -12 2
-24 0 -28 -4z"/>
<path d="M6832 1130 c-71 -74 -67 -229 8 -295 18 -16 36 -20 92 -20 68 0 71 1
99 35 55 65 12 97 -47 36 -21 -21 -45 -36 -59 -36 -40 0 -99 89 -80 119 4 7
48 11 111 11 l104 0 0 35 c0 43 -31 108 -62 129 -14 10 -44 16 -80 16 -51 0
-61 -3 -86 -30z m132 -36 c14 -15 26 -37 26 -50 0 -23 -3 -24 -70 -24 -67 0
-70 1 -70 24 0 29 42 76 68 76 11 0 31 -12 46 -26z"/>
<path d="M7655 1129 c-29 -36 -28 -53 4 -57 14 -2 29 5 43 23 26 33 63 30 91
-6 15 -22 17 -30 8 -48 -10 -17 -21 -21 -67 -21 -48 0 -59 -4 -85 -29 -34 -35
-40 -95 -12 -142 21 -36 54 -43 153 -32 62 7 75 11 74 26 0 9 -1 71 -2 136 -2
116 -3 120 -31 150 -26 28 -35 31 -89 31 -55 0 -62 -3 -87 -31z m142 -185 c-5
-48 -38 -94 -67 -94 -38 0 -70 74 -44 100 18 18 70 40 93 40 22 0 23 -3 18
-46z"/>
<path d="M7914 1147 c-2 -7 -3 -102 -2 -212 l3 -200 25 0 c23 0 25 4 28 48 3
43 5 47 23 42 40 -13 108 -7 133 12 61 44 84 165 47 244 -12 25 -34 53 -50 62
-31 18 -107 23 -130 8 -8 -5 -27 -5 -43 0 -20 5 -30 4 -34 -4z m185 -58 c24
-26 35 -85 26 -136 -16 -96 -101 -119 -140 -38 -25 54 -17 138 17 174 25 27
72 27 97 0z"/>
<path d="M8257 1135 c-15 -14 -27 -35 -27 -45 0 -31 46 -26 74 7 21 24 27 26
52 18 30 -11 51 -51 41 -79 -5 -12 -20 -16 -60 -16 -66 0 -101 -24 -118 -79
-9 -32 -8 -44 6 -75 24 -50 51 -59 154 -49 l84 8 -2 129 c-1 71 -6 139 -11
151 -14 38 -49 55 -110 55 -45 0 -60 -5 -83 -25z m137 -193 c0 -30 -8 -50 -25
-68 -28 -30 -55 -28 -81 7 -15 20 -17 30 -9 52 12 30 62 58 96 54 17 -2 20 -9
19 -45z"/>
<path d="M8504 1145 c-3 -6 -3 -80 -2 -165 l3 -155 29 0 30 0 -2 100 c-2 55 2
115 7 134 18 59 71 80 107 40 16 -18 20 -42 24 -148 l5 -126 28 -3 27 -3 0
120 c0 126 -8 161 -42 198 -20 21 -29 23 -116 21 -56 -2 -96 -7 -98 -13z"/>
<path d="M9447 1149 c-10 -6 -29 -28 -42 -49 -34 -53 -36 -167 -4 -219 31 -51
42 -59 90 -65 72 -10 110 4 144 52 26 38 29 51 29 115 0 76 -10 104 -52 150
-23 24 -33 27 -86 27 -34 0 -69 -5 -79 -11z m115 -46 c64 -74 62 -178 -6 -235
-28 -23 -39 -22 -74 7 -39 33 -57 98 -43 152 21 77 86 117 123 76z"/>
<path d="M9710 861 c0 -39 1 -41 31 -41 29 0 30 2 27 38 -3 32 -7 37 -30 40
-27 3 -28 1 -28 -37z"/>
<path d="M9831 878 c-5 -14 -12 -50 -16 -82 -10 -74 7 -73 46 5 39 77 40 93 7
97 -22 3 -30 -2 -37 -20z"/>
<path d="M10826 869 c-8 -40 -1 -49 35 -49 27 0 29 2 29 40 0 37 -2 40 -29 40
-24 0 -29 -5 -35 -31z"/>
</g>
</svg>
