<svg id="svg" version="1.1" xmlns="http://www.w3.org/2000/svg" xmlns:xlink="http://www.w3.org/1999/xlink" width="56" height="56" viewBox="0, 0, 400,93.23308270676692"><g id="svgg"><path id="path0" d="M128.500 21.931 C 127.354 22.159,125.470 22.523,124.313 22.740 C 123.156 22.958,121.994 23.247,121.730 23.383 C 121.466 23.519,120.612 23.856,119.833 24.132 C 111.113 27.223,106.501 33.462,106.501 42.167 C 106.501 52.940,112.940 59.205,126.917 62.029 L 130.417 62.736 137.000 62.798 C 141.187 62.837,144.160 62.792,145.167 62.673 C 147.271 62.426,152.497 61.410,153.750 61.004 C 162.542 58.157,166.829 54.407,168.901 47.750 L 169.731 45.083 169.733 42.167 C 169.736 39.109,169.585 38.321,168.259 34.472 C 167.788 33.106,165.315 29.640,164.056 28.583 C 162.124 26.962,158.337 24.736,156.828 24.334 C 156.418 24.226,155.585 23.919,154.977 23.654 C 154.285 23.352,152.442 22.876,150.060 22.385 L 146.250 21.600 138.417 21.559 C 130.669 21.519,130.561 21.523,128.500 21.931 M244.736 22.846 C 244.059 23.043,243.833 23.584,243.833 25.013 C 243.833 27.148,244.207 27.577,246.301 27.839 C 251.563 28.499,251.238 27.603,251.296 41.632 C 251.355 55.956,251.503 55.417,247.333 56.073 C 244.721 56.484,244.366 56.606,243.993 57.217 C 243.527 57.981,243.522 60.451,243.985 61.023 L 244.304 61.417 264.360 61.465 C 285.347 61.515,288.575 61.439,290.512 60.846 C 291.101 60.666,292.505 60.294,293.631 60.019 C 294.757 59.744,295.920 59.371,296.214 59.190 C 296.509 59.008,297.136 58.708,297.608 58.522 C 301.528 56.981,306.019 51.761,306.811 47.825 C 307.382 44.985,307.500 44.026,307.500 42.208 C 307.500 35.359,305.067 30.501,299.917 27.064 C 299.092 26.513,298.154 25.960,297.833 25.835 C 297.512 25.710,296.762 25.367,296.167 25.073 C 295.571 24.779,294.258 24.344,293.250 24.106 C 292.242 23.868,290.870 23.524,290.201 23.343 C 289.390 23.122,287.976 22.955,285.951 22.839 C 282.217 22.627,245.470 22.633,244.736 22.846 M319.917 22.779 C 318.634 23.061,318.333 23.485,318.333 25.013 C 318.333 27.373,318.943 27.808,322.750 28.170 C 327.830 28.652,327.986 29.850,323.837 36.500 C 323.350 37.279,322.607 38.496,322.185 39.204 C 321.762 39.913,320.109 42.613,318.510 45.204 C 316.911 47.796,315.013 50.892,314.291 52.083 C 312.325 55.330,311.918 55.653,309.250 56.080 C 306.078 56.587,305.606 56.910,305.418 58.705 C 305.114 61.612,304.533 61.479,317.617 61.491 C 330.312 61.502,329.500 61.656,329.500 59.237 C 329.500 57.184,329.018 56.642,326.918 56.329 C 323.106 55.763,322.377 54.405,324.359 51.559 C 325.849 49.418,324.728 49.591,337.465 49.537 C 350.554 49.481,349.775 49.357,351.326 51.739 C 353.016 54.332,352.340 55.522,348.803 56.182 C 345.378 56.821,344.580 57.702,345.119 60.250 C 345.399 61.577,344.345 61.499,362.133 61.500 L 377.848 61.500 378.258 61.091 C 378.623 60.726,378.667 60.541,378.667 59.366 C 378.667 56.873,378.452 56.677,375.136 56.150 C 371.723 55.607,371.403 55.354,368.428 50.833 C 367.372 49.229,366.278 47.579,365.996 47.167 C 365.714 46.754,365.230 46.004,364.920 45.500 C 364.047 44.082,363.025 42.476,362.585 41.833 C 361.169 39.765,360.684 39.047,359.550 37.333 C 358.851 36.279,358.011 34.954,357.682 34.388 C 357.160 33.491,356.659 32.721,354.448 29.417 C 354.203 29.050,353.495 27.976,352.876 27.031 C 350.600 23.556,350.081 23.058,348.491 22.829 C 347.446 22.678,320.590 22.631,319.917 22.779 M33.778 23.302 C 33.461 23.652,33.381 25.833,33.659 26.562 C 33.889 27.167,34.246 27.303,36.995 27.832 C 39.812 28.375,40.350 28.597,40.715 29.368 C 41.325 30.655,41.349 31.204,41.299 42.583 C 41.237 56.677,41.590 55.489,37.214 56.349 C 33.515 57.076,33.500 57.088,33.500 59.309 C 33.500 61.482,31.700 61.250,48.536 61.250 C 65.620 61.250,64.000 61.452,64.000 59.319 C 64.000 57.223,63.809 57.057,60.677 56.419 C 56.716 55.612,56.350 55.106,56.219 50.250 C 56.139 47.306,56.248 46.892,57.276 46.217 C 57.836 45.851,77.946 45.660,79.611 46.006 C 81.226 46.341,81.333 46.609,81.333 50.316 C 81.333 55.050,80.951 55.592,77.083 56.345 C 74.668 56.815,74.213 57.015,73.911 57.739 C 73.547 58.610,73.589 60.367,73.985 60.857 L 74.304 61.250 87.777 61.300 C 104.848 61.364,103.667 61.514,103.667 59.272 C 103.667 57.330,103.283 57.009,100.165 56.341 C 98.056 55.890,97.292 55.522,96.768 54.705 C 95.907 53.365,95.917 53.512,95.917 42.000 L 95.917 31.250 96.300 30.419 C 97.035 28.825,97.730 28.378,100.287 27.858 C 103.255 27.254,103.667 26.900,103.667 24.953 C 103.667 22.884,105.281 23.091,88.728 23.039 L 74.490 22.995 74.079 23.406 C 73.526 23.959,73.482 25.779,74.001 26.629 C 74.401 27.286,74.756 27.434,76.917 27.844 C 80.944 28.608,81.331 29.145,81.332 33.967 C 81.334 38.751,82.543 38.333,68.702 38.333 C 55.267 38.333,56.167 38.609,56.167 34.492 C 56.167 29.880,56.806 28.648,59.498 28.069 C 62.981 27.320,63.065 27.294,63.534 26.825 C 64.082 26.277,64.232 24.047,63.763 23.407 C 63.402 22.912,34.224 22.810,33.778 23.302 M172.606 23.345 C 172.207 23.659,172.167 23.797,172.167 24.838 C 172.167 26.893,172.586 27.252,175.674 27.835 C 180.278 28.704,180.024 27.835,179.963 42.503 L 179.917 53.583 179.500 54.416 C 178.941 55.533,178.317 55.908,176.460 56.242 C 172.616 56.933,172.167 57.249,172.167 59.263 C 172.167 61.497,171.350 61.366,184.890 61.301 L 195.529 61.250 195.931 60.782 C 196.706 59.881,196.367 57.618,195.381 57.108 C 194.818 56.817,193.262 56.412,192.083 56.251 C 189.996 55.965,189.099 55.066,188.505 52.667 C 188.170 51.312,188.346 34.249,188.699 33.896 C 189.525 33.070,191.484 34.782,194.251 38.750 C 195.106 39.976,196.473 41.830,197.375 42.985 C 199.770 46.054,200.672 47.243,201.689 48.667 C 201.983 49.079,202.418 49.650,202.654 49.936 C 202.890 50.222,203.496 51.035,204.000 51.743 C 204.504 52.452,205.217 53.388,205.583 53.825 C 206.328 54.711,206.992 55.581,208.517 57.667 C 210.231 60.010,211.243 60.958,212.256 61.168 C 213.943 61.518,231.730 61.312,232.143 60.938 C 232.487 60.627,232.489 60.550,232.537 45.604 C 232.597 27.096,232.218 28.710,236.714 27.846 C 239.712 27.270,240.167 26.876,240.167 24.851 C 240.167 22.920,241.281 23.091,228.312 23.038 L 217.158 22.993 216.746 23.406 C 216.397 23.754,216.333 23.976,216.333 24.831 C 216.333 26.847,217.023 27.511,219.436 27.818 C 221.880 28.130,222.720 28.599,223.640 30.163 L 224.083 30.917 224.132 40.041 C 224.182 49.471,224.132 50.328,223.515 50.659 C 222.865 51.007,220.817 49.125,218.957 46.469 C 217.934 45.008,217.249 44.072,215.783 42.135 C 215.069 41.190,214.206 40.048,213.867 39.599 C 213.528 39.149,213.019 38.511,212.737 38.182 C 212.454 37.853,211.985 37.246,211.693 36.833 C 210.887 35.695,208.398 32.374,207.045 30.634 C 206.382 29.781,205.257 28.303,204.545 27.350 C 203.833 26.397,203.063 25.367,202.833 25.061 C 202.604 24.756,202.017 24.167,201.528 23.753 L 200.639 23.000 186.842 23.000 C 173.136 23.000,173.042 23.002,172.606 23.345 M142.833 28.754 C 147.541 29.883,150.159 32.148,151.491 36.242 L 152.167 38.319 152.167 42.058 C 152.167 50.149,150.067 53.249,143.083 55.466 C 141.676 55.913,134.087 55.850,132.750 55.381 C 128.872 54.020,127.354 53.062,125.987 51.115 C 123.157 47.086,122.874 38.701,125.411 34.040 C 127.082 30.970,131.037 28.765,135.333 28.507 C 137.980 28.349,141.646 28.469,142.833 28.754 M283.042 30.078 C 287.439 31.009,289.764 34.205,290.169 39.870 C 290.821 48.987,288.102 53.661,281.750 54.342 C 278.882 54.649,267.540 54.484,266.885 54.126 C 265.772 53.517,265.833 54.211,265.833 42.224 C 265.833 30.289,265.802 30.649,266.874 30.163 C 267.815 29.736,281.098 29.666,283.042 30.078 M338.586 32.292 C 338.842 32.544,339.386 33.275,339.796 33.917 C 340.566 35.122,341.105 35.954,343.141 39.079 C 344.486 41.143,344.611 41.681,343.903 42.346 L 343.474 42.750 338.278 42.801 C 335.421 42.830,332.755 42.805,332.354 42.746 C 330.798 42.519,330.401 41.342,331.387 39.878 C 331.691 39.425,332.340 38.386,332.828 37.569 C 333.316 36.752,334.033 35.596,334.422 35.000 C 334.811 34.404,335.246 33.684,335.389 33.400 C 336.135 31.919,337.669 31.387,338.586 32.292 " stroke="none" fill="#c80404" fill-rule="evenodd"></path><path id="path1" d="M0.000 46.583 L 0.000 93.167 200.000 93.167 L 400.000 93.167 400.000 46.583 L 400.000 0.000 200.000 0.000 L 0.000 0.000 0.000 46.583 M149.221 20.823 C 149.939 20.927,151.026 21.202,151.638 21.433 C 152.250 21.664,153.431 21.991,154.263 22.159 C 155.095 22.328,156.145 22.650,156.596 22.877 C 157.047 23.103,157.717 23.381,158.083 23.496 C 158.450 23.610,159.237 23.976,159.833 24.309 C 160.429 24.642,161.116 25.003,161.360 25.110 C 165.183 26.790,169.684 32.598,170.597 37.028 C 171.174 39.831,171.073 45.386,170.396 48.058 C 169.388 52.039,165.308 57.103,161.616 58.958 C 161.143 59.195,160.424 59.600,160.019 59.857 C 159.614 60.114,159.012 60.410,158.683 60.514 C 158.353 60.618,157.504 60.961,156.797 61.275 C 156.089 61.590,154.931 61.958,154.224 62.094 C 153.517 62.229,152.292 62.562,151.501 62.833 C 149.427 63.545,147.480 63.664,138.000 63.660 C 128.435 63.655,126.989 63.561,124.333 62.773 C 123.279 62.460,121.929 62.089,121.333 61.948 C 116.255 60.748,110.636 56.980,107.976 52.993 C 105.440 49.191,104.148 42.980,105.066 39.007 C 105.205 38.407,105.404 37.370,105.509 36.702 C 105.883 34.309,108.622 29.734,110.788 27.884 C 111.822 27.001,114.388 25.167,114.590 25.167 C 114.658 25.167,115.095 24.932,115.561 24.645 C 116.027 24.358,116.861 23.951,117.413 23.741 C 117.965 23.531,118.912 23.132,119.518 22.855 C 120.124 22.578,121.136 22.261,121.767 22.152 C 122.397 22.042,123.542 21.739,124.311 21.479 C 125.669 21.020,127.368 20.730,129.417 20.606 C 131.741 20.465,147.983 20.644,149.221 20.823 M286.229 21.739 C 287.066 21.870,288.718 22.062,289.900 22.166 C 296.933 22.782,304.294 27.315,307.021 32.709 C 308.846 36.319,309.713 42.167,308.926 45.549 C 308.793 46.118,308.558 47.146,308.402 47.833 C 308.029 49.483,306.996 51.769,305.885 53.405 C 304.658 55.212,304.684 55.260,306.839 55.206 C 310.196 55.120,311.405 54.490,312.556 52.222 C 312.781 51.779,313.216 51.029,313.524 50.554 C 314.875 48.470,316.243 46.228,316.810 45.167 C 317.079 44.663,317.539 43.950,317.831 43.583 C 318.124 43.217,318.472 42.657,318.604 42.340 C 318.737 42.023,319.195 41.236,319.622 40.590 C 320.524 39.226,320.972 38.509,321.501 37.583 C 321.711 37.217,322.122 36.542,322.414 36.083 C 325.176 31.760,325.542 30.758,324.703 29.820 L 324.240 29.302 321.495 29.085 C 317.220 28.749,316.863 28.388,317.030 24.575 C 317.174 21.278,315.927 21.508,333.666 21.504 L 348.249 21.500 349.568 21.939 C 350.569 22.273,351.052 22.544,351.570 23.064 C 352.294 23.791,357.573 31.624,359.951 35.500 C 360.724 36.760,361.475 37.931,363.056 40.345 C 364.208 42.104,364.855 43.100,367.486 47.167 C 370.659 52.069,371.163 52.782,372.063 53.633 C 373.276 54.780,373.806 54.983,376.107 55.183 C 379.378 55.467,379.417 55.513,379.417 59.114 L 379.417 61.660 378.872 62.205 L 378.327 62.750 362.038 62.750 C 342.230 62.750,343.996 63.103,344.004 59.141 C 344.010 55.957,344.469 55.449,347.527 55.242 C 350.281 55.057,350.881 54.599,350.413 53.042 C 349.722 50.747,350.258 50.841,337.868 50.837 C 326.035 50.833,326.716 50.752,325.589 52.296 C 324.187 54.215,324.760 55.003,327.733 55.245 C 330.349 55.457,331.082 56.340,331.083 59.279 C 331.083 61.239,330.903 61.624,329.652 62.333 L 328.917 62.750 317.583 62.750 C 303.252 62.750,303.833 62.894,303.833 59.331 C 303.833 56.347,303.702 56.237,301.746 57.578 C 297.908 60.210,293.473 61.819,289.112 62.162 C 287.845 62.261,286.420 62.434,285.945 62.546 C 285.290 62.701,280.157 62.750,264.571 62.750 L 244.059 62.750 243.367 62.292 C 242.239 61.546,242.083 61.177,242.083 59.257 C 242.083 56.175,242.765 55.458,245.964 55.177 C 248.152 54.985,248.796 54.729,249.444 53.794 L 249.917 53.112 249.962 42.118 L 250.007 31.125 249.571 30.380 C 248.998 29.402,248.391 29.165,246.052 29.005 C 243.999 28.864,243.503 28.668,243.026 27.809 C 242.874 27.536,242.608 27.074,242.435 26.781 L 242.120 26.250 241.768 26.739 C 240.474 28.539,240.072 28.740,237.281 28.982 C 235.220 29.161,234.606 29.435,234.045 30.426 L 233.672 31.083 233.668 45.667 C 233.665 60.692,233.644 61.167,232.982 61.767 C 232.484 62.217,212.048 62.353,210.890 61.914 C 210.022 61.584,208.779 60.245,207.024 57.750 C 206.207 56.587,205.224 55.273,204.167 53.928 C 202.664 52.017,201.818 50.894,201.085 49.833 C 200.672 49.237,200.091 48.442,199.793 48.066 C 197.399 45.046,196.108 43.358,195.089 41.917 C 194.765 41.458,194.125 40.596,193.666 40.000 C 193.206 39.404,192.587 38.580,192.290 38.168 C 189.903 34.857,189.805 35.137,189.868 45.155 C 189.928 54.904,189.995 55.163,192.453 55.168 C 196.438 55.175,197.503 56.062,197.498 59.365 C 197.492 62.378,198.461 62.180,183.962 62.127 L 172.007 62.083 171.545 61.621 C 171.093 61.168,171.083 61.119,171.085 59.204 C 171.088 55.979,171.419 55.642,174.945 55.274 C 177.467 55.011,178.018 54.781,178.396 53.836 C 178.717 53.035,178.812 31.778,178.499 30.654 C 178.159 29.430,177.698 29.244,174.007 28.849 C 172.940 28.734,172.294 28.579,172.007 28.368 C 170.727 27.426,170.621 23.012,171.861 22.305 C 172.403 21.996,199.608 21.876,201.000 22.176 C 201.997 22.391,203.533 23.760,204.701 25.475 C 204.992 25.901,205.439 26.512,205.695 26.833 C 205.951 27.154,206.748 28.204,207.465 29.167 C 208.182 30.129,209.087 31.329,209.477 31.833 C 210.477 33.128,212.386 35.682,212.674 36.111 C 212.909 36.460,214.266 38.211,215.538 39.805 C 216.273 40.726,217.911 42.954,218.500 43.833 C 218.729 44.175,219.126 44.709,219.383 45.019 C 219.639 45.329,220.266 46.090,220.777 46.708 C 222.671 49.002,222.734 48.804,222.800 40.417 C 222.884 29.576,222.787 29.289,218.939 28.982 C 215.727 28.725,215.010 28.070,214.882 25.277 C 214.723 21.841,214.054 21.999,228.583 22.046 C 241.176 22.087,240.523 22.035,241.487 23.067 C 242.037 23.655,242.141 23.626,242.979 22.654 C 243.379 22.188,243.867 21.743,244.062 21.664 C 244.727 21.396,284.491 21.466,286.229 21.739 M63.733 22.159 C 64.876 22.424,65.075 22.776,65.140 24.640 C 65.260 28.132,64.766 28.665,61.119 28.982 C 57.880 29.263,57.583 29.667,57.583 33.805 C 57.583 36.471,57.608 36.711,57.907 36.930 C 58.515 37.375,78.987 37.272,79.561 36.821 L 80.000 36.476 79.998 33.946 C 79.996 29.853,79.555 29.278,76.193 28.978 C 72.952 28.689,72.167 27.912,72.167 24.996 C 72.167 21.781,71.040 21.978,89.103 22.036 C 106.655 22.093,105.333 21.853,105.333 24.984 C 105.333 27.978,104.634 28.615,100.922 28.999 C 97.450 29.359,97.511 29.126,97.511 42.083 C 97.510 55.180,97.419 54.844,101.097 55.269 C 104.538 55.666,105.201 56.234,105.307 58.872 C 105.447 62.367,106.915 62.074,89.031 62.129 C 70.834 62.184,72.096 62.413,72.195 59.075 C 72.282 56.152,72.840 55.631,76.293 55.248 C 79.653 54.876,80.000 54.413,80.000 50.302 L 80.000 47.674 79.549 47.379 C 79.129 47.104,78.370 47.083,68.618 47.083 L 58.137 47.083 57.819 47.477 C 57.020 48.463,57.469 53.646,58.426 54.485 C 59.047 55.031,59.277 55.089,61.798 55.332 C 64.747 55.617,65.075 55.995,65.080 59.121 C 65.083 61.127,65.076 61.165,64.621 61.621 L 64.159 62.083 49.038 62.128 C 38.472 62.159,33.785 62.118,33.481 61.992 C 32.751 61.690,32.582 61.139,32.594 59.099 C 32.613 55.884,32.892 55.593,36.268 55.273 C 40.514 54.870,40.169 56.037,40.157 42.122 C 40.146 28.941,40.220 29.347,37.783 29.101 C 37.307 29.053,36.219 28.945,35.366 28.861 C 32.996 28.627,32.591 28.060,32.586 24.971 C 32.583 23.020,32.830 22.384,33.682 22.146 C 34.297 21.974,62.989 21.986,63.733 22.159 M135.143 29.842 C 129.645 30.600,127.312 32.394,125.954 36.908 C 124.911 40.374,125.369 47.421,126.783 49.667 C 127.812 51.299,129.168 52.564,130.775 53.389 C 133.749 54.915,142.734 54.797,145.747 53.192 C 149.252 51.325,150.492 48.446,150.497 42.167 C 150.502 35.581,149.296 32.880,145.463 30.898 C 143.789 30.032,138.035 29.443,135.143 29.842 M268.219 30.834 C 267.506 31.122,267.500 31.213,267.500 42.163 L 267.500 52.682 267.918 53.100 L 268.336 53.518 274.793 53.458 L 281.250 53.397 283.072 52.771 C 286.143 51.714,286.734 51.182,287.730 48.580 C 288.839 45.683,289.085 39.335,288.186 36.833 C 286.281 31.535,284.292 30.662,274.167 30.678 C 271.096 30.684,268.419 30.754,268.219 30.834 M336.809 33.958 C 336.578 34.210,335.876 35.279,335.250 36.333 C 334.624 37.387,333.910 38.550,333.662 38.917 C 333.415 39.283,333.051 39.901,332.854 40.289 L 332.496 40.996 332.831 41.331 C 333.151 41.651,333.379 41.667,337.641 41.667 C 343.656 41.667,343.469 41.896,340.750 37.850 C 340.017 36.759,339.233 35.559,339.009 35.184 C 338.017 33.526,337.480 33.227,336.809 33.958 " stroke="none" fill="#040404" fill-rule="evenodd"></path><path id="path2" d="M129.417 20.606 C 127.368 20.730,125.669 21.020,124.311 21.479 C 123.542 21.739,122.397 22.042,121.767 22.152 C 121.136 22.261,120.124 22.578,119.518 22.855 C 118.912 23.132,117.965 23.531,117.413 23.741 C 116.861 23.951,116.027 24.358,115.561 24.645 C 115.095 24.932,114.658 25.167,114.590 25.167 C 114.388 25.167,111.822 27.001,110.788 27.884 C 108.622 29.734,105.883 34.309,105.509 36.702 C 105.404 37.370,105.205 38.407,105.066 39.007 C 104.148 42.980,105.440 49.191,107.976 52.993 C 110.636 56.980,116.255 60.748,121.333 61.948 C 121.929 62.089,123.279 62.460,124.333 62.773 C 126.989 63.561,128.435 63.655,138.000 63.660 C 147.480 63.664,149.427 63.545,151.501 62.833 C 152.292 62.562,153.517 62.229,154.224 62.094 C 154.931 61.958,156.089 61.590,156.797 61.275 C 157.504 60.961,158.353 60.618,158.683 60.514 C 159.012 60.410,159.614 60.114,160.019 59.857 C 160.424 59.600,161.143 59.195,161.616 58.958 C 165.308 57.103,169.388 52.039,170.396 48.058 C 171.073 45.386,171.174 39.831,170.597 37.028 C 169.684 32.598,165.183 26.790,161.360 25.110 C 161.116 25.003,160.429 24.642,159.833 24.309 C 159.237 23.976,158.450 23.610,158.083 23.496 C 157.717 23.381,157.047 23.103,156.596 22.877 C 156.145 22.650,155.095 22.328,154.263 22.159 C 153.431 21.991,152.250 21.664,151.638 21.433 C 151.026 21.202,149.939 20.927,149.221 20.823 C 147.983 20.644,131.741 20.465,129.417 20.606 M150.060 22.385 C 152.442 22.876,154.285 23.352,154.977 23.654 C 155.585 23.919,156.418 24.226,156.828 24.334 C 158.337 24.736,162.124 26.962,164.056 28.583 C 165.315 29.640,167.788 33.106,168.259 34.472 C 169.585 38.321,169.736 39.109,169.733 42.167 L 169.731 45.083 168.901 47.750 C 166.829 54.407,162.542 58.157,153.750 61.004 C 152.497 61.410,147.271 62.426,145.167 62.673 C 144.160 62.792,141.187 62.837,137.000 62.798 L 130.417 62.736 126.917 62.029 C 112.940 59.205,106.501 52.940,106.501 42.167 C 106.501 33.462,111.113 27.223,119.833 24.132 C 120.612 23.856,121.466 23.519,121.730 23.383 C 121.994 23.247,123.156 22.958,124.313 22.740 C 125.470 22.523,127.354 22.159,128.500 21.931 C 130.561 21.523,130.669 21.519,138.417 21.559 L 146.250 21.600 150.060 22.385 M244.062 21.664 C 243.867 21.743,243.379 22.188,242.979 22.654 C 242.141 23.626,242.037 23.655,241.487 23.067 C 240.523 22.035,241.176 22.087,228.583 22.046 C 214.054 21.999,214.723 21.841,214.882 25.277 C 215.010 28.070,215.727 28.725,218.939 28.982 C 222.787 29.289,222.884 29.576,222.800 40.417 C 222.734 48.804,222.671 49.002,220.777 46.708 C 220.266 46.090,219.639 45.329,219.383 45.019 C 219.126 44.709,218.729 44.175,218.500 43.833 C 217.911 42.954,216.273 40.726,215.538 39.805 C 214.266 38.211,212.909 36.460,212.674 36.111 C 212.386 35.682,210.477 33.128,209.477 31.833 C 209.087 31.329,208.182 30.129,207.465 29.167 C 206.748 28.204,205.951 27.154,205.695 26.833 C 205.439 26.512,204.992 25.901,204.701 25.475 C 203.533 23.760,201.997 22.391,201.000 22.176 C 199.608 21.876,172.403 21.996,171.861 22.305 C 170.621 23.012,170.727 27.426,172.007 28.368 C 172.294 28.579,172.940 28.734,174.007 28.849 C 177.698 29.244,178.159 29.430,178.499 30.654 C 178.812 31.778,178.717 53.035,178.396 53.836 C 178.018 54.781,177.467 55.011,174.945 55.274 C 171.419 55.642,171.088 55.979,171.085 59.204 C 171.083 61.119,171.093 61.168,171.545 61.621 L 172.007 62.083 183.962 62.127 C 198.461 62.180,197.492 62.378,197.498 59.365 C 197.503 56.062,196.438 55.175,192.453 55.168 C 189.995 55.163,189.928 54.904,189.868 45.155 C 189.805 35.137,189.903 34.857,192.290 38.168 C 192.587 38.580,193.206 39.404,193.666 40.000 C 194.125 40.596,194.765 41.458,195.089 41.917 C 196.108 43.358,197.399 45.046,199.793 48.066 C 200.091 48.442,200.672 49.237,201.085 49.833 C 201.818 50.894,202.664 52.017,204.167 53.928 C 205.224 55.273,206.207 56.587,207.024 57.750 C 208.779 60.245,210.022 61.584,210.890 61.914 C 212.048 62.353,232.484 62.217,232.982 61.767 C 233.644 61.167,233.665 60.692,233.668 45.667 L 233.672 31.083 234.045 30.426 C 234.606 29.435,235.220 29.161,237.281 28.982 C 240.072 28.740,240.474 28.539,241.768 26.739 L 242.120 26.250 242.435 26.781 C 242.608 27.074,242.874 27.536,243.026 27.809 C 243.503 28.668,243.999 28.864,246.052 29.005 C 248.391 29.165,248.998 29.402,249.571 30.380 L 250.007 31.125 249.962 42.118 L 249.917 53.112 249.444 53.794 C 248.796 54.729,248.152 54.985,245.964 55.177 C 242.765 55.458,242.083 56.175,242.083 59.257 C 242.083 61.177,242.239 61.546,243.367 62.292 L 244.059 62.750 264.571 62.750 C 280.157 62.750,285.290 62.701,285.945 62.546 C 286.420 62.434,287.845 62.261,289.112 62.162 C 293.473 61.819,297.908 60.210,301.746 57.578 C 303.702 56.237,303.833 56.347,303.833 59.331 C 303.833 62.894,303.252 62.750,317.583 62.750 L 328.917 62.750 329.652 62.333 C 330.903 61.624,331.083 61.239,331.083 59.279 C 331.082 56.340,330.349 55.457,327.733 55.245 C 324.760 55.003,324.187 54.215,325.589 52.296 C 326.716 50.752,326.035 50.833,337.868 50.837 C 350.258 50.841,349.722 50.747,350.413 53.042 C 350.881 54.599,350.281 55.057,347.527 55.242 C 344.469 55.449,344.010 55.957,344.004 59.141 C 343.996 63.103,342.230 62.750,362.038 62.750 L 378.327 62.750 378.872 62.205 L 379.417 61.660 379.417 59.114 C 379.417 55.513,379.378 55.467,376.107 55.183 C 373.806 54.983,373.276 54.780,372.063 53.633 C 371.163 52.782,370.659 52.069,367.486 47.167 C 364.855 43.100,364.208 42.104,363.056 40.345 C 361.475 37.931,360.724 36.760,359.951 35.500 C 357.573 31.624,352.294 23.791,351.570 23.064 C 351.052 22.544,350.569 22.273,349.568 21.939 L 348.249 21.500 333.666 21.504 C 315.927 21.508,317.174 21.278,317.030 24.575 C 316.863 28.388,317.220 28.749,321.495 29.085 L 324.240 29.302 324.703 29.820 C 325.542 30.758,325.176 31.760,322.414 36.083 C 322.122 36.542,321.711 37.217,321.501 37.583 C 320.972 38.509,320.524 39.226,319.622 40.590 C 319.195 41.236,318.737 42.023,318.604 42.340 C 318.472 42.657,318.124 43.217,317.831 43.583 C 317.539 43.950,317.079 44.663,316.810 45.167 C 316.243 46.228,314.875 48.470,313.524 50.554 C 313.216 51.029,312.781 51.779,312.556 52.222 C 311.405 54.490,310.196 55.120,306.839 55.206 C 304.684 55.260,304.658 55.212,305.885 53.405 C 306.996 51.769,308.029 49.483,308.402 47.833 C 308.558 47.146,308.793 46.118,308.926 45.549 C 309.713 42.167,308.846 36.319,307.021 32.709 C 304.294 27.315,296.933 22.782,289.900 22.166 C 288.718 22.062,287.066 21.870,286.229 21.739 C 284.491 21.466,244.727 21.396,244.062 21.664 M33.682 22.146 C 32.830 22.384,32.583 23.020,32.586 24.971 C 32.591 28.060,32.996 28.627,35.366 28.861 C 40.644 29.380,40.145 28.000,40.157 42.122 C 40.169 56.037,40.514 54.870,36.268 55.273 C 32.892 55.593,32.613 55.884,32.594 59.099 C 32.582 61.139,32.751 61.690,33.481 61.992 C 33.785 62.118,38.472 62.159,49.038 62.128 L 64.159 62.083 64.621 61.621 C 65.076 61.165,65.083 61.127,65.080 59.121 C 65.075 55.995,64.747 55.617,61.798 55.332 C 59.277 55.089,59.047 55.031,58.426 54.485 C 57.469 53.646,57.020 48.463,57.819 47.477 L 58.137 47.083 68.618 47.083 C 78.370 47.083,79.129 47.104,79.549 47.379 L 80.000 47.674 80.000 50.302 C 80.000 54.413,79.653 54.876,76.293 55.248 C 72.840 55.631,72.282 56.152,72.195 59.075 C 72.096 62.413,70.834 62.184,89.031 62.129 C 106.915 62.074,105.447 62.367,105.307 58.872 C 105.201 56.234,104.538 55.666,101.097 55.269 C 97.419 54.844,97.510 55.180,97.511 42.083 C 97.511 29.126,97.450 29.359,100.922 28.999 C 104.634 28.615,105.333 27.978,105.333 24.984 C 105.333 21.853,106.655 22.093,89.103 22.036 C 71.040 21.978,72.167 21.781,72.167 24.996 C 72.167 27.912,72.952 28.689,76.193 28.978 C 79.555 29.278,79.996 29.853,79.998 33.946 L 80.000 36.476 79.561 36.821 C 78.987 37.272,58.515 37.375,57.907 36.930 C 57.608 36.711,57.583 36.471,57.583 33.805 C 57.583 29.667,57.880 29.263,61.119 28.982 C 64.766 28.665,65.260 28.132,65.140 24.640 C 65.075 22.776,64.876 22.424,63.733 22.159 C 62.989 21.986,34.297 21.974,33.682 22.146 M285.951 22.839 C 287.976 22.955,289.390 23.122,290.201 23.343 C 290.870 23.524,292.242 23.868,293.250 24.106 C 294.258 24.344,295.571 24.779,296.167 25.073 C 296.762 25.367,297.512 25.710,297.833 25.835 C 298.154 25.960,299.092 26.513,299.917 27.064 C 305.067 30.501,307.500 35.359,307.500 42.208 C 307.500 44.026,307.382 44.985,306.811 47.825 C 306.019 51.761,301.528 56.981,297.608 58.522 C 297.136 58.708,296.509 59.008,296.214 59.190 C 295.920 59.371,294.757 59.744,293.631 60.019 C 292.505 60.294,291.101 60.666,290.512 60.846 C 288.575 61.439,285.347 61.515,264.360 61.465 L 244.304 61.417 243.985 61.023 C 243.522 60.451,243.527 57.981,243.993 57.217 C 244.366 56.606,244.721 56.484,247.333 56.073 C 251.503 55.417,251.355 55.956,251.296 41.632 C 251.238 27.603,251.563 28.499,246.301 27.839 C 244.207 27.577,243.833 27.148,243.833 25.013 C 243.833 23.584,244.059 23.043,244.736 22.846 C 245.470 22.633,282.217 22.627,285.951 22.839 M348.491 22.829 C 350.081 23.058,350.600 23.556,352.876 27.031 C 353.495 27.976,354.203 29.050,354.448 29.417 C 356.659 32.721,357.160 33.491,357.682 34.388 C 358.011 34.954,358.851 36.279,359.550 37.333 C 360.684 39.047,361.169 39.765,362.585 41.833 C 363.025 42.476,364.047 44.082,364.920 45.500 C 365.230 46.004,365.714 46.754,365.996 47.167 C 366.278 47.579,367.372 49.229,368.428 50.833 C 371.403 55.354,371.723 55.607,375.136 56.150 C 378.452 56.677,378.667 56.873,378.667 59.366 C 378.667 60.541,378.623 60.726,378.258 61.091 L 377.848 61.500 362.133 61.500 C 344.345 61.499,345.399 61.577,345.119 60.250 C 344.580 57.702,345.378 56.821,348.803 56.182 C 352.340 55.522,353.016 54.332,351.326 51.739 C 349.775 49.357,350.554 49.481,337.465 49.537 C 324.728 49.591,325.849 49.418,324.359 51.559 C 322.377 54.405,323.106 55.763,326.918 56.329 C 329.018 56.642,329.500 57.184,329.500 59.237 C 329.500 61.656,330.312 61.502,317.617 61.491 C 304.533 61.479,305.114 61.612,305.418 58.705 C 305.606 56.910,306.078 56.587,309.250 56.080 C 311.918 55.653,312.325 55.330,314.291 52.083 C 315.013 50.892,316.911 47.796,318.510 45.204 C 320.109 42.613,321.762 39.913,322.185 39.204 C 322.607 38.496,323.350 37.279,323.837 36.500 C 327.986 29.850,327.830 28.652,322.750 28.170 C 318.943 27.808,318.333 27.373,318.333 25.013 C 318.333 23.485,318.634 23.061,319.917 22.779 C 320.590 22.631,347.446 22.678,348.491 22.829 M63.763 23.407 C 64.232 24.047,64.082 26.277,63.534 26.825 C 63.065 27.294,62.981 27.320,59.498 28.069 C 56.806 28.648,56.167 29.880,56.167 34.492 C 56.167 38.609,55.267 38.333,68.702 38.333 C 82.543 38.333,81.334 38.751,81.332 33.967 C 81.331 29.145,80.944 28.608,76.917 27.844 C 74.756 27.434,74.401 27.286,74.001 26.629 C 73.482 25.779,73.526 23.959,74.079 23.406 L 74.490 22.995 88.728 23.039 C 105.281 23.091,103.667 22.884,103.667 24.953 C 103.667 26.900,103.255 27.254,100.287 27.858 C 97.730 28.378,97.035 28.825,96.300 30.419 L 95.917 31.250 95.917 42.000 C 95.917 53.512,95.907 53.365,96.768 54.705 C 97.292 55.522,98.056 55.890,100.165 56.341 C 103.283 57.009,103.667 57.330,103.667 59.272 C 103.667 61.514,104.848 61.364,87.777 61.300 L 74.304 61.250 73.985 60.857 C 73.589 60.367,73.547 58.610,73.911 57.739 C 74.213 57.015,74.668 56.815,77.083 56.345 C 80.951 55.592,81.333 55.050,81.333 50.316 C 81.333 46.609,81.226 46.341,79.611 46.006 C 77.946 45.660,57.836 45.851,57.276 46.217 C 56.248 46.892,56.139 47.306,56.219 50.250 C 56.350 55.106,56.716 55.612,60.677 56.419 C 63.809 57.057,64.000 57.223,64.000 59.319 C 64.000 61.452,65.620 61.250,48.536 61.250 C 31.700 61.250,33.500 61.482,33.500 59.309 C 33.500 57.088,33.515 57.076,37.214 56.349 C 41.590 55.489,41.237 56.677,41.299 42.583 C 41.364 27.719,41.660 28.731,36.995 27.832 C 33.526 27.164,33.500 27.143,33.500 24.877 C 33.500 22.776,31.738 22.988,48.792 23.039 C 63.159 23.082,63.533 23.091,63.763 23.407 M201.528 23.753 C 202.017 24.167,202.604 24.756,202.833 25.061 C 203.063 25.367,203.833 26.397,204.545 27.350 C 205.257 28.303,206.382 29.781,207.045 30.634 C 208.398 32.374,210.887 35.695,211.693 36.833 C 211.985 37.246,212.454 37.853,212.737 38.182 C 213.019 38.511,213.528 39.149,213.867 39.599 C 214.206 40.048,215.069 41.190,215.783 42.135 C 217.249 44.072,217.934 45.008,218.957 46.469 C 220.817 49.125,222.865 51.007,223.515 50.659 C 224.132 50.328,224.182 49.471,224.132 40.041 L 224.083 30.917 223.640 30.163 C 222.720 28.599,221.880 28.130,219.436 27.818 C 217.023 27.511,216.333 26.847,216.333 24.831 C 216.333 23.976,216.397 23.754,216.746 23.406 L 217.158 22.993 228.312 23.038 C 241.281 23.091,240.167 22.920,240.167 24.851 C 240.167 26.876,239.712 27.270,236.714 27.846 C 232.218 28.710,232.597 27.096,232.537 45.604 C 232.489 60.550,232.487 60.627,232.143 60.938 C 231.730 61.312,213.943 61.518,212.256 61.168 C 211.243 60.958,210.231 60.010,208.517 57.667 C 206.992 55.581,206.328 54.711,205.583 53.825 C 205.217 53.388,204.504 52.452,204.000 51.743 C 203.496 51.035,202.890 50.222,202.654 49.936 C 202.418 49.650,201.983 49.079,201.689 48.667 C 200.672 47.243,199.770 46.054,197.375 42.985 C 196.473 41.830,195.106 39.976,194.251 38.750 C 191.484 34.782,189.525 33.070,188.699 33.896 C 188.346 34.249,188.170 51.312,188.505 52.667 C 189.099 55.066,189.996 55.965,192.083 56.251 C 193.262 56.412,194.818 56.817,195.381 57.108 C 196.367 57.618,196.706 59.881,195.931 60.782 L 195.529 61.250 184.890 61.301 C 171.350 61.366,172.167 61.497,172.167 59.263 C 172.167 57.249,172.616 56.933,176.460 56.242 C 178.317 55.908,178.941 55.533,179.500 54.416 L 179.917 53.583 179.963 42.503 C 180.024 27.835,180.278 28.704,175.674 27.835 C 172.586 27.252,172.167 26.893,172.167 24.838 C 172.167 22.819,170.722 23.000,186.842 23.000 L 200.639 23.000 201.528 23.753 M135.333 28.507 C 131.037 28.765,127.082 30.970,125.411 34.040 C 122.874 38.701,123.157 47.086,125.987 51.115 C 127.354 53.062,128.872 54.020,132.750 55.381 C 134.087 55.850,141.676 55.913,143.083 55.466 C 150.067 53.249,152.167 50.149,152.167 42.058 L 152.167 38.319 151.491 36.242 C 149.532 30.220,144.772 27.942,135.333 28.507 M143.046 30.226 C 146.377 30.967,148.812 32.898,149.846 35.617 C 150.563 37.502,150.775 44.379,150.202 47.179 C 149.721 49.532,147.832 52.082,145.747 53.192 C 142.734 54.797,133.749 54.915,130.775 53.389 C 129.168 52.564,127.812 51.299,126.783 49.667 C 124.966 46.780,124.929 38.189,126.719 34.727 C 128.932 30.448,135.682 28.587,143.046 30.226 M266.874 30.163 C 265.802 30.649,265.833 30.289,265.833 42.224 C 265.833 54.211,265.772 53.517,266.885 54.126 C 267.540 54.484,278.882 54.649,281.750 54.342 C 288.102 53.661,290.821 48.987,290.169 39.870 C 289.764 34.205,287.439 31.009,283.042 30.078 C 281.098 29.666,267.815 29.736,266.874 30.163 M280.813 30.842 C 285.068 31.532,286.781 32.924,288.186 36.833 C 289.085 39.335,288.839 45.683,287.730 48.580 C 286.734 51.182,286.143 51.714,283.072 52.771 L 281.250 53.397 274.793 53.458 L 268.336 53.518 267.918 53.100 L 267.500 52.682 267.500 42.163 C 267.500 31.213,267.506 31.122,268.219 30.834 C 268.735 30.627,279.527 30.633,280.813 30.842 M336.247 32.358 C 335.919 32.647,335.532 33.115,335.389 33.400 C 335.246 33.684,334.811 34.404,334.422 35.000 C 334.033 35.596,333.316 36.752,332.828 37.569 C 332.340 38.386,331.691 39.425,331.387 39.878 C 330.401 41.342,330.798 42.519,332.354 42.746 C 332.755 42.805,335.421 42.830,338.278 42.801 L 343.474 42.750 343.903 42.346 C 344.611 41.681,344.486 41.143,343.141 39.079 C 341.105 35.954,340.566 35.122,339.796 33.917 C 338.360 31.668,337.476 31.280,336.247 32.358 M338.144 34.001 C 338.395 34.277,338.785 34.810,339.009 35.184 C 339.233 35.559,340.017 36.759,340.750 37.850 C 343.469 41.896,343.656 41.667,337.641 41.667 C 333.379 41.667,333.151 41.651,332.831 41.331 L 332.496 40.996 332.854 40.289 C 333.051 39.901,333.415 39.283,333.662 38.917 C 333.910 38.550,334.624 37.387,335.250 36.333 C 337.005 33.378,337.333 33.114,338.144 34.001 " stroke="none" fill="#500404" fill-rule="evenodd"></path></g></svg>