<?xml version="1.0" standalone="no"?>
<!DOCTYPE svg PUBLIC "-//W3C//DTD SVG 20010904//EN"
 "http://www.w3.org/TR/2001/REC-SVG-20010904/DTD/svg10.dtd">
<svg version="1.0" xmlns="http://www.w3.org/2000/svg"
 width="1300px" height="2208px" viewBox="0 0 2560.000000 732.000000"
 preserveAspectRatio="xMidYMid meet">

<g transform="translate(0.000000,732.000000) scale(0.100000,-0.100000)"
fill="#000000" stroke="none">
<path d="M7534 6902 c-243 -86 -350 -353 -232 -575 154 -289 575 -284 719 9
99 201 16 445 -186 545 -59 29 -79 34 -159 36 -69 3 -103 -1 -142 -15z m259
-52 c78 -29 149 -96 189 -178 30 -61 33 -75 33 -157 -1 -78 -4 -98 -28 -147
-37 -75 -104 -143 -175 -176 -50 -24 -69 -27 -157 -27 -95 0 -103 2 -163 34
-75 41 -125 94 -161 170 -22 47 -26 70 -26 146 0 76 4 99 26 146 85 182 275
259 462 189z"/>
<path d="M1990 6060 c0 -374 -4 -680 -9 -680 -4 0 -18 25 -30 56 -101 266
-389 419 -724 385 -302 -30 -522 -183 -659 -456 -151 -299 -189 -906 -83
-1315 96 -371 289 -586 601 -672 65 -18 106 -21 234 -21 143 -1 161 2 235 27
190 65 353 217 405 379 6 20 16 37 21 37 5 0 10 -89 11 -197 l3 -198 333 -3
332 -2 0 1670 0 1670 -335 0 -335 0 0 -680z m-269 -796 c114 -34 192 -92 237
-178 l27 -51 3 -431 c3 -416 2 -433 -18 -487 -27 -73 -115 -156 -197 -187
-252 -94 -496 -12 -597 200 -52 107 -58 169 -54 502 4 311 7 330 63 438 42 81
147 167 238 195 61 19 231 19 298 -1z"/>
<path d="M3848 6730 c-248 -42 -427 -200 -493 -435 -13 -46 -19 -116 -22 -292
l-5 -233 -167 -2 -166 -3 -2 -243 c-1 -134 0 -249 4 -257 4 -12 35 -15 169
-15 l164 0 0 -925 0 -925 333 2 332 3 3 923 2 922 235 0 235 0 0 260 0 260
-235 0 -235 0 0 225 0 225 233 2 232 3 3 258 2 257 -287 -1 c-159 -1 -309 -5
-335 -9z"/>
<path d="M4762 5073 l3 -1668 333 -3 332 -2 0 334 0 335 146 165 c81 91 150
164 154 161 4 -3 22 -33 40 -67 18 -35 122 -229 230 -433 109 -203 212 -398
229 -432 l31 -63 396 0 c316 0 395 3 391 13 -2 7 -199 335 -436 729 -237 394
-431 720 -431 723 0 3 102 124 228 267 125 143 245 282 267 308 22 26 69 81
105 121 36 41 92 104 124 142 l58 67 -370 0 -371 0 -237 -282 c-183 -219 -270
-333 -382 -500 -80 -120 -151 -218 -159 -218 -11 0 -13 168 -13 985 l0 985
-335 0 -335 0 2 -1667z"/>
<path d="M7327 4587 l2 -1182 330 -3 331 -2 0 1185 0 1185 -332 0 -333 0 2
-1183z"/>
<path d="M12660 5220 l0 -440 75 0 75 0 0 215 c0 232 5 256 51 281 37 18 109
18 136 -1 35 -25 43 -77 43 -292 l0 -203 75 0 75 0 0 223 c0 244 -9 300 -56
356 -35 42 -102 65 -164 58 -65 -8 -106 -32 -136 -82 l-24 -40 0 183 0 182
-75 0 -75 0 0 -440z"/>
<path d="M17730 5220 l0 -440 75 0 75 0 0 221 c0 132 4 228 10 240 15 28 63
49 110 49 47 0 74 -12 86 -37 5 -10 11 -119 14 -243 l5 -225 78 -3 79 -3 -4
243 c-3 232 -4 245 -27 291 -28 56 -59 83 -115 98 -83 22 -179 -11 -214 -74
-17 -31 -17 -29 -20 146 l-2 177 -75 0 -75 0 0 -440z"/>
<path d="M9000 5194 l0 -416 198 4 c192 3 199 4 260 32 110 51 172 145 193
292 28 199 -30 371 -151 452 -67 45 -107 52 -312 52 l-188 0 0 -416z m400 254
c71 -41 88 -88 89 -242 1 -136 -10 -185 -54 -231 -39 -42 -93 -57 -198 -53
l-82 3 -3 265 c-1 146 -1 269 2 275 2 7 41 9 107 7 81 -3 112 -8 139 -24z"/>
<path d="M14852 5198 l3 -413 78 -3 77 -3 0 176 0 175 165 0 165 0 0 70 0 70
-165 0 -166 0 3 101 3 101 171 -1 c93 -1 178 1 187 5 14 5 17 19 17 70 l0 64
-270 0 -270 0 2 -412z"/>
<path d="M11142 5572 c-8 -2 -12 -27 -12 -70 0 -37 -4 -72 -8 -79 -4 -7 -26
-14 -47 -15 l-40 -3 -3 -63 -3 -62 46 0 45 0 0 -197 c0 -179 2 -201 20 -230
31 -52 61 -65 160 -71 l90 -5 0 61 0 61 -57 3 -58 3 -3 188 -2 187 65 0 66 0
-3 63 c-2 40 -7 62 -15 63 -7 1 -35 2 -63 3 l-50 1 0 80 c0 57 -4 80 -12 81
-50 4 -106 5 -116 1z"/>
<path d="M22843 5573 c-9 -3 -13 -27 -13 -73 0 -76 -8 -88 -61 -94 -19 -2 -37
-4 -41 -5 -5 0 -8 -28 -8 -61 l0 -60 44 0 44 0 4 -197 c3 -165 6 -203 21 -230
25 -47 69 -66 165 -71 l82 -5 0 62 0 61 -55 0 -55 0 0 190 0 190 60 0 61 0 -3
63 -3 62 -55 0 -55 0 -5 85 -5 85 -55 1 c-30 1 -61 -1 -67 -3z"/>
<path d="M20087 5492 c-9 -10 -19 -32 -23 -48 l-5 -29 -102 0 c-84 -1 -109 -5
-142 -22 -82 -43 -115 -98 -115 -189 0 -68 27 -124 75 -157 l34 -23 -33 -12
c-52 -19 -78 -54 -78 -104 1 -36 6 -48 36 -76 41 -37 43 -42 17 -42 -10 0 -33
-13 -50 -29 -29 -28 -36 -50 -32 -106 7 -80 109 -125 285 -125 168 0 266 35
304 110 47 93 17 201 -66 242 -41 20 -66 23 -197 26 -82 2 -156 9 -162 14 -19
16 -16 65 5 74 9 4 51 6 92 5 131 -5 222 35 260 113 38 79 17 195 -44 243 -42
33 -33 43 39 43 l65 0 0 55 0 55 -73 0 c-59 0 -77 -4 -90 -18z m-55 -202 c30
-23 41 -74 27 -124 -7 -27 -18 -37 -49 -50 -50 -20 -71 -20 -114 -2 -62 26
-74 133 -19 176 35 27 120 28 155 0z m71 -525 c25 -10 39 -49 28 -78 -14 -36
-64 -52 -166 -52 -99 0 -136 7 -159 31 -23 22 -20 70 5 95 20 20 29 21 148 17
69 -3 134 -9 144 -13z"/>
<path d="M9942 5406 c-62 -20 -105 -53 -140 -105 -40 -60 -52 -108 -52 -209 0
-142 46 -234 142 -288 49 -27 61 -29 153 -28 71 0 111 5 137 17 44 20 108 74
108 91 0 7 -17 29 -38 49 l-38 38 -20 -22 c-28 -32 -93 -59 -144 -59 -77 0
-128 45 -143 128 l-6 32 177 1 c97 1 191 2 207 3 l30 2 -1 64 c-1 126 -65 238
-156 275 -58 23 -163 28 -216 11z m163 -122 c24 -16 55 -79 55 -114 0 -19 -7
-20 -125 -20 l-125 0 0 30 c0 42 25 86 58 104 36 20 107 20 137 0z"/>
<path d="M11623 5406 c-61 -20 -99 -51 -122 -99 -51 -106 -7 -214 104 -255 23
-9 154 -32 179 -32 16 0 36 -36 36 -65 0 -28 -6 -37 -30 -50 -60 -31 -156 -12
-213 43 l-28 26 -47 -48 -47 -47 35 -31 c66 -57 114 -73 225 -73 110 0 153 15
207 72 81 85 59 226 -44 279 -14 7 -68 21 -120 30 -101 17 -128 33 -128 73 0
32 8 44 37 60 44 23 121 6 185 -41 15 -11 24 -7 62 31 l45 44 -27 24 c-72 62
-215 90 -309 59z"/>
<path d="M12247 5410 c-82 -21 -141 -72 -178 -155 -19 -42 -23 -68 -23 -160
-1 -98 2 -116 25 -165 48 -102 120 -150 235 -158 97 -6 160 15 212 72 35 38
60 82 50 91 -1 1 -26 14 -55 29 l-52 26 -22 -36 c-38 -62 -116 -81 -177 -44
-51 31 -64 75 -60 199 3 91 6 110 26 138 54 76 186 57 215 -30 4 -13 119 34
125 51 6 20 -65 98 -111 121 -53 26 -149 36 -210 21z"/>
<path d="M13472 5402 c-66 -24 -115 -70 -150 -142 -24 -50 -27 -66 -27 -165 0
-126 15 -172 80 -243 88 -98 284 -111 407 -26 61 42 62 53 16 102 l-40 44 -27
-25 c-84 -79 -210 -75 -261 8 -26 41 -27 95 -2 95 9 0 100 2 202 3 l185 2 0
75 c-1 120 -54 214 -149 262 -57 29 -167 34 -234 10z m177 -118 c26 -19 51
-71 51 -109 l0 -25 -125 0 -125 0 0 26 c0 38 26 87 58 106 35 22 110 23 141 2z"/>
<path d="M14095 5411 c-92 -24 -146 -83 -153 -166 -6 -70 2 -97 39 -139 35
-40 85 -60 189 -77 41 -6 83 -18 93 -27 17 -15 23 -58 9 -78 -36 -54 -167 -41
-235 24 l-28 26 -46 -47 -47 -46 24 -26 c93 -99 319 -113 422 -27 66 56 86
155 45 227 -30 53 -87 83 -190 101 -109 19 -112 20 -126 50 -16 35 -6 61 29
79 50 26 127 13 178 -30 l29 -24 43 44 44 45 -22 23 c-41 43 -107 69 -190 73
-42 2 -90 0 -107 -5z"/>
<path d="M15634 5402 c-128 -45 -188 -146 -187 -312 1 -210 117 -330 307 -318
114 8 191 60 238 163 20 43 23 66 23 160 0 94 -3 117 -24 162 -26 58 -84 117
-138 140 -58 24 -160 26 -219 5z m173 -127 c40 -26 53 -73 53 -185 0 -115 -12
-149 -63 -180 -38 -24 -75 -25 -122 -6 -53 22 -64 56 -66 191 -1 101 2 121 18
144 43 58 121 74 180 36z"/>
<path d="M16682 5402 c-89 -32 -132 -90 -132 -176 0 -60 19 -105 58 -138 37
-31 71 -42 172 -58 41 -7 83 -19 93 -28 17 -15 23 -58 9 -78 -36 -54 -167 -41
-235 24 l-28 26 -46 -47 -47 -46 24 -26 c93 -99 319 -113 422 -27 60 51 84
145 54 216 -27 64 -104 101 -248 121 -109 14 -113 120 -6 132 44 5 102 -14
150 -49 16 -11 24 -7 60 29 42 42 42 42 22 64 -61 67 -220 97 -322 61z"/>
<path d="M17302 5405 c-124 -38 -191 -146 -192 -308 0 -142 53 -250 147 -297
86 -43 226 -38 296 12 32 23 87 94 87 113 0 12 -86 55 -109 55 -5 0 -18 -13
-27 -30 -41 -68 -141 -78 -198 -21 l-31 31 0 129 c0 149 11 176 81 199 63 22
137 -12 157 -71 2 -8 20 -5 58 12 30 14 58 28 62 32 14 11 -40 87 -81 113 -66
44 -168 57 -250 31z"/>
<path d="M19303 5401 c-22 -10 -52 -36 -66 -56 l-26 -38 -3 49 -3 49 -75 0
-75 0 -3 -312 -2 -313 80 0 80 0 0 221 c0 132 4 228 10 240 23 43 109 63 164
38 40 -19 46 -56 46 -285 l0 -214 81 0 81 0 -4 238 c-3 231 -4 238 -29 293
-33 70 -77 99 -157 105 -43 4 -67 0 -99 -15z"/>
<path d="M20475 5409 c-101 -25 -162 -108 -152 -205 3 -32 14 -66 28 -85 26
-37 104 -75 174 -84 93 -13 125 -24 135 -51 12 -30 -2 -69 -29 -83 -52 -28
-160 -4 -214 47 l-28 26 -47 -48 -47 -47 35 -30 c58 -49 116 -72 196 -77 86
-5 150 9 204 44 89 59 107 197 37 272 -34 37 -73 53 -165 68 -100 16 -132 33
-132 72 1 75 86 94 186 42 l57 -31 44 43 44 43 -28 23 c-69 58 -202 85 -298
61z"/>
<path d="M21647 5410 c-154 -39 -242 -233 -192 -423 37 -141 134 -217 279
-217 35 0 85 7 114 15 49 15 132 69 138 90 2 6 -14 30 -36 55 l-39 45 -33 -32
c-101 -97 -254 -57 -275 71 l-6 36 39 0 c22 1 114 0 207 0 l167 -1 0 68 c0 86
-12 129 -53 190 -44 66 -114 103 -204 108 -38 2 -85 0 -106 -5z m164 -138 c24
-21 32 -38 36 -75 l6 -47 -127 0 c-120 0 -126 1 -126 20 0 34 26 85 55 108 42
33 115 30 156 -6z"/>
<path d="M22390 5411 c-43 -14 -70 -35 -93 -71 l-22 -35 -5 50 -5 50 -70 0
-70 0 -3 -312 -2 -313 75 0 75 0 0 214 c0 118 4 226 10 240 12 33 59 56 115
56 37 0 51 -5 70 -26 25 -27 25 -29 26 -225 1 -110 3 -208 4 -219 1 -11 3 -24
4 -30 0 -6 34 -10 77 -10 l75 0 -3 243 c-3 231 -4 244 -27 290 -31 63 -81 97
-152 102 -30 3 -65 1 -79 -4z"/>
<path d="M24545 5405 c-22 -8 -41 -15 -43 -15 -1 0 -16 -21 -32 -46 l-29 -46
-3 53 -3 54 -70 0 -70 0 -3 -312 -2 -313 75 0 75 0 0 215 c0 145 4 223 12 240
26 58 130 75 172 30 31 -33 36 -79 36 -301 l0 -184 75 0 75 0 0 224 c0 219 1
226 23 251 24 28 85 43 131 31 46 -11 51 -35 56 -276 l5 -225 75 0 75 0 3 204
c3 227 -6 297 -44 354 -67 101 -240 99 -313 -3 l-26 -37 -28 39 c-50 69 -137
93 -222 63z"/>
<path d="M10413 5394 c-2 -7 -3 -115 -1 -241 4 -259 12 -295 84 -349 34 -26
45 -29 115 -29 86 0 115 14 157 75 l22 33 0 -52 0 -51 75 0 75 0 -2 313 -3
312 -70 0 -70 0 -5 -226 c-6 -255 -6 -256 -81 -278 -30 -9 -48 -9 -75 -1 -59
20 -65 42 -67 288 l-2 217 -73 1 c-51 1 -75 -3 -79 -12z"/>
<path d="M16136 5402 c-3 -3 -6 -144 -6 -314 l0 -308 75 0 75 0 0 210 0 211
25 23 c26 24 71 36 138 36 l38 0 -3 73 -3 72 -39 -3 c-22 -2 -52 -10 -67 -17
-32 -17 -78 -70 -81 -93 -1 -9 -4 12 -7 48 l-6 65 -67 2 c-36 1 -69 -1 -72 -5z"/>
<path d="M18384 5396 c-3 -9 -4 -116 -2 -238 5 -230 10 -263 51 -322 64 -91
252 -85 303 10 l19 35 5 -48 5 -48 78 -3 77 -3 -2 313 -3 313 -65 1 c-36 1
-70 -1 -77 -3 -10 -4 -13 -58 -13 -227 0 -220 0 -223 -23 -244 -50 -47 -127
-49 -169 -5 -22 24 -23 31 -28 251 l-5 227 -73 3 c-57 2 -74 -1 -78 -12z"/>
<path d="M20896 5402 c-3 -3 -6 -32 -6 -64 l0 -58 150 0 c83 0 150 -3 150 -6
0 -3 -70 -87 -155 -187 l-155 -182 0 -62 0 -63 255 0 255 0 0 60 0 60 -160 0
c-105 0 -160 4 -160 10 0 6 70 93 155 192 l156 182 -3 60 -3 61 -237 2 c-130
0 -239 -2 -242 -5z"/>
<path d="M23197 5404 c-4 -4 -7 -146 -7 -316 l0 -308 75 0 75 0 0 210 0 211
25 23 c26 24 71 36 138 36 l37 0 0 69 c0 39 -4 72 -9 75 -5 4 -32 1 -60 -5
-55 -11 -106 -54 -119 -99 -5 -19 -8 -8 -12 40 l-5 65 -65 3 c-36 2 -69 0 -73
-4z"/>
<path d="M23625 5402 c-3 -3 -5 -105 -5 -227 0 -244 9 -298 56 -349 79 -84
241 -72 297 22 l22 37 3 -52 3 -53 75 0 74 0 -2 312 -3 312 -72 4 -73 3 0
-216 c0 -266 -1 -270 -107 -300 -29 -8 -88 18 -105 47 -9 16 -14 86 -18 243
l-5 220 -67 1 c-38 0 -70 -1 -73 -4z"/>
<path d="M9130 4281 c-78 -25 -110 -77 -110 -181 l0 -70 -45 0 -45 0 0 -60 0
-60 45 0 45 0 0 -254 0 -254 75 0 75 0 0 254 0 254 65 0 65 0 0 60 0 60 -65 0
-65 0 0 65 0 64 63 3 62 3 0 60 0 60 -70 2 c-38 1 -81 -2 -95 -6z"/>
<path d="M9470 4283 c-27 -9 -40 -36 -40 -79 0 -53 25 -74 87 -74 55 0 83 26
83 75 0 64 -63 102 -130 78z"/>
<path d="M9715 4278 c-29 -16 -35 -28 -35 -74 0 -54 22 -74 83 -74 59 0 87 25
87 75 0 67 -74 107 -135 73z"/>
<path d="M11613 4264 c-22 -22 -25 -32 -20 -67 7 -51 28 -67 87 -67 60 0 80
20 80 83 0 36 -5 49 -22 61 -36 25 -94 20 -125 -10z"/>
<path d="M11865 4265 c-35 -34 -30 -101 9 -127 23 -16 102 -9 119 10 24 27 22
97 -3 122 -29 29 -94 27 -125 -5z"/>
<path d="M13854 4277 c-2 -7 -3 -187 -2 -399 3 -374 4 -387 24 -415 30 -40 63
-53 141 -56 l68 -2 0 60 0 60 -42 3 -43 3 0 380 0 379 -70 0 c-49 0 -72 -4
-76 -13z"/>
<path d="M14170 4263 c-17 -22 -21 -37 -17 -68 7 -52 36 -75 93 -75 59 0 84
25 84 85 0 62 -24 85 -89 85 -42 0 -53 -4 -71 -27z"/>
<path d="M15042 3848 l3 -443 73 -2 72 -1 0 214 c0 233 5 257 54 284 34 17
110 17 132 -1 38 -31 44 -71 44 -288 l0 -209 76 0 76 0 -4 247 c-4 268 -8 289
-65 343 -37 35 -73 48 -134 48 -64 0 -120 -29 -150 -77 l-24 -38 -3 183 -2
182 -75 0 -75 0 2 -442z"/>
<path d="M18820 3895 c0 -435 1 -439 60 -470 17 -9 61 -17 98 -18 l67 -2 3 63
3 62 -40 0 -41 0 -2 378 -3 377 -72 3 -73 3 0 -396z"/>
<path d="M19130 3905 c0 -409 2 -427 48 -469 29 -25 170 -46 182 -26 7 11 7
67 1 113 -1 4 -19 7 -41 7 l-40 0 0 380 0 380 -75 0 -75 0 0 -385z"/>
<path d="M19454 4269 c-13 -14 -19 -36 -19 -66 0 -58 28 -83 91 -83 59 0 84
25 84 85 0 62 -24 85 -88 85 -37 0 -54 -5 -68 -21z"/>
<path d="M10802 3823 l3 -418 75 1 75 0 3 124 3 124 37 44 c20 24 44 53 53 64
15 19 21 12 133 -165 72 -114 124 -187 136 -190 35 -9 165 -3 162 8 -1 6 -70
115 -152 242 l-151 233 141 167 c77 93 140 172 140 176 0 4 -39 6 -87 5 l-87
-3 -99 -120 c-54 -66 -126 -157 -160 -203 l-62 -83 -3 205 -2 206 -80 0 -80 0
2 -417z"/>
<path d="M16630 4175 l0 -65 55 0 55 0 0 -290 0 -290 -55 0 -56 0 3 -62 3 -63
185 0 185 0 3 63 3 62 -56 0 -55 0 0 290 0 290 55 0 55 0 0 65 0 65 -190 0
-190 0 0 -65z"/>
<path d="M13500 4131 c0 -83 -13 -101 -71 -101 l-39 0 0 -60 0 -60 45 0 45 0
0 -192 c0 -171 2 -196 20 -233 28 -58 63 -75 165 -79 l85 -4 0 64 0 64 -60 0
-60 0 0 174 c0 96 3 181 6 190 5 12 21 16 65 16 l59 0 0 60 0 59 -62 3 -63 3
-2 70 c-1 39 -2 76 -2 83 -1 8 -21 12 -66 12 l-65 0 0 -69z"/>
<path d="M17828 4124 c-4 -84 -11 -94 -70 -94 l-38 0 0 -60 0 -60 44 0 45 0 3
-202 c4 -222 9 -245 62 -277 31 -19 163 -36 192 -24 10 4 14 23 14 64 l0 59
-57 0 -58 0 2 187 2 188 61 3 60 3 0 59 0 60 -62 0 -63 0 2 72 c0 39 -1 77 -4
85 -4 9 -25 13 -68 13 l-63 0 -4 -76z"/>
<path d="M20124 4129 c-23 -12 -44 -49 -44 -78 0 -16 -9 -17 -84 -13 -179 9
-276 -64 -276 -211 0 -51 5 -71 26 -104 15 -22 41 -48 58 -59 l30 -18 -28 -7
c-16 -5 -42 -20 -57 -35 -24 -23 -29 -36 -29 -75 0 -43 4 -51 36 -78 l37 -30
-36 -14 c-47 -20 -70 -58 -70 -113 0 -56 35 -96 107 -121 73 -25 289 -24 364
1 124 42 174 149 123 263 -33 71 -75 86 -261 93 -85 3 -160 8 -166 12 -18 12
-23 46 -9 64 10 14 31 17 116 18 82 1 113 6 149 23 137 63 162 223 52 336
l-36 37 72 0 73 0 -3 58 -3 57 -60 2 c-33 1 -70 -3 -81 -8z m-66 -222 c18 -17
22 -31 22 -78 0 -50 -3 -60 -26 -78 -30 -24 -106 -29 -147 -10 -67 31 -59 169
11 185 15 3 32 7 37 9 24 6 82 -9 103 -28z m83 -536 c25 -30 24 -44 -5 -78
l-24 -28 -130 0 c-148 0 -172 10 -172 71 0 60 16 66 173 62 132 -3 140 -4 158
-27z"/>
<path d="M12451 4023 c-18 -9 -47 -35 -62 -56 l-29 -40 0 51 0 52 -75 0 -75 0
0 -314 0 -314 63 0 c34 0 68 3 75 5 9 4 12 58 12 224 0 212 1 219 23 244 42
49 152 51 183 4 5 -8 11 -117 14 -243 l5 -229 54 -4 c30 -2 65 -2 78 2 l24 6
-3 237 c-3 217 -5 241 -24 283 -33 71 -82 103 -163 107 -48 2 -75 -2 -100 -15z"/>
<path d="M12979 4027 c-119 -45 -169 -155 -120 -264 27 -58 83 -88 201 -107
107 -17 137 -38 125 -85 -18 -74 -128 -81 -226 -15 l-52 35 -44 -43 -43 -42
27 -28 c98 -103 316 -116 418 -26 50 43 65 77 65 145 0 106 -61 159 -207 182
-97 15 -121 25 -129 56 -10 41 10 73 51 81 52 9 102 -1 148 -32 l39 -26 44 43
c42 41 43 44 26 62 -9 11 -39 31 -67 45 -61 31 -196 41 -256 19z"/>
<path d="M14620 4031 c-76 -24 -137 -79 -171 -156 -30 -68 -32 -225 -5 -304
50 -146 217 -218 370 -161 76 29 157 123 129 150 -4 5 -29 18 -55 29 l-47 20
-20 -33 c-26 -42 -60 -59 -115 -59 -55 0 -88 20 -110 68 -14 30 -17 58 -14
145 4 126 18 155 86 180 37 13 47 13 83 0 26 -10 47 -26 57 -45 10 -16 18 -32
20 -34 2 -5 122 50 122 56 0 2 -7 17 -15 32 -21 41 -88 96 -134 109 -42 13
-142 14 -181 3z"/>
<path d="M15870 4031 c-65 -20 -131 -74 -160 -131 -62 -119 -47 -319 31 -413
90 -109 282 -128 415 -41 65 42 68 54 25 104 l-37 43 -46 -36 c-54 -40 -109
-53 -165 -38 -60 16 -103 73 -103 137 l0 24 206 0 207 0 -5 79 c-8 135 -71
230 -177 266 -46 16 -148 19 -191 6z m139 -117 c44 -17 71 -61 71 -113 l0 -31
-126 0 -127 0 6 39 c6 50 33 86 77 105 45 19 52 19 99 0z"/>
<path d="M17365 4026 c-31 -14 -84 -68 -87 -89 0 -7 -4 11 -7 38 l-6 50 -75 0
-75 0 0 -310 0 -310 59 -1 c104 -2 96 -22 96 227 0 212 1 219 23 244 42 50
152 51 179 2 9 -15 15 -92 18 -247 l5 -225 72 -2 c55 -1 73 2 77 13 3 8 5 117
3 242 l-3 227 -29 55 c-23 42 -40 60 -75 78 -51 25 -127 29 -175 8z"/>
<path d="M18326 4026 c-64 -24 -109 -67 -145 -140 -33 -64 -35 -74 -35 -165 1
-113 23 -184 79 -244 65 -71 186 -103 296 -77 57 13 156 70 166 96 4 10 -9 31
-35 57 l-41 40 -35 -31 c-92 -81 -237 -56 -266 46 -21 77 -35 72 200 72 l210
0 0 28 c0 51 -21 145 -42 187 -27 53 -64 92 -113 118 -52 27 -182 34 -239 13z
m160 -112 c38 -18 59 -50 69 -107 l7 -37 -132 0 -133 0 6 37 c8 48 34 83 78
105 42 22 62 22 105 2z"/>
<path d="M20510 4031 c-125 -38 -200 -154 -200 -312 0 -192 101 -314 271 -327
77 -5 153 14 215 54 65 42 67 53 25 103 l-37 44 -47 -36 c-53 -40 -108 -53
-164 -38 -59 16 -103 71 -103 130 l0 31 206 0 207 0 -5 79 c-8 135 -71 230
-177 266 -46 16 -148 19 -191 6z m135 -115 c41 -18 75 -69 75 -113 l0 -33
-125 0 -125 0 0 25 c0 46 36 101 77 118 48 20 56 20 98 3z"/>
<path d="M21235 4026 c-31 -14 -64 -46 -83 -81 -10 -17 -11 -11 -12 33 l0 53
-77 -3 -78 -3 0 -309 0 -309 54 -4 c30 -2 65 -2 78 2 l23 5 0 220 c0 213 1
220 23 245 42 50 152 51 179 2 9 -15 15 -92 18 -247 l5 -225 75 0 75 1 0 234
c0 245 -3 268 -48 333 -41 60 -157 86 -232 53z"/>
<path d="M9370 3813 c1 -235 7 -287 46 -346 67 -101 247 -101 307 0 l22 38 5
-50 5 -50 73 -1 72 -1 0 314 0 313 -75 0 -75 0 0 -222 c0 -196 -3 -226 -18
-244 -25 -31 -55 -44 -104 -44 -40 0 -57 8 -90 43 -1 1 -5 106 -8 232 l-5 230
-77 3 -78 3 0 -218z"/>
<path d="M10040 3721 c0 -353 -9 -324 94 -320 l55 2 3 208 3 209 28 27 c24 24
36 28 102 31 l75 4 0 74 0 74 -29 0 c-68 0 -128 -37 -162 -100 l-18 -35 -1 68
0 67 -75 0 -75 0 0 -309z"/>
<path d="M11540 3798 c0 -128 4 -249 10 -268 13 -48 64 -107 107 -125 44 -19
114 -19 156 -1 18 7 50 32 70 56 l36 42 3 -48 3 -49 55 -1 c99 -1 90 -33 90
317 l0 309 -74 0 -75 0 -3 -225 -3 -225 -27 -26 c-31 -31 -110 -44 -147 -24
-44 23 -51 64 -51 290 l0 210 -75 0 -75 0 0 -232z"/>
<path d="M14170 3717 l0 -313 73 1 72 0 3 313 2 312 -75 0 -75 0 0 -313z"/>
<path d="M19450 3717 l0 -314 73 1 72 1 3 313 2 312 -75 0 -75 0 0 -313z"/>
<path d="M21617 4023 c-4 -3 -7 -30 -7 -60 l0 -53 155 0 c85 0 155 -2 155 -5
0 -3 -72 -89 -160 -193 l-161 -187 3 -60 3 -60 253 -3 252 -2 0 65 0 65 -160
0 c-150 0 -160 1 -151 18 6 9 76 93 156 187 l145 169 0 63 0 63 -238 0 c-131
0 -242 -3 -245 -7z"/>
<path d="M5470 3056 c-183 -33 -299 -77 -425 -161 -83 -55 -193 -163 -241
-234 l-26 -40 39 -34 c21 -19 110 -98 198 -176 l159 -142 20 28 c41 60 154
159 216 191 131 65 322 80 454 33 148 -52 203 -146 213 -366 l6 -122 -294 -6
c-235 -4 -318 -9 -412 -26 -259 -46 -444 -142 -554 -286 -92 -121 -122 -213
-130 -385 -7 -160 11 -261 69 -380 75 -155 228 -276 413 -326 93 -25 338 -30
449 -10 224 42 393 151 475 305 18 34 36 59 41 56 4 -3 21 -33 37 -68 37 -78
115 -164 183 -201 90 -49 135 -56 378 -56 l222 0 0 260 0 259 -107 3 -108 3
-5 615 c-6 600 -6 617 -28 694 -88 303 -287 478 -637 558 -117 26 -488 35
-605 14z m550 -50 c308 -57 515 -204 611 -434 63 -151 62 -147 66 -829 l4
-623 110 0 109 0 0 -211 0 -210 -227 3 c-223 3 -229 4 -285 30 -32 15 -80 49
-108 77 -49 49 -110 157 -110 194 0 14 -9 17 -44 17 -43 0 -44 -1 -72 -58 -44
-87 -142 -180 -244 -230 -133 -65 -218 -84 -395 -86 -176 -1 -254 14 -382 75
-149 71 -254 203 -300 379 -23 89 -23 282 0 370 30 111 74 188 151 265 83 82
156 127 269 168 170 60 240 69 611 74 l338 5 -4 162 c-4 137 -8 170 -28 221
-31 83 -113 164 -195 194 -79 30 -191 41 -290 30 -154 -16 -247 -61 -366 -176
l-75 -73 -160 142 c-87 77 -160 145 -162 149 -5 13 149 169 214 215 121 87
290 148 476 173 100 13 384 6 488 -13z"/>
<path d="M5610 1683 c-218 -38 -315 -164 -296 -383 17 -190 132 -282 354 -281
213 0 354 67 419 199 28 56 28 60 31 265 l3 207 -243 -1 c-134 -1 -254 -4
-268 -6z m468 -168 c6 -218 -21 -306 -113 -374 -73 -53 -155 -75 -290 -75
-105 -1 -126 2 -172 23 -63 28 -118 85 -132 138 -14 50 -14 186 0 234 27 87
115 151 244 175 44 8 142 12 265 11 l195 -2 3 -130z"/>
<path d="M7330 1835 l0 -1185 330 0 330 0 0 1185 0 1185 -330 0 -330 0 0
-1185z m620 0 l0 -1135 -290 0 -290 0 0 1135 0 1135 290 0 290 0 0 -1135z"/>
<path d="M17655 2898 c-2 -7 -40 -197 -85 -423 -44 -225 -82 -418 -84 -427 -4
-16 4 -18 58 -18 l62 0 34 173 c18 94 44 195 56 222 45 97 125 147 191 120 53
-23 55 -60 13 -265 -36 -178 -37 -200 -7 -228 19 -18 35 -22 89 -22 l66 0 7
33 c4 17 9 40 11 50 4 14 -1 17 -30 17 -25 0 -36 4 -36 15 0 8 14 83 31 167
43 214 34 281 -44 328 -38 24 -110 26 -158 6 -34 -14 -71 -49 -102 -96 -23
-33 -22 -26 18 176 19 97 35 178 35 180 0 2 -27 4 -60 4 -40 0 -62 -4 -65 -12z"/>
<path d="M22376 2900 c-31 -10 -71 -43 -89 -75 -6 -11 -18 -54 -27 -95 l-16
-75 -47 -3 c-49 -3 -50 -5 -63 -74 l-6 -38 46 0 c43 0 46 -2 41 -22 -7 -34
-125 -620 -125 -624 0 -2 -24 -4 -54 -4 -30 0 -57 -3 -59 -7 -3 -5 -8 -27 -12
-50 l-7 -43 66 0 c105 0 161 34 189 115 8 22 40 174 73 338 l58 297 62 0 61 0
7 38 c12 72 12 72 -49 72 -62 0 -59 -5 -41 90 l12 65 61 3 c60 3 62 4 68 35 4
18 9 40 11 50 5 15 -2 17 -63 16 -37 0 -81 -5 -97 -9z"/>
<path d="M9247 2846 c-176 -73 -278 -255 -278 -497 -1 -215 95 -334 266 -333
89 1 156 32 204 95 l34 44 -7 -40 c-4 -22 -10 -50 -13 -63 -5 -22 -4 -23 53
-20 l57 3 43 215 c24 118 44 216 44 218 0 1 -65 2 -144 2 -160 0 -147 6 -161
-72 l-6 -38 82 0 81 0 -6 -37 c-12 -69 -48 -126 -101 -158 -42 -26 -58 -30
-121 -30 -58 0 -78 4 -100 21 -52 38 -68 70 -72 143 -5 79 28 253 59 318 39
81 135 143 221 143 70 0 162 -56 174 -106 5 -20 11 -23 28 -18 30 9 96 43 96
50 0 20 -46 88 -81 117 -56 49 -116 67 -213 67 -62 0 -95 -6 -139 -24z"/>
<path d="M18758 2846 c-76 -31 -129 -75 -177 -147 -74 -110 -107 -241 -99
-384 9 -136 60 -225 155 -271 78 -39 193 -39 275 -2 67 31 125 82 156 137 l23
40 -52 27 c-48 24 -53 25 -62 9 -45 -82 -132 -131 -218 -123 -89 9 -138 62
-146 159 -6 75 24 240 58 319 37 86 130 150 215 150 46 -1 113 -36 132 -70 33
-61 32 -61 90 -37 47 19 52 25 47 45 -9 37 -51 98 -84 121 -79 56 -214 68
-313 27z"/>
<path d="M13521 2808 c-6 -29 -44 -216 -84 -416 l-73 -363 65 3 65 3 18 90
c10 50 26 123 34 163 l16 72 84 0 83 0 9 -32 c5 -18 27 -93 48 -165 l38 -133
68 0 c37 0 68 3 68 6 0 4 -22 77 -50 164 -27 87 -50 162 -50 168 0 6 19 20 43
30 49 23 109 80 132 127 56 119 25 258 -69 308 -38 20 -57 22 -238 25 l-196 3
-11 -53z m382 -82 c44 -34 23 -172 -34 -220 -29 -25 -36 -26 -155 -26 -68 0
-124 3 -124 8 0 4 10 62 22 129 l23 123 125 0 c90 -1 130 -4 143 -14z"/>
<path d="M20587 2813 c-4 -6 -27 -118 -27 -129 0 -15 -39 -34 -70 -34 -37 0
-39 -2 -45 -37 -12 -70 -13 -68 33 -71 23 -2 42 -4 42 -6 0 -1 -18 -92 -40
-201 -22 -109 -40 -209 -40 -223 0 -13 13 -37 29 -53 28 -28 34 -29 115 -29
77 0 86 2 86 19 0 10 3 33 6 50 l7 31 -57 0 c-38 0 -56 4 -56 13 0 6 16 99 37
205 l38 192 62 0 c67 0 65 -2 78 73 l6 37 -61 0 c-68 0 -66 -3 -45 85 21 87
22 85 -39 85 -30 0 -57 -3 -59 -7z"/>
<path d="M9969 2646 c-127 -45 -206 -152 -231 -310 -20 -135 26 -252 118 -296
37 -19 65 -24 123 -24 92 1 148 23 216 85 l46 43 -37 32 -38 31 -48 -38 c-113
-89 -258 -52 -258 65 l0 45 58 6 c259 28 352 82 352 207 0 64 -28 108 -90 141
-59 31 -147 36 -211 13z m156 -111 c44 -43 26 -104 -38 -130 -39 -16 -196 -39
-205 -30 -9 9 10 75 31 106 35 52 82 79 139 79 39 0 54 -5 73 -25z"/>
<path d="M11065 2646 c-34 -15 -75 -57 -99 -101 l-17 -30 6 40 c3 22 8 53 11
68 l6 28 -63 -3 -63 -3 -62 -307 -61 -308 63 0 c35 0 64 3 64 6 0 3 16 84 35
180 43 216 74 282 148 321 70 36 127 7 127 -67 0 -20 -18 -127 -40 -236 -22
-109 -40 -200 -40 -202 0 -2 28 -2 63 0 l62 3 31 158 c38 192 48 229 80 279
46 72 139 103 179 58 25 -28 23 -77 -14 -259 -17 -84 -31 -164 -31 -177 0 -39
44 -64 116 -64 68 0 65 -2 79 68 6 31 6 32 -29 32 -20 0 -36 4 -36 9 0 5 14
74 30 154 35 170 38 247 12 297 -55 103 -222 90 -299 -23 l-32 -48 -11 38
c-12 43 -25 62 -60 86 -30 21 -112 22 -155 3z"/>
<path d="M11935 2636 c-91 -42 -162 -153 -186 -291 -38 -223 61 -368 222 -325
42 12 107 66 136 115 10 18 12 15 12 -22 1 -64 27 -83 112 -83 73 0 70 -3 84
68 7 32 7 32 -34 32 -38 0 -41 2 -36 23 13 54 95 471 95 483 0 10 -16 14 -60
14 -41 0 -60 -4 -60 -12 0 -7 -5 -30 -11 -51 l-10 -39 -18 34 c-40 75 -149 99
-246 54z m203 -102 c37 -24 46 -60 32 -139 -20 -112 -37 -158 -76 -203 -64
-75 -138 -94 -190 -49 -22 19 -28 34 -32 78 -9 112 46 281 100 310 58 31 120
32 166 3z"/>
<path d="M12725 2637 c-22 -12 -55 -45 -74 -72 l-34 -50 8 40 c3 22 9 52 12
68 l6 27 -62 0 c-55 0 -61 -2 -66 -22 -13 -56 -115 -573 -115 -585 0 -9 17
-13 59 -13 l59 0 11 50 c6 28 23 111 37 186 40 199 99 284 199 284 89 0 96
-45 45 -293 -32 -155 -31 -188 3 -212 22 -16 142 -21 150 -7 3 4 8 26 12 50
l7 42 -36 0 c-20 0 -36 3 -36 8 0 4 14 72 30 152 47 228 37 312 -41 352 -48
25 -125 23 -174 -5z"/>
<path d="M14320 2643 c-66 -24 -160 -121 -191 -198 -19 -50 -23 -78 -24 -165
0 -90 3 -111 22 -146 44 -82 113 -119 224 -118 54 0 79 6 130 31 35 18 78 46
94 63 l30 31 -38 36 -39 35 -31 -30 c-46 -43 -89 -62 -142 -62 -84 0 -135 49
-135 129 0 29 2 30 58 35 241 25 337 75 357 187 8 41 -18 112 -52 141 -52 46
-177 61 -263 31z m170 -103 c13 -13 20 -33 20 -59 0 -65 -51 -91 -207 -106
l-63 -6 6 33 c10 54 52 116 92 138 50 26 126 26 152 0z"/>
<path d="M14879 2646 c-89 -31 -139 -101 -139 -192 0 -92 53 -140 180 -164 91
-17 110 -31 110 -79 0 -31 -6 -44 -31 -65 -25 -22 -41 -26 -90 -26 -63 0 -102
14 -133 49 -26 29 -37 27 -77 -15 l-34 -36 39 -33 c50 -44 124 -69 206 -69
147 0 240 81 240 210 0 99 -44 140 -179 168 -81 17 -111 37 -111 73 0 95 140
126 227 50 24 -22 43 -15 83 28 l25 27 -34 29 c-66 55 -196 76 -282 45z"/>
<path d="M15477 2646 c-142 -51 -229 -192 -229 -370 0 -173 79 -258 242 -259
91 -1 147 21 215 84 l46 43 -38 32 -38 32 -34 -30 c-68 -60 -157 -76 -219 -38
-36 22 -52 54 -52 105 0 33 0 34 58 40 259 28 352 82 352 207 0 66 -27 108
-90 141 -61 31 -147 36 -213 13z m158 -111 c42 -41 27 -101 -33 -129 -34 -17
-200 -42 -210 -32 -9 10 9 75 31 107 35 52 82 79 139 79 39 0 54 -5 73 -25z"/>
<path d="M16050 2647 c-19 -6 -60 -36 -91 -67 -77 -77 -110 -165 -116 -310 -4
-100 -3 -108 24 -160 36 -70 77 -95 153 -94 80 1 119 26 182 114 l18 25 -6
-26 c-6 -31 17 -83 41 -93 9 -3 45 -6 80 -6 l63 0 7 33 c4 17 9 40 11 50 5 14
-1 17 -35 17 -23 0 -41 2 -41 4 0 2 23 114 50 250 28 136 50 251 50 256 0 6
-27 10 -59 10 -64 0 -62 2 -76 -69 l-7 -33 -23 38 c-12 20 -38 45 -56 55 -38
20 -115 23 -169 6z m181 -113 c47 -24 54 -60 30 -169 -33 -155 -91 -232 -185
-242 -40 -5 -48 -2 -76 25 -27 28 -30 36 -30 94 0 77 32 209 61 249 45 64 126
81 200 43z"/>
<path d="M17143 2639 c-67 -26 -143 -108 -173 -187 -28 -71 -38 -217 -20 -282
8 -30 27 -60 59 -91 38 -38 56 -49 104 -59 118 -24 235 29 288 132 l18 36 -27
11 c-15 6 -37 15 -49 20 -19 9 -25 5 -42 -24 -31 -53 -76 -77 -135 -72 -55 5
-90 34 -103 85 -9 39 24 220 50 267 29 53 101 90 153 80 35 -6 68 -32 89 -69
9 -17 12 -16 58 3 51 22 54 28 32 71 -46 88 -184 125 -302 79z"/>
<path d="M19405 2647 c-124 -49 -203 -153 -227 -302 -23 -140 20 -255 117
-304 64 -34 176 -35 246 -4 50 22 129 88 129 107 0 6 -16 24 -36 40 l-36 28
-31 -30 c-45 -42 -89 -62 -137 -62 -78 0 -125 38 -131 105 -4 49 0 54 49 59
260 31 343 75 358 189 15 109 -72 188 -205 186 -37 0 -79 -6 -96 -12z m156
-106 c29 -23 31 -81 4 -111 -10 -11 -41 -27 -69 -34 -62 -17 -173 -28 -180
-18 -6 11 20 82 42 111 50 68 151 94 203 52z"/>
<path d="M20072 2634 c-24 -15 -57 -47 -74 -73 -27 -42 -29 -43 -24 -16 3 17
8 47 12 68 l6 37 -60 0 -60 0 -11 -47 c-17 -76 -111 -550 -111 -562 0 -7 22
-11 59 -11 l60 0 15 73 c9 39 27 126 41 191 27 133 58 195 114 233 42 28 111
31 134 6 29 -33 28 -67 -8 -250 -46 -237 -41 -253 88 -253 l64 0 7 38 c10 60
9 62 -29 62 -19 0 -35 2 -35 3 0 2 14 71 30 152 35 170 38 254 12 305 -35 71
-149 93 -230 44z"/>
<path d="M21003 2643 c-133 -47 -235 -233 -220 -400 15 -157 95 -229 252 -227
84 1 161 33 215 89 l35 36 -38 35 -38 35 -40 -36 c-49 -44 -76 -55 -136 -55
-61 0 -99 25 -119 76 -30 79 -28 80 153 103 150 19 236 79 249 174 15 109 -72
188 -205 186 -37 0 -85 -7 -108 -16z m168 -102 c28 -23 30 -82 3 -112 -21 -23
-95 -45 -181 -54 -62 -6 -63 -6 -63 18 0 54 47 123 105 155 33 18 110 14 136
-7z"/>
<path d="M22680 2639 c-159 -70 -254 -311 -190 -482 35 -94 106 -141 210 -141
89 1 156 31 219 100 74 81 95 144 96 279 0 95 -3 116 -22 152 -55 102 -196
143 -313 92z m156 -95 c64 -31 76 -82 49 -214 -29 -140 -85 -210 -167 -210
-68 0 -107 31 -122 99 -7 34 23 188 47 239 39 85 120 121 193 86z"/>
<path d="M10430 2645 c0 -2 -27 -139 -60 -304 -33 -165 -60 -303 -60 -306 0
-3 28 -5 62 -3 l62 3 37 188 c51 254 73 287 194 295 l64 4 10 50 c18 81 17 82
-34 75 -64 -9 -102 -32 -137 -82 -18 -25 -33 -44 -34 -42 -2 1 1 20 6 42 19
82 17 85 -50 85 -33 0 -60 -2 -60 -5z"/>
<path d="M16615 2638 c-2 -7 -31 -147 -63 -310 l-59 -298 62 0 62 0 12 58 c53
263 71 337 88 360 36 48 71 67 136 72 l61 5 12 55 c7 30 9 59 4 63 -4 5 -28 6
-53 2 -49 -8 -106 -48 -139 -99 l-20 -31 5 35 c3 19 9 50 13 68 l7 32 -62 0
c-40 0 -63 -4 -66 -12z"/>
<path d="M21475 2628 c-13 -55 -115 -574 -115 -585 0 -9 19 -13 60 -13 54 0
60 2 65 23 2 12 20 101 40 197 21 108 42 184 53 199 35 47 69 65 133 69 67 5
70 8 84 91 l7 44 -47 -7 c-63 -8 -102 -32 -144 -86 -32 -43 -33 -44 -28 -15 4
17 9 47 13 68 l6 37 -61 0 c-55 0 -61 -2 -66 -22z"/>
<path d="M23195 2628 c-12 -54 -115 -581 -115 -589 0 -5 27 -9 59 -9 48 0 61
3 65 18 2 9 19 89 36 177 17 88 36 174 42 190 26 68 83 105 166 105 l49 0 13
60 c7 33 10 63 7 66 -11 11 -92 -6 -125 -26 -17 -11 -46 -39 -63 -62 -25 -34
-30 -38 -26 -18 3 14 9 44 13 68 l7 42 -62 0 c-55 0 -61 -2 -66 -22z"/>
<path d="M10675 1530 c-31 -12 -43 -31 -51 -77 -5 -35 -3 -43 17 -57 64 -44
139 5 139 90 0 41 -55 65 -105 44z"/>
<path d="M11333 1526 c-24 -11 -33 -23 -38 -49 -11 -59 -3 -80 32 -91 62 -17
113 24 113 93 0 49 -52 71 -107 47z"/>
<path d="M12193 1530 c-25 -10 -38 -31 -47 -77 -13 -57 45 -90 107 -62 42 19
64 103 34 128 -20 16 -69 22 -94 11z"/>
<path d="M16379 1529 c-31 -11 -49 -46 -49 -94 0 -39 20 -55 70 -55 48 0 80
38 80 95 0 40 -3 47 -26 55 -30 12 -40 12 -75 -1z"/>
<path d="M11032 1513 c-55 -27 -72 -61 -106 -215 -6 -25 -11 -28 -51 -28 -50
0 -50 0 -60 -57 l-7 -43 41 0 c22 0 42 -3 44 -7 4 -6 -92 -507 -118 -620 -5
-20 -12 -23 -60 -23 -29 0 -56 -3 -58 -7 -3 -5 -8 -30 -12 -57 l-8 -49 80 5
c95 5 135 28 164 93 10 23 46 178 79 345 34 167 64 308 66 312 7 10 214 11
214 1 0 -5 -18 -103 -41 -219 -25 -127 -39 -222 -35 -237 3 -15 19 -33 36 -42
30 -15 135 -21 143 -7 3 4 8 26 12 50 l7 42 -36 0 c-28 0 -36 4 -36 18 1 9 22
125 49 257 l47 240 -168 3 c-191 3 -176 -6 -155 97 l13 60 61 3 61 3 6 37 c3
20 6 43 6 50 0 19 -137 16 -178 -5z"/>
<path d="M13136 1513 c-8 -28 -156 -776 -156 -791 0 -7 13 -27 29 -43 27 -26
36 -29 95 -29 35 0 67 3 69 8 3 4 8 26 12 50 l7 42 -41 0 c-23 0 -41 4 -41 8
0 4 34 176 75 382 41 206 75 378 75 382 0 4 -27 8 -59 8 -48 0 -61 -3 -65 -17z"/>
<path d="M15770 1527 c0 -1 -36 -182 -80 -400 -58 -292 -77 -404 -70 -421 15
-41 48 -56 121 -56 l66 0 7 38 c10 60 9 62 -28 62 -19 0 -37 3 -40 8 -2 4 29
171 70 372 40 201 73 373 74 383 0 14 -9 17 -60 17 -33 0 -60 -1 -60 -3z"/>
<path d="M15987 1143 c-42 -214 -77 -401 -77 -416 0 -16 10 -38 25 -52 21 -22
33 -25 94 -25 l69 0 7 33 c4 17 9 40 11 50 5 14 -1 17 -35 17 -33 0 -41 4 -41
18 0 15 129 671 145 740 5 21 3 22 -58 22 l-63 0 -77 -387z"/>
<path d="M9262 1408 c-22 -40 -68 -127 -102 -193 -35 -66 -80 -151 -100 -190
-102 -192 -190 -363 -190 -369 0 -3 30 -6 68 -6 l67 1 57 112 56 112 148 0
149 0 12 -100 c6 -55 12 -106 12 -112 1 -16 131 -18 131 -2 0 5 -22 188 -50
405 -27 217 -50 399 -50 404 0 6 -37 10 -84 10 l-85 0 -39 -72z m121 -215 c9
-93 17 -176 17 -185 0 -16 -12 -18 -110 -18 -60 0 -110 3 -110 8 -1 11 173
362 180 362 3 0 13 -75 23 -167z"/>
<path d="M13696 1449 c-14 -73 -11 -79 45 -79 48 0 51 -1 45 -22 -3 -13 -31
-150 -62 -306 l-57 -282 -53 0 c-57 0 -57 0 -70 -72 l-6 -38 170 0 c94 0 173
3 175 8 3 4 8 28 11 55 l7 47 -50 0 c-28 0 -51 4 -51 9 0 12 109 560 116 583
4 13 18 18 56 20 55 3 51 -1 72 81 l6 27 -174 0 -173 0 -7 -31z"/>
<path d="M10291 1383 c-17 -90 -30 -107 -79 -111 -38 -3 -42 -6 -52 -40 -16
-58 -14 -62 28 -62 21 0 41 -2 44 -5 3 -3 -12 -92 -33 -197 -48 -234 -48 -250
-10 -289 28 -27 34 -29 109 -29 l80 0 11 44 c6 25 11 47 11 50 0 3 -24 6 -54
6 -30 0 -57 3 -59 8 -5 8 69 387 78 402 3 6 33 10 66 10 32 0 59 3 59 8 1 4 5
26 9 50 l8 42 -58 0 c-68 0 -66 -4 -45 103 l13 67 -58 0 -58 0 -10 -57z"/>
<path d="M14826 1423 c-2 -10 -10 -44 -16 -76 -13 -63 -27 -77 -84 -77 -22 0
-36 -5 -36 -12 0 -7 -3 -30 -6 -50 l-7 -38 42 0 c32 0 41 -4 41 -17 0 -10 -16
-94 -35 -188 -48 -231 -47 -273 6 -300 29 -16 179 -22 179 -7 1 4 5 26 9 50
l8 42 -58 0 c-33 0 -59 3 -59 7 0 21 72 372 80 391 8 19 17 22 68 22 l59 0 7
38 c10 63 11 62 -54 62 -57 0 -60 1 -55 23 35 154 36 147 -29 147 -43 0 -56
-4 -60 -17z"/>
<path d="M16955 1346 c-13 -13 -27 -36 -31 -51 -6 -25 -9 -26 -48 -19 -193 33
-337 -66 -337 -231 0 -71 18 -116 56 -141 l25 -17 -48 -22 c-55 -26 -82 -60
-82 -108 0 -33 29 -77 53 -77 7 -1 -8 -11 -33 -24 -60 -32 -81 -56 -87 -104
-13 -95 55 -143 214 -150 160 -7 264 20 325 85 71 74 63 202 -15 248 -26 16
-58 20 -177 25 -80 3 -151 9 -157 13 -22 14 -15 55 13 74 19 12 49 17 114 18
76 1 95 4 146 31 102 51 152 158 124 259 -7 25 -19 50 -26 56 -8 6 -14 22 -14
35 0 23 4 24 59 24 58 0 59 1 65 31 13 67 12 69 -54 69 -51 0 -65 -4 -85 -24z
m-84 -175 c18 -15 22 -27 21 -69 -2 -98 -48 -147 -139 -146 -71 1 -93 21 -93
84 0 103 43 150 136 150 36 0 59 -6 75 -19z m-17 -532 c50 -23 37 -101 -21
-129 -39 -18 -201 -25 -248 -10 -60 20 -72 83 -25 130 18 18 34 20 145 20 71
0 135 -5 149 -11z"/>
<path d="M11723 1279 c-102 -19 -176 -79 -225 -185 -27 -58 -33 -83 -36 -162
-5 -112 8 -167 54 -221 46 -54 104 -74 192 -69 86 4 150 40 199 113 l34 49
-47 24 -48 24 -20 -28 c-53 -74 -105 -96 -171 -74 -55 18 -77 60 -72 135 3 33
13 94 22 135 14 61 25 82 54 112 65 65 156 63 200 -4 l23 -36 49 20 c54 23 56
26 34 67 -39 76 -143 119 -242 100z"/>
<path d="M12560 1279 c-122 -23 -217 -156 -242 -337 -18 -135 10 -231 82 -280
30 -20 44 -23 102 -20 57 3 73 8 105 34 21 17 48 48 60 70 l23 39 0 -43 c0
-67 31 -92 114 -92 36 0 67 3 69 8 3 4 8 26 12 50 l7 42 -36 0 c-29 0 -36 4
-36 19 0 20 85 451 96 484 5 15 -2 17 -60 17 l-65 0 -7 -45 c-6 -42 -24 -73
-24 -42 0 21 -38 65 -68 81 -39 19 -81 24 -132 15z m125 -113 c18 -8 41 -26
51 -41 15 -24 16 -35 6 -98 -20 -127 -39 -175 -91 -227 -97 -97 -211 -63 -211
63 0 50 27 172 49 222 35 79 118 113 196 81z"/>
<path d="M14364 1278 c-41 -9 -89 -46 -131 -103 -13 -17 -20 -23 -18 -15 3 8
9 36 14 63 l8 47 -62 0 -62 0 -57 -287 c-32 -159 -60 -298 -63 -311 -5 -22 -4
-23 58 -20 l63 3 32 160 c41 203 49 230 86 283 53 78 155 103 193 49 21 -30
19 -72 -15 -237 -38 -184 -38 -212 -4 -239 21 -16 41 -21 89 -21 l62 0 10 50
10 50 -33 0 c-43 0 -43 4 -8 170 33 155 37 253 10 296 -34 56 -102 79 -182 62z"/>
<path d="M15302 1278 c-64 -10 -100 -28 -152 -74 -132 -119 -166 -369 -67
-489 44 -54 96 -75 187 -75 88 0 153 25 219 85 45 41 44 47 -11 86 l-29 21
-27 -27 c-109 -109 -272 -72 -272 63 l0 42 54 0 c30 0 87 6 128 14 163 32 228
87 228 194 0 63 -30 110 -90 138 -56 27 -100 33 -168 22z m110 -109 c23 -12
33 -55 22 -87 -18 -50 -71 -71 -216 -85 -44 -4 -48 -3 -48 17 1 31 34 98 63
124 50 46 125 59 179 31z"/>
<path d="M17369 1279 c-106 -16 -182 -77 -236 -187 -37 -74 -38 -79 -38 -186
0 -120 14 -164 67 -213 56 -53 185 -70 281 -37 42 14 148 95 147 112 -1 4 -17
19 -37 34 l-36 28 -37 -30 c-44 -35 -99 -60 -132 -60 -87 0 -141 50 -136 125
l3 40 90 7 c214 18 315 83 315 204 0 113 -111 185 -251 163z m80 -100 c77 -27
63 -130 -22 -158 -45 -15 -187 -29 -193 -19 -10 15 20 89 50 124 17 19 49 41
71 49 49 17 54 18 94 4z"/>
<path d="M18603 1279 c-160 -30 -263 -176 -263 -373 0 -98 14 -145 57 -195 45
-54 103 -74 191 -69 86 4 150 40 199 113 l34 49 -47 24 -48 24 -20 -28 c-53
-74 -105 -96 -171 -74 -55 18 -77 60 -72 135 3 33 13 94 22 135 14 61 25 82
54 112 65 65 156 63 200 -4 l23 -36 49 20 c54 23 56 26 34 67 -39 76 -143 119
-242 100z"/>
<path d="M19179 1279 c-105 -16 -182 -76 -236 -185 -32 -66 -37 -87 -41 -165
-5 -109 8 -164 54 -218 49 -56 103 -75 207 -69 93 5 144 27 205 91 l33 34 -37
32 -36 32 -27 -24 c-88 -82 -224 -86 -263 -7 -10 19 -18 52 -18 73 l0 37 59 0
c67 0 182 22 238 45 75 32 113 86 113 163 0 112 -109 182 -251 161z m73 -99
c42 -12 58 -34 58 -78 0 -35 -43 -77 -88 -87 -40 -8 -176 -23 -181 -19 -2 2 2
24 9 48 16 59 64 113 115 131 49 17 42 17 87 5z"/>
<path d="M17986 1257 c-21 -13 -52 -44 -68 -68 l-30 -44 7 49 c3 27 9 55 12
62 4 11 -9 14 -59 14 l-65 0 -57 -292 c-32 -161 -60 -301 -62 -310 -5 -16 2
-18 58 -18 l64 0 33 173 c36 184 47 221 88 279 50 73 151 97 188 45 22 -31 19
-75 -15 -242 -38 -185 -38 -207 -4 -234 21 -16 41 -21 90 -21 l62 0 7 33 c4
17 9 40 11 50 4 14 -1 17 -30 17 -44 0 -44 -1 -9 161 31 147 35 260 11 305
-35 65 -157 86 -232 41z"/>
<path d="M9726 983 c-32 -159 -60 -298 -63 -311 -5 -22 -4 -23 58 -20 l63 3
39 190 c21 104 46 203 55 220 27 46 76 73 143 81 33 4 61 9 63 13 2 3 7 30 11
59 l7 52 -36 0 c-63 0 -129 -44 -172 -116 -9 -15 -10 -8 -3 31 5 28 12 58 15
68 5 15 -2 17 -59 17 l-64 0 -57 -287z"/>
<path d="M10591 1223 c-37 -162 -91 -451 -91 -488 0 -62 31 -85 116 -85 l62 0
7 33 c4 17 9 40 11 50 4 14 -1 17 -30 17 -19 0 -37 3 -39 8 -3 4 17 115 44
247 26 132 48 246 49 253 0 8 -18 12 -59 12 l-59 0 -11 -47z"/>
<path d="M12120 1263 c0 -5 -23 -118 -50 -252 -28 -135 -50 -260 -50 -278 0
-23 8 -42 25 -58 21 -21 33 -25 89 -25 70 0 67 -2 81 68 6 31 6 32 -29 32 -31
0 -36 3 -36 23 0 12 20 120 45 241 25 120 45 227 45 237 0 16 -8 19 -60 19
-33 0 -60 -3 -60 -7z"/>
<path d="M16252 997 c-46 -231 -52 -276 -42 -298 16 -36 49 -49 119 -49 l58 0
10 50 10 50 -38 0 c-22 0 -39 4 -39 8 0 5 23 120 50 257 28 137 50 250 50 252
0 2 -28 3 -62 3 l-63 0 -53 -273z"/>
</g>
</svg>
