<?xml version="1.0" standalone="no"?>
<!DOCTYPE svg PUBLIC "-//W3C//DTD SVG 1.0//EN" "http://www.w3.org/TR/2001/REC-SVG-20010904/DTD/svg10.dtd">

<svg xmlns="http://www.w3.org/2000/svg" width="236" height="228" viewBox="0 0 236 228" version="1.1"><path d="M 119.415 70.917 C 119.187 71.146, 119 86.558, 119 105.167 L 119 139 124.500 139 C 129.333 139, 130 138.758, 130 137 C 130 135.900, 130.113 135, 130.250 135.001 C 130.387 135.001, 132.867 135.901, 135.761 137.001 C 145.842 140.832, 155.329 139.207, 162.966 132.341 C 174.819 121.684, 174.935 104.402, 163.226 93.823 C 155.609 86.942, 143.657 85.019, 135.096 89.299 C 133.224 90.234, 131.312 91, 130.846 91 C 130.381 91, 130 86.500, 130 81 C 130 75.500, 129.662 70.969, 129.250 70.932 C 125.485 70.591, 119.748 70.582, 119.415 70.917 M 26.718 88.437 C 15.442 92.460, 8.974 101.766, 9.022 113.899 C 9.078 128.066, 20.703 139, 35.710 139 C 44.746 139, 53.037 134.206, 57.668 126.304 C 60.791 120.975, 61.873 111.205, 59.984 105.395 C 58.647 101.282, 54.036 94.057, 52.725 94.021 C 52.299 94.010, 47.693 97.200, 42.490 101.111 L 33.030 108.222 35.765 112.089 C 37.269 114.217, 38.864 115.967, 39.310 115.979 C 39.755 115.990, 42.173 114.432, 44.682 112.517 C 47.191 110.601, 49.639 109.277, 50.122 109.576 C 51.696 110.548, 51.049 115.480, 48.750 120.038 C 46.328 124.841, 39.947 129, 35 129 C 30.053 129, 23.672 124.841, 21.250 120.038 C 18.463 114.512, 18.428 111.813, 21.071 106.353 C 23.863 100.586, 28.642 97.725, 35.382 97.785 C 39.910 97.826, 41.129 97.381, 44.552 94.441 C 47.836 91.621, 48.248 90.879, 47 90.029 C 42.488 86.956, 32.965 86.208, 26.718 88.437 M 82.365 88.029 C 66.959 92.788, 59.402 110.380, 66.578 124.780 C 69.510 130.664, 73.540 134.445, 79.882 137.264 C 85.698 139.848, 95.738 139.381, 101.750 136.247 L 106 134.032 106 136.516 C 106 138.860, 106.309 139, 111.500 139 L 117 139 117 113.500 L 117 88 111.500 88 C 106.648 88, 106 88.238, 106 90.020 C 106 92.026, 105.970 92.026, 101.779 89.887 C 97.016 87.457, 87.244 86.522, 82.365 88.029 M 192.994 87.874 C 182.201 91.415, 174 102.264, 174 113 C 174 122.484, 181.163 133.103, 190.175 136.980 C 196.748 139.808, 206.868 139.456, 212.373 136.208 L 215.879 134.139 216.190 136.319 C 216.457 138.197, 217.229 138.542, 221.750 138.802 L 227 139.105 227 113.552 L 227 88 221.906 88 C 217.733 88, 216.722 88.345, 216.313 89.911 C 215.825 91.776, 215.729 91.772, 212.340 89.773 C 208.538 87.530, 197.381 86.435, 192.994 87.874 M 85.791 97.966 C 81.127 99.411, 77.289 102.821, 75.614 107.007 C 73.483 112.333, 73.578 115.253, 76.040 120.079 C 80.947 129.696, 93.270 131.576, 100.965 123.881 C 107.322 117.524, 106.851 107.809, 99.881 101.512 C 97.743 99.580, 95.208 97.994, 94.247 97.986 C 93.286 97.979, 91.600 97.782, 90.500 97.550 C 89.400 97.317, 87.281 97.504, 85.791 97.966 M 139 99.193 C 134.160 101.674, 130 108.056, 130 113 C 130 114.417, 131.012 117.584, 132.250 120.038 C 139.564 134.543, 161.058 129.459, 161.304 113.166 C 161.483 101.308, 149.509 93.807, 139 99.193 M 196.500 97.718 C 193.380 98.476, 188.151 102.807, 186.499 106.002 C 184.579 109.716, 184.579 116.284, 186.499 119.998 C 188.610 124.080, 193.871 127.801, 198.534 128.510 C 203.652 129.288, 210.541 125.906, 213.831 121 C 215.755 118.131, 216.102 116.546, 215.753 112.209 C 215.235 105.753, 212.870 102.260, 206.980 99.250 C 202.672 97.049, 200.538 96.737, 196.500 97.718" stroke="none" fill="#ebf8ed" fill-rule="evenodd"/><path d="M 0 114.004 L 0 228.008 118.250 227.754 L 236.500 227.500 236.754 113.750 L 237.009 0 118.504 0 L 0 0 0 114.004 M 0.483 114.500 C 0.483 177.200, 0.603 202.997, 0.750 171.827 C 0.896 140.657, 0.896 89.357, 0.750 57.827 C 0.603 26.297, 0.483 51.800, 0.483 114.500 M 119.415 70.917 C 119.187 71.146, 119 86.558, 119 105.167 L 119 139 124.500 139 C 129.333 139, 130 138.758, 130 137 C 130 135.900, 130.113 135, 130.250 135.001 C 130.387 135.001, 132.867 135.901, 135.761 137.001 C 145.842 140.832, 155.329 139.207, 162.966 132.341 C 174.819 121.684, 174.935 104.402, 163.226 93.823 C 155.609 86.942, 143.657 85.019, 135.096 89.299 C 133.224 90.234, 131.312 91, 130.846 91 C 130.381 91, 130 86.500, 130 81 C 130 75.500, 129.662 70.969, 129.250 70.932 C 125.485 70.591, 119.748 70.582, 119.415 70.917 M 26.718 88.437 C 15.442 92.460, 8.974 101.766, 9.022 113.899 C 9.078 128.066, 20.703 139, 35.710 139 C 44.746 139, 53.037 134.206, 57.668 126.304 C 60.791 120.975, 61.873 111.205, 59.984 105.395 C 58.647 101.282, 54.036 94.057, 52.725 94.021 C 52.299 94.010, 47.693 97.200, 42.490 101.111 L 33.030 108.222 35.765 112.089 C 37.269 114.217, 38.864 115.967, 39.310 115.979 C 39.755 115.990, 42.173 114.432, 44.682 112.517 C 47.191 110.601, 49.639 109.277, 50.122 109.576 C 51.696 110.548, 51.049 115.480, 48.750 120.038 C 46.328 124.841, 39.947 129, 35 129 C 30.053 129, 23.672 124.841, 21.250 120.038 C 18.463 114.512, 18.428 111.813, 21.071 106.353 C 23.863 100.586, 28.642 97.725, 35.382 97.785 C 39.910 97.826, 41.129 97.381, 44.552 94.441 C 47.836 91.621, 48.248 90.879, 47 90.029 C 42.488 86.956, 32.965 86.208, 26.718 88.437 M 82.365 88.029 C 66.959 92.788, 59.402 110.380, 66.578 124.780 C 69.510 130.664, 73.540 134.445, 79.882 137.264 C 85.698 139.848, 95.738 139.381, 101.750 136.247 L 106 134.032 106 136.516 C 106 138.860, 106.309 139, 111.500 139 L 117 139 117 113.500 L 117 88 111.500 88 C 106.648 88, 106 88.238, 106 90.020 C 106 92.026, 105.970 92.026, 101.779 89.887 C 97.016 87.457, 87.244 86.522, 82.365 88.029 M 192.994 87.874 C 182.201 91.415, 174 102.264, 174 113 C 174 122.484, 181.163 133.103, 190.175 136.980 C 196.748 139.808, 206.868 139.456, 212.373 136.208 L 215.879 134.139 216.190 136.319 C 216.457 138.197, 217.229 138.542, 221.750 138.802 L 227 139.105 227 113.552 L 227 88 221.906 88 C 217.733 88, 216.722 88.345, 216.313 89.911 C 215.825 91.776, 215.729 91.772, 212.340 89.773 C 208.538 87.530, 197.381 86.435, 192.994 87.874 M 85.791 97.966 C 81.127 99.411, 77.289 102.821, 75.614 107.007 C 73.483 112.333, 73.578 115.253, 76.040 120.079 C 80.947 129.696, 93.270 131.576, 100.965 123.881 C 107.322 117.524, 106.851 107.809, 99.881 101.512 C 97.743 99.580, 95.208 97.994, 94.247 97.986 C 93.286 97.979, 91.600 97.782, 90.500 97.550 C 89.400 97.317, 87.281 97.504, 85.791 97.966 M 139 99.193 C 134.160 101.674, 130 108.056, 130 113 C 130 114.417, 131.012 117.584, 132.250 120.038 C 139.564 134.543, 161.058 129.459, 161.304 113.166 C 161.483 101.308, 149.509 93.807, 139 99.193 M 196.500 97.718 C 193.380 98.476, 188.151 102.807, 186.499 106.002 C 184.579 109.716, 184.579 116.284, 186.499 119.998 C 188.610 124.080, 193.871 127.801, 198.534 128.510 C 203.652 129.288, 210.541 125.906, 213.831 121 C 215.755 118.131, 216.102 116.546, 215.753 112.209 C 215.235 105.753, 212.870 102.260, 206.980 99.250 C 202.672 97.049, 200.538 96.737, 196.500 97.718" stroke="none" fill="#05ab25" fill-rule="evenodd"/></svg>