<?xml version="1.0" encoding="UTF-8"?>
<!DOCTYPE svg PUBLIC "-//W3C//DTD SVG 1.1//EN" "http://www.w3.org/Graphics/SVG/1.1/DTD/svg11.dtd">
<svg xmlns="http://www.w3.org/2000/svg" version="1.1" width="425px" height="385px" style="shape-rendering:geometricPrecision; text-rendering:geometricPrecision; image-rendering:optimizeQuality; fill-rule:evenodd; clip-rule:evenodd" xmlns:xlink="http://www.w3.org/1999/xlink">
<g><path style="opacity:1" fill="#fefefe" d="M -0.5,-0.5 C 141.167,-0.5 282.833,-0.5 424.5,-0.5C 424.5,127.833 424.5,256.167 424.5,384.5C 282.833,384.5 141.167,384.5 -0.5,384.5C -0.5,256.167 -0.5,127.833 -0.5,-0.5 Z"/></g>
<g><path style="opacity:1" fill="#fb1a12" d="M 191.5,118.5 C 201.852,117.485 207.852,121.985 209.5,132C 207.04,144.897 199.707,148.897 187.5,144C 184.5,141 181.5,138 178.5,135C 169.882,134.613 167.049,138.447 170,146.5C 172.841,148.504 176.007,149.004 179.5,148C 181.552,147.07 183.052,145.57 184,143.5C 185.088,149.926 182.254,153.259 175.5,153.5C 166.766,151.717 163.266,146.384 165,137.5C 168.915,130.961 174.415,129.128 181.5,132C 184.939,136.114 188.939,139.447 193.5,142C 201.816,142.016 205.649,137.849 205,129.5C 197.957,119.9 191.291,120.233 185,130.5C 184.333,128.167 184.333,125.833 185,123.5C 186.965,121.45 189.132,119.783 191.5,118.5 Z"/></g>
<g><path style="opacity:1" fill="#fcd3d4" d="M 121.5,156.5 C 111.319,156.173 101.319,156.506 91.5,157.5C 90.9569,157.44 90.6236,157.107 90.5,156.5C 100.993,155.177 111.326,155.177 121.5,156.5 Z"/></g>
<g><path style="opacity:1" fill="#fc130b" d="M 266.5,156.5 C 266.795,158.735 266.461,160.735 265.5,162.5C 260.288,159.61 255.288,159.943 250.5,163.5C 247.436,167.947 248.102,171.78 252.5,175C 258.408,177.535 263.908,180.702 269,184.5C 274.134,196.116 270.634,203.616 258.5,207C 252.796,207.687 247.13,207.521 241.5,206.5C 241.065,203.404 240.565,200.404 240,197.5C 245.823,203.124 252.323,203.957 259.5,200C 264.197,196.623 264.53,192.957 260.5,189C 254.418,185.877 248.585,182.377 243,178.5C 237.108,168.175 239.608,160.675 250.5,156C 255.871,155.324 261.204,155.491 266.5,156.5 Z"/></g>
<g><path style="opacity:1" fill="#fd0503" d="M 91.5,157.5 C 101.319,156.506 111.319,156.173 121.5,156.5C 121.664,159.187 121.497,161.854 121,164.5C 120.167,163.667 119.333,162.833 118.5,162C 112.843,161.501 107.176,161.334 101.5,161.5C 101.5,166.5 101.5,171.5 101.5,176.5C 106.833,176.5 112.167,176.5 117.5,176.5C 117.663,178.857 117.497,181.19 117,183.5C 116.617,182.944 116.117,182.611 115.5,182.5C 111.03,181.514 106.363,181.181 101.5,181.5C 101.175,189.019 101.508,196.352 102.5,203.5C 102.328,204.492 102.662,205.158 103.5,205.5C 99.7016,206.483 95.7016,206.817 91.5,206.5C 91.7828,205.711 92.2828,205.044 93,204.5C 93.6667,189.5 93.6667,174.5 93,159.5C 92.7216,158.584 92.2216,157.918 91.5,157.5 Z"/></g>
<g><path style="opacity:1" fill="#fd140b" d="M 123.5,157.5 C 127.981,156.352 132.648,156.185 137.5,157C 136.667,157.833 135.833,158.667 135,159.5C 134.333,171.167 134.333,182.833 135,194.5C 137.977,202.772 143.143,204.606 150.5,200C 151.717,198.352 152.55,196.519 153,194.5C 153.667,182.5 153.667,170.5 153,158.5C 152.5,158 152,157.5 151.5,157C 155.833,156.333 160.167,156.333 164.5,157C 164,157.5 163.5,158 163,158.5C 162.667,170.5 162.333,182.5 162,194.5C 160.61,200.891 156.776,205.058 150.5,207C 142.264,208.995 135.098,207.162 129,201.5C 127.725,199.283 126.725,196.949 126,194.5C 125.667,182.5 125.333,170.5 125,158.5C 124.617,157.944 124.117,157.611 123.5,157.5 Z"/></g>
<g><path style="opacity:1" fill="#fd1b10" d="M 169.5,157.5 C 173.981,156.352 178.648,156.185 183.5,157C 182.667,157.833 181.833,158.667 181,159.5C 180.667,177.833 180.333,196.167 180,214.5C 177.103,221.289 172.27,224.956 165.5,225.5C 168.393,222.381 170.226,218.714 171,214.5C 171.667,195.833 171.667,177.167 171,158.5C 170.617,157.944 170.117,157.611 169.5,157.5 Z"/></g>
<g><path style="opacity:1" fill="#fd0301" d="M 200.5,205.5 C 196.5,206.833 192.5,206.833 188.5,205.5C 189.222,205.082 189.722,204.416 190,203.5C 190.667,188.833 190.667,174.167 190,159.5C 189.167,158.667 188.333,157.833 187.5,157C 192.167,156.333 196.833,156.333 201.5,157C 200.667,157.833 199.833,158.667 199,159.5C 198.333,174.167 198.333,188.833 199,203.5C 199.717,204.044 200.217,204.711 200.5,205.5 Z"/></g>
<g><path style="opacity:1" fill="#fd0e09" d="M 205.5,156.5 C 217.171,156.333 228.838,156.5 240.5,157C 239.286,159.351 238.452,161.851 238,164.5C 237.167,163.667 236.333,162.833 235.5,162C 232.518,161.502 229.518,161.335 226.5,161.5C 226.333,175.837 226.5,190.171 227,204.5C 227.5,205 228,205.5 228.5,206C 224.167,206.667 219.833,206.667 215.5,206C 216,205.5 216.5,205 217,204.5C 217.5,190.171 217.667,175.837 217.5,161.5C 214.15,161.335 210.817,161.502 207.5,162C 206.069,162.465 204.903,163.299 204,164.5C 204.041,161.794 204.541,159.128 205.5,156.5 Z"/></g>
<g><path style="opacity:1" fill="#fd1810" d="M 272.5,157.5 C 276.981,156.352 281.648,156.185 286.5,157C 286,157.5 285.5,158 285,158.5C 284.333,171.167 284.333,183.833 285,196.5C 290.667,204.5 296.333,204.5 302,196.5C 302.667,183.833 302.667,171.167 302,158.5C 301.5,158 301,157.5 300.5,157C 304.833,156.333 309.167,156.333 313.5,157C 313,157.5 312.5,158 312,158.5C 311.667,170.833 311.333,183.167 311,195.5C 306.612,205.921 298.779,209.754 287.5,207C 282.09,205.257 278.256,201.757 276,196.5C 275.667,184.167 275.333,171.833 275,159.5C 274.292,158.619 273.458,157.953 272.5,157.5 Z"/></g>
<g><path style="opacity:1" fill="#fd6561" d="M 266.5,156.5 C 267.634,158.966 267.801,161.633 267,164.5C 266.283,163.956 265.783,163.289 265.5,162.5C 266.461,160.735 266.795,158.735 266.5,156.5 Z"/></g>
<g><path style="opacity:1" fill="#feaaa9" d="M 115.5,182.5 C 111.167,182.5 106.833,182.5 102.5,182.5C 102.5,189.5 102.5,196.5 102.5,203.5C 101.508,196.352 101.175,189.019 101.5,181.5C 106.363,181.181 111.03,181.514 115.5,182.5 Z"/></g>
<g><path style="opacity:1" fill="#fc9592" d="M 103.5,205.5 C 104.043,205.56 104.376,205.893 104.5,206.5C 102.167,206.833 99.8333,207.167 97.5,207.5C 94.7073,207.572 92.7073,207.239 91.5,206.5C 95.7016,206.817 99.7016,206.483 103.5,205.5 Z"/></g>
<g><path style="opacity:1" fill="#fb8a8a" d="M 188.5,205.5 C 192.5,206.833 196.5,206.833 200.5,205.5C 201.289,205.783 201.956,206.283 202.5,207C 197.167,207.667 191.833,207.667 186.5,207C 187.044,206.283 187.711,205.783 188.5,205.5 Z"/></g>
</svg>
