<?xml version="1.0" standalone="no"?>
<!DOCTYPE svg PUBLIC "-//W3C//DTD SVG 20010904//EN"
 "http://www.w3.org/TR/2001/REC-SVG-20010904/DTD/svg10.dtd">
<svg version="1.0" xmlns="http://www.w3.org/2000/svg"
 width="1300px" height="2208px" viewBox="0 0 247.000000 204.000000"
 preserveAspectRatio="xMidYMid meet">

<g transform="translate(0.000000,204.000000) scale(0.100000,-0.100000)"
fill="#000000" stroke="none">
<path d="M2305 2033 c-63 -16 -101 -76 -92 -145 17 -124 195 -147 244 -31 28
69 -1 139 -70 168 -38 15 -48 16 -82 8z m113 -42 c55 -56 46 -140 -20 -181
-91 -57 -209 41 -168 141 20 46 55 69 111 69 39 0 53 -5 77 -29z"/>
<path d="M508 1758 l-3 -223 -21 40 c-11 22 -40 54 -63 70 -38 26 -53 30 -124
33 -74 3 -87 1 -137 -25 -64 -34 -111 -95 -137 -182 -27 -87 -24 -285 4 -376
39 -125 120 -193 240 -203 100 -8 173 31 230 124 10 16 12 9 12 -43 l1 -63
105 0 105 0 0 535 0 535 -105 0 -105 0 -2 -222z m-62 -264 c55 -26 64 -55 64
-206 0 -86 -5 -142 -13 -157 -18 -36 -57 -60 -108 -67 -60 -8 -111 15 -141 65
-21 32 -23 49 -23 156 0 135 12 171 68 205 39 24 107 26 153 4z"/>
<path d="M1077 1968 c-52 -14 -112 -73 -126 -123 -6 -22 -11 -70 -11 -107 l0
-68 -55 0 -55 0 0 -85 0 -85 55 0 55 0 0 -295 0 -295 105 0 105 0 0 295 0 295
80 0 80 0 0 85 0 85 -80 0 -80 0 0 70 0 69 78 3 77 3 3 83 3 82 -98 -1 c-54
-1 -115 -6 -136 -11z"/>
<path d="M1400 1445 l0 -535 110 0 110 0 0 108 1 107 47 53 47 53 85 -161 85
-160 127 0 127 0 -139 231 c-77 128 -136 237 -133 243 4 6 54 65 112 131 57
66 111 128 119 138 14 16 8 17 -104 17 l-119 0 -80 -97 c-44 -53 -100 -126
-125 -162 l-45 -66 -3 318 -2 317 -110 0 -110 0 0 -535z"/>
<path d="M2230 1290 l0 -380 110 0 110 0 -2 378 -3 377 -107 3 -108 3 0 -381z"/>
<path d="M1614 790 c-63 -13 -137 -54 -174 -96 l-33 -38 63 -57 64 -57 27 29
c50 54 150 76 209 46 32 -16 60 -71 60 -118 l0 -36 -129 -5 c-121 -4 -134 -7
-195 -37 -88 -43 -126 -102 -126 -195 0 -137 89 -221 235 -221 105 0 187 47
217 124 10 26 10 26 31 -18 34 -69 64 -85 163 -90 l84 -3 0 86 0 86 -34 0 -35
0 -3 213 c-3 197 -5 215 -25 254 -28 52 -83 98 -142 118 -55 19 -200 28 -257
15z m249 -27 c59 -18 111 -62 140 -117 20 -38 22 -58 25 -258 l4 -218 34 0 34
0 0 -70 0 -70 -60 0 c-98 0 -159 38 -175 110 -9 40 -31 38 -44 -3 -25 -74
-102 -117 -211 -117 -146 0 -233 94 -216 234 15 132 128 196 349 196 l97 0 0
53 c0 61 -27 112 -66 127 -66 26 -170 5 -218 -43 l-25 -25 -53 48 -53 48 34
36 c84 87 256 116 404 69z"/>
<path d="M1635 336 c-61 -26 -75 -118 -26 -167 25 -25 37 -29 83 -29 62 0 117
24 135 60 7 14 13 53 13 88 l0 62 -87 0 c-50 -1 -101 -6 -118 -14z m195 -54
c0 -67 -17 -98 -66 -118 -102 -43 -189 14 -169 108 11 48 55 68 153 68 l82 0
0 -58z"/>
<path d="M2230 400 l0 -380 110 0 110 0 0 380 0 380 -110 0 -110 0 0 -380z
m200 0 l0 -371 -92 3 -93 3 -3 355 c-1 195 0 361 3 367 3 9 31 13 95 13 l90 0
0 -370z"/>
</g>
</svg>
