<?xml version="1.0" encoding="UTF-8"?>
<!DOCTYPE svg PUBLIC "-//W3C//DTD SVG 1.1//EN" "http://www.w3.org/Graphics/SVG/1.1/DTD/svg11.dtd">
<svg xmlns="http://www.w3.org/2000/svg" version="1.1" width="1300px" height="2208px" style="shape-rendering:geometricPrecision; text-rendering:geometricPrecision; image-rendering:optimizeQuality; fill-rule:evenodd; clip-rule:evenodd" xmlns:xlink="http://www.w3.org/1999/xlink">
<g><path style="opacity:1" fill="#121987" d="M 603.5,-0.5 C 627.5,-0.5 651.5,-0.5 675.5,-0.5C 868.57,14.4351 1024.74,97.4351 1144,248.5C 1149.05,255.38 1153.89,262.38 1158.5,269.5C 1158.43,271.027 1159.09,272.027 1160.5,272.5C 1240.93,389.335 1278.43,519.001 1273,661.5C 1261.28,846.432 1186.44,999.932 1048.5,1122C 1041.61,1127.74 1034.61,1133.24 1027.5,1138.5C 1026.66,1138.16 1026.33,1137.49 1026.5,1136.5C 1049.58,1074.9 1046.58,1014.57 1017.5,955.5C 1017.71,953.821 1017.05,952.821 1015.5,952.5C 1003.56,929.978 988.226,909.978 969.5,892.5C 969.027,891.094 968.027,890.427 966.5,890.5C 960.809,885.803 955.142,881.137 949.5,876.5C 949.027,875.094 948.027,874.427 946.5,874.5C 946.027,873.094 945.027,872.427 943.5,872.5C 942.29,872.068 941.29,871.401 940.5,870.5C 940.027,869.094 939.027,868.427 937.5,868.5C 876.977,833.073 813.31,826.239 746.5,848C 671.445,877.054 623.945,930.554 604,1008.5C 590.961,1071.8 602.461,1130.13 638.5,1183.5C 638.427,1185.03 639.094,1186.03 640.5,1186.5C 643.848,1189.85 646.848,1193.52 649.5,1197.5C 649.427,1199.03 650.094,1200.03 651.5,1200.5C 654.5,1202.83 657.167,1205.5 659.5,1208.5C 659.427,1210.03 660.094,1211.03 661.5,1211.5C 676.893,1226.36 693.893,1239.03 712.5,1249.5C 712.821,1251.05 713.821,1251.71 715.5,1251.5C 722.881,1254.9 730.215,1258.4 737.5,1262C 656.73,1270.91 581.063,1255.25 510.5,1215C 502.26,1209.72 494.26,1204.22 486.5,1198.5C 486.027,1197.09 485.027,1196.43 483.5,1196.5C 481.246,1195.88 479.579,1194.54 478.5,1192.5C 478.027,1191.09 477.027,1190.43 475.5,1190.5C 472.891,1189.56 470.891,1187.89 469.5,1185.5C 469.027,1184.09 468.027,1183.43 466.5,1183.5C 434.298,1156.98 407.965,1125.64 387.5,1089.5C 387.715,1087.82 387.048,1086.82 385.5,1086.5C 361.44,1043.27 347.44,996.94 343.5,947.5C 343.66,942.434 343.16,937.434 342,932.5C 341.5,1121.5 341.333,1310.5 341.5,1499.5C 341.691,1532.58 340.191,1565.58 337,1598.5C 325.673,1658.17 290.839,1696.67 232.5,1714C 194.997,1723.22 157.331,1723.89 119.5,1716C 99.7606,1711.29 81.7606,1703.12 65.5,1691.5C 65.0269,1690.09 64.0269,1689.43 62.5,1689.5C 61.8333,1689.5 61.5,1689.17 61.5,1688.5C 61.0269,1687.09 60.0269,1686.43 58.5,1686.5C 57.5,1686.17 56.8333,1685.5 56.5,1684.5C 56.0269,1683.09 55.0269,1682.43 53.5,1682.5C 27.8414,1659.53 12.3414,1630.86 7,1596.5C 4.19711,1564.9 2.53044,1533.23 2,1501.5C 1.83333,1364.5 1.66667,1227.5 1.5,1090.5C 1.35685,943.826 1.85685,797.16 3,650.5C 1.72729,536.26 28.0606,428.926 82,328.5C 88.2744,317.603 94.7744,306.936 101.5,296.5C 102.906,296.027 103.573,295.027 103.5,293.5C 107.425,285.976 112.092,278.976 117.5,272.5C 118.906,272.027 119.573,271.027 119.5,269.5C 120.026,267.77 121.026,266.436 122.5,265.5C 123.906,265.027 124.573,264.027 124.5,262.5C 128.117,256.255 132.451,250.588 137.5,245.5C 138.906,245.027 139.573,244.027 139.5,242.5C 143.776,235.891 148.776,229.891 154.5,224.5C 155.906,224.027 156.573,223.027 156.5,221.5C 160.823,215.845 165.49,210.512 170.5,205.5C 172.5,205.5 173.5,204.5 173.5,202.5C 183.5,191.833 193.833,181.5 204.5,171.5C 207.764,169.906 210.431,167.573 212.5,164.5C 213.5,162.833 214.833,161.5 216.5,160.5C 218.749,159.92 220.415,158.587 221.5,156.5C 223.88,153.119 226.88,150.453 230.5,148.5C 232.749,147.92 234.415,146.587 235.5,144.5C 239.639,140.532 243.973,136.699 248.5,133C 257.02,126.578 265.687,120.412 274.5,114.5C 276.027,114.573 277.027,113.906 277.5,112.5C 375.42,44.6345 484.087,6.96782 603.5,-0.5 Z M 807.5,384.5 C 807.973,385.906 808.973,386.573 810.5,386.5C 814.104,389.975 818.104,392.975 822.5,395.5C 822.973,396.906 823.973,397.573 825.5,397.5C 826.167,398.833 827.167,399.833 828.5,400.5C 828.973,401.906 829.973,402.573 831.5,402.5C 832.5,404.167 833.833,405.5 835.5,406.5C 835.973,407.906 836.973,408.573 838.5,408.5C 908.793,475.158 941.626,557.158 937,654.5C 882.46,603.981 818.294,572.148 744.5,559C 663.904,548.386 588.237,563.053 517.5,603C 508.383,608.305 499.716,614.138 491.5,620.5C 489.973,620.427 488.973,621.094 488.5,622.5C 481.582,626.788 475.249,631.788 469.5,637.5C 467.251,638.08 465.585,639.413 464.5,641.5C 463.167,642.167 462.167,643.167 461.5,644.5C 458.911,645.419 456.911,647.086 455.5,649.5C 440.016,662.977 426.349,677.977 414.5,694.5C 413.094,694.973 412.427,695.973 412.5,697.5C 411.833,697.5 411.5,697.833 411.5,698.5C 410.094,698.973 409.427,699.973 409.5,701.5C 408.026,702.436 407.026,703.77 406.5,705.5C 405.094,705.973 404.427,706.973 404.5,708.5C 401.759,710.975 399.759,713.975 398.5,717.5C 397.094,717.973 396.427,718.973 396.5,720.5C 365.698,768.572 348.031,821.239 343.5,878.5C 342.501,797.668 342.167,716.668 342.5,635.5C 344.362,593.025 352.195,551.692 366,511.5C 381.052,474.445 403.219,442.278 432.5,415C 510.502,345.16 601.169,320.16 704.5,340C 741.654,348.543 775.987,363.376 807.5,384.5 Z"/></g>
<g><path style="opacity:1" fill="#8381bf" d="M 277.5,112.5 C 277.027,113.906 276.027,114.573 274.5,114.5C 274.973,113.094 275.973,112.427 277.5,112.5 Z"/></g>
<g><path style="opacity:1" fill="#6a63b0" d="M 235.5,144.5 C 234.415,146.587 232.749,147.92 230.5,148.5C 231.585,146.413 233.251,145.08 235.5,144.5 Z"/></g>
<g><path style="opacity:1" fill="#6f67b2" d="M 221.5,156.5 C 220.415,158.587 218.749,159.92 216.5,160.5C 217.585,158.413 219.251,157.08 221.5,156.5 Z"/></g>
<g><path style="opacity:1" fill="#7670b7" d="M 212.5,164.5 C 210.431,167.573 207.764,169.906 204.5,171.5C 206.569,168.427 209.236,166.094 212.5,164.5 Z"/></g>
<g><path style="opacity:1" fill="#847ebe" d="M 173.5,202.5 C 173.5,204.5 172.5,205.5 170.5,205.5C 171.167,204.167 172.167,203.167 173.5,202.5 Z"/></g>
<g><path style="opacity:1" fill="#928ec6" d="M 156.5,221.5 C 156.573,223.027 155.906,224.027 154.5,224.5C 154.427,222.973 155.094,221.973 156.5,221.5 Z"/></g>
<g><path style="opacity:1" fill="#827cbd" d="M 139.5,242.5 C 139.573,244.027 138.906,245.027 137.5,245.5C 137.427,243.973 138.094,242.973 139.5,242.5 Z"/></g>
<g><path style="opacity:1" fill="#817cbd" d="M 124.5,262.5 C 124.573,264.027 123.906,265.027 122.5,265.5C 122.427,263.973 123.094,262.973 124.5,262.5 Z"/></g>
<g><path style="opacity:1" fill="#908ec6" d="M 119.5,269.5 C 119.573,271.027 118.906,272.027 117.5,272.5C 117.427,270.973 118.094,269.973 119.5,269.5 Z"/></g>
<g><path style="opacity:1" fill="#8886c1" d="M 1158.5,269.5 C 1159.91,269.973 1160.57,270.973 1160.5,272.5C 1159.09,272.027 1158.43,271.027 1158.5,269.5 Z"/></g>
<g><path style="opacity:1" fill="#9593c8" d="M 103.5,293.5 C 103.573,295.027 102.906,296.027 101.5,296.5C 101.427,294.973 102.094,293.973 103.5,293.5 Z"/></g>
<g><path style="opacity:1" fill="#9391c7" d="M 807.5,384.5 C 809.027,384.427 810.027,385.094 810.5,386.5C 808.973,386.573 807.973,385.906 807.5,384.5 Z"/></g>
<g><path style="opacity:1" fill="#827cbd" d="M 822.5,395.5 C 824.027,395.427 825.027,396.094 825.5,397.5C 823.973,397.573 822.973,396.906 822.5,395.5 Z"/></g>
<g><path style="opacity:1" fill="#928ec6" d="M 828.5,400.5 C 830.027,400.427 831.027,401.094 831.5,402.5C 829.973,402.573 828.973,401.906 828.5,400.5 Z"/></g>
<g><path style="opacity:1" fill="#8f8ac5" d="M 835.5,406.5 C 837.027,406.427 838.027,407.094 838.5,408.5C 836.973,408.573 835.973,407.906 835.5,406.5 Z"/></g>
<g><path style="opacity:1" fill="#8381bf" d="M 491.5,620.5 C 491.027,621.906 490.027,622.573 488.5,622.5C 488.973,621.094 489.973,620.427 491.5,620.5 Z"/></g>
<g><path style="opacity:1" fill="#6e68b2" d="M 469.5,637.5 C 468.415,639.587 466.749,640.92 464.5,641.5C 465.585,639.413 467.251,638.08 469.5,637.5 Z"/></g>
<g><path style="opacity:1" fill="#6b63b0" d="M 461.5,644.5 C 460.089,646.914 458.089,648.581 455.5,649.5C 456.911,647.086 458.911,645.419 461.5,644.5 Z"/></g>
<g><path style="opacity:1" fill="#bec0de" d="M 342.5,635.5 C 342.167,716.668 342.501,797.668 343.5,878.5C 342.975,884.824 342.475,891.158 342,897.5C 341.168,809.999 341.334,722.666 342.5,635.5 Z"/></g>
<g><path style="opacity:1" fill="#847fbe" d="M 414.5,694.5 C 414.573,696.027 413.906,697.027 412.5,697.5C 412.427,695.973 413.094,694.973 414.5,694.5 Z"/></g>
<g><path style="opacity:1" fill="#8a87c2" d="M 411.5,698.5 C 411.573,700.027 410.906,701.027 409.5,701.5C 409.427,699.973 410.094,698.973 411.5,698.5 Z"/></g>
<g><path style="opacity:1" fill="#908ec6" d="M 406.5,705.5 C 406.573,707.027 405.906,708.027 404.5,708.5C 404.427,706.973 405.094,705.973 406.5,705.5 Z"/></g>
<g><path style="opacity:1" fill="#9593c8" d="M 398.5,717.5 C 398.573,719.027 397.906,720.027 396.5,720.5C 396.427,718.973 397.094,717.973 398.5,717.5 Z"/></g>
<g><path style="opacity:1" fill="#8d8bc4" d="M 937.5,868.5 C 939.027,868.427 940.027,869.094 940.5,870.5C 938.973,870.573 937.973,869.906 937.5,868.5 Z"/></g>
<g><path style="opacity:1" fill="#9391c7" d="M 943.5,872.5 C 945.027,872.427 946.027,873.094 946.5,874.5C 944.973,874.573 943.973,873.906 943.5,872.5 Z"/></g>
<g><path style="opacity:1" fill="#817cbd" d="M 946.5,874.5 C 948.027,874.427 949.027,875.094 949.5,876.5C 947.973,876.573 946.973,875.906 946.5,874.5 Z"/></g>
<g><path style="opacity:1" fill="#8f8ac5" d="M 966.5,890.5 C 968.027,890.427 969.027,891.094 969.5,892.5C 967.973,892.573 966.973,891.906 966.5,890.5 Z"/></g>
<g><path style="opacity:1" fill="#c0c1de" d="M 343.5,947.5 C 342.833,1131.5 342.167,1315.5 341.5,1499.5C 341.333,1310.5 341.5,1121.5 342,932.5C 343.16,937.434 343.66,942.434 343.5,947.5 Z"/></g>
<g><path style="opacity:1" fill="#9087c3" d="M 1015.5,952.5 C 1017.05,952.821 1017.71,953.821 1017.5,955.5C 1016.6,954.71 1015.93,953.71 1015.5,952.5 Z"/></g>
<g><path style="opacity:1" fill="#9087c3" d="M 385.5,1086.5 C 387.048,1086.82 387.715,1087.82 387.5,1089.5C 386.599,1088.71 385.932,1087.71 385.5,1086.5 Z"/></g>
<g><path style="opacity:1" fill="#8e8ec5" d="M 1026.5,1136.5 C 1026.33,1137.49 1026.66,1138.16 1027.5,1138.5C 1027,1140.08 1026,1140.58 1024.5,1140C 1025.08,1138.7 1025.75,1137.53 1026.5,1136.5 Z"/></g>
<g><path style="opacity:1" fill="#928ec6" d="M 466.5,1183.5 C 468.027,1183.43 469.027,1184.09 469.5,1185.5C 467.973,1185.57 466.973,1184.91 466.5,1183.5 Z"/></g>
<g><path style="opacity:1" fill="#8a87c2" d="M 638.5,1183.5 C 639.906,1183.97 640.573,1184.97 640.5,1186.5C 639.094,1186.03 638.427,1185.03 638.5,1183.5 Z"/></g>
<g><path style="opacity:1" fill="#847fbe" d="M 475.5,1190.5 C 477.027,1190.43 478.027,1191.09 478.5,1192.5C 476.973,1192.57 475.973,1191.91 475.5,1190.5 Z"/></g>
<g><path style="opacity:1" fill="#8b89c3" d="M 483.5,1196.5 C 485.027,1196.43 486.027,1197.09 486.5,1198.5C 484.973,1198.57 483.973,1197.91 483.5,1196.5 Z"/></g>
<g><path style="opacity:1" fill="#928ec6" d="M 649.5,1197.5 C 650.906,1197.97 651.573,1198.97 651.5,1200.5C 650.094,1200.03 649.427,1199.03 649.5,1197.5 Z"/></g>
<g><path style="opacity:1" fill="#8f8ac5" d="M 659.5,1208.5 C 660.906,1208.97 661.573,1209.97 661.5,1211.5C 660.094,1211.03 659.427,1210.03 659.5,1208.5 Z"/></g>
<g><path style="opacity:1" fill="#8d84c2" d="M 712.5,1249.5 C 713.71,1249.93 714.71,1250.6 715.5,1251.5C 713.821,1251.71 712.821,1251.05 712.5,1249.5 Z"/></g>
<g><path style="opacity:1" fill="#0a8e53" d="M 1056.5,1263.5 C 1148.07,1264.51 1217.9,1303.51 1266,1380.5C 1303.11,1448.76 1307.45,1519.09 1279,1591.5C 1239.94,1674.98 1174.44,1722.15 1082.5,1733C 994.57,1737.61 924.07,1705.11 871,1635.5C 825.651,1567.72 815.984,1495.05 842,1417.5C 872.16,1342.01 926.326,1293.17 1004.5,1271C 1021.75,1266.85 1039.08,1264.35 1056.5,1263.5 Z"/></g>
<g><path style="opacity:1" fill="#8682c0" d="M 53.5,1682.5 C 55.0269,1682.43 56.0269,1683.09 56.5,1684.5C 54.9731,1684.57 53.9731,1683.91 53.5,1682.5 Z"/></g>
<g><path style="opacity:1" fill="#847fbe" d="M 58.5,1686.5 C 60.0269,1686.43 61.0269,1687.09 61.5,1688.5C 59.9731,1688.57 58.9731,1687.91 58.5,1686.5 Z"/></g>
<g><path style="opacity:1" fill="#8a87c2" d="M 62.5,1689.5 C 64.0269,1689.43 65.0269,1690.09 65.5,1691.5C 63.9731,1691.57 62.9731,1690.91 62.5,1689.5 Z"/></g>
<g><path style="opacity:1" fill="#1b1d89" d="M 511.5,1980.5 C 511.5,1979.5 511.5,1978.5 511.5,1977.5C 561.965,1927.53 612.299,1877.37 662.5,1827C 663.167,1826.33 663.833,1826.33 664.5,1827C 680.5,1843 696.5,1859 712.5,1875C 662.528,1925.97 612.194,1976.64 561.5,2027C 560.5,2027.67 559.5,2027.67 558.5,2027C 542.965,2011.3 527.299,1995.8 511.5,1980.5 Z"/></g>
<g><path style="opacity:1" fill="#181c88" d="M -0.5,1849.5 C 33.5016,1849.33 67.5016,1849.5 101.5,1850C 164.043,1846.99 208.543,1873.49 235,1929.5C 253.309,1981.86 242.475,2027.03 202.5,2065C 223.086,2100.17 243.419,2135.5 263.5,2171C 262.66,2172.77 261.327,2174.1 259.5,2175C 241,2185.5 222.5,2196 204,2206.5C 197.903,2196.64 192.069,2186.64 186.5,2176.5C 186.715,2174.82 186.048,2173.82 184.5,2173.5C 179.913,2166 175.58,2158.33 171.5,2150.5C 171.715,2148.82 171.048,2147.82 169.5,2147.5C 158.833,2128.83 148.167,2110.17 137.5,2091.5C 137.715,2089.82 137.048,2088.82 135.5,2088.5C 127.234,2074.3 119.234,2059.97 111.5,2045.5C 112.5,2044.83 113.5,2044.17 114.5,2043.5C 128.18,2041.16 140.513,2035.82 151.5,2027.5C 153.749,2026.92 155.415,2025.59 156.5,2023.5C 174.984,2003.59 180.15,1980.59 172,1954.5C 160.93,1928.77 141.43,1914.6 113.5,1912C 75.5121,1910.7 37.5121,1910.2 -0.5,1910.5C -0.5,1890.17 -0.5,1869.83 -0.5,1849.5 Z"/></g>
<g><path style="opacity:1" fill="#131987" d="M 307.5,1849.5 C 330.167,1849.5 352.833,1849.5 375.5,1849.5C 375.5,1962.83 375.5,2076.17 375.5,2189.5C 352.833,2189.5 330.167,2189.5 307.5,2189.5C 307.5,2076.17 307.5,1962.83 307.5,1849.5 Z"/></g>
<g><path style="opacity:1" fill="#131987" d="M 511.5,1977.5 C 511.5,1978.5 511.5,1979.5 511.5,1980.5C 511.5,2050.17 511.5,2119.83 511.5,2189.5C 488.833,2189.5 466.167,2189.5 443.5,2189.5C 443.5,2076.17 443.5,1962.83 443.5,1849.5C 466.167,1849.5 488.833,1849.5 511.5,1849.5C 511.5,1892.17 511.5,1934.83 511.5,1977.5 Z"/></g>
<g><path style="opacity:1" fill="#111887" d="M 739.5,1850.5 C 807.5,1850.5 875.5,1850.5 943.5,1850.5C 943.5,1872.17 943.5,1893.83 943.5,1915.5C 875.5,1915.5 807.5,1915.5 739.5,1915.5C 739.5,1893.83 739.5,1872.17 739.5,1850.5 Z"/></g>
<g><path style="opacity:1" fill="#9696c9" d="M 739.5,1850.5 C 807.665,1849.5 875.998,1849.17 944.5,1849.5C 944.5,1871.83 944.5,1894.17 944.5,1916.5C 875.998,1916.83 807.665,1916.5 739.5,1915.5C 807.5,1915.5 875.5,1915.5 943.5,1915.5C 943.5,1893.83 943.5,1872.17 943.5,1850.5C 875.5,1850.5 807.5,1850.5 739.5,1850.5 Z"/></g>
<g><path style="opacity:1" fill="#979aca" d="M 1080.5,1850.5 C 1080.17,1850.5 1079.83,1850.5 1079.5,1850.5C 1057.17,1850.5 1034.83,1850.5 1012.5,1850.5C 1012.5,1963.17 1012.5,2075.83 1012.5,2188.5C 1034.83,2188.5 1057.17,2188.5 1079.5,2188.5C 1079.83,2188.5 1080.17,2188.5 1080.5,2188.5C 1057.67,2189.5 1034.67,2189.83 1011.5,2189.5C 1011.5,2076.17 1011.5,1962.83 1011.5,1849.5C 1034.67,1849.17 1057.67,1849.5 1080.5,1850.5 Z"/></g>
<g><path style="opacity:1" fill="#131987" d="M 1255.5,1864.5 C 1255.5,1972.5 1255.5,2080.5 1255.5,2188.5C 1232.83,2188.5 1210.17,2188.5 1187.5,2188.5C 1187.67,2172.83 1187.5,2157.16 1187,2141.5C 1151.63,2106.3 1116.47,2070.97 1081.5,2035.5C 1081.44,2034.96 1081.11,2034.62 1080.5,2034.5C 1079.5,2085.83 1079.17,2137.16 1079.5,2188.5C 1057.17,2188.5 1034.83,2188.5 1012.5,2188.5C 1012.5,2075.83 1012.5,1963.17 1012.5,1850.5C 1034.83,1850.5 1057.17,1850.5 1079.5,1850.5C 1079.17,1911.5 1079.5,1972.5 1080.5,2033.5C 1081.11,2033.38 1081.44,2033.04 1081.5,2032.5C 1096.81,2016.52 1112.48,2000.85 1128.5,1985.5C 1148.15,2004.65 1167.65,2023.99 1187,2043.5C 1187.5,1978.83 1187.67,1914.17 1187.5,1849.5C 1210.17,1849.5 1232.83,1849.5 1255.5,1849.5C 1255.5,1854.5 1255.5,1859.5 1255.5,1864.5 Z"/></g>
<g><path style="opacity:1" fill="#4d53a5" d="M 1079.5,1850.5 C 1079.83,1850.5 1080.17,1850.5 1080.5,1850.5C 1080.17,1911.34 1080.5,1972 1081.5,2032.5C 1081.44,2033.04 1081.11,2033.38 1080.5,2033.5C 1079.5,1972.5 1079.17,1911.5 1079.5,1850.5 Z"/></g>
<g><path style="opacity:1" fill="#c4c6e1" d="M 1255.5,1864.5 C 1256.5,1972.67 1256.83,2081 1256.5,2189.5C 1233.33,2189.83 1210.33,2189.5 1187.5,2188.5C 1210.17,2188.5 1232.83,2188.5 1255.5,2188.5C 1255.5,2080.5 1255.5,1972.5 1255.5,1864.5 Z"/></g>
<g><path style="opacity:1" fill="#131987" d="M -0.5,1963.5 C 22.1667,1963.5 44.8333,1963.5 67.5,1963.5C 67.5,2038.83 67.5,2114.17 67.5,2189.5C 44.8333,2189.5 22.1667,2189.5 -0.5,2189.5C -0.5,2114.17 -0.5,2038.83 -0.5,1963.5 Z"/></g>
<g><path style="opacity:1" fill="#111887" d="M 739.5,1987.5 C 807.5,1987.5 875.5,1987.5 943.5,1987.5C 943.5,2009.17 943.5,2030.83 943.5,2052.5C 875.5,2052.5 807.5,2052.5 739.5,2052.5C 739.5,2030.83 739.5,2009.17 739.5,1987.5 Z"/></g>
<g><path style="opacity:1" fill="#8485c0" d="M 739.5,1987.5 C 807.665,1986.5 875.998,1986.17 944.5,1986.5C 944.5,2008.83 944.5,2031.17 944.5,2053.5C 875.998,2053.83 807.665,2053.5 739.5,2052.5C 807.5,2052.5 875.5,2052.5 943.5,2052.5C 943.5,2030.83 943.5,2009.17 943.5,1987.5C 875.5,1987.5 807.5,1987.5 739.5,1987.5 Z"/></g>
<g><path style="opacity:1" fill="#141a87" d="M 603.5,1995.5 C 626.167,1995.5 648.833,1995.5 671.5,1995.5C 671.5,2060.17 671.5,2124.83 671.5,2189.5C 648.833,2189.5 626.167,2189.5 603.5,2189.5C 603.5,2124.83 603.5,2060.17 603.5,1995.5 Z"/></g>
<g><path style="opacity:1" fill="#7c77ba" d="M 156.5,2023.5 C 155.415,2025.59 153.749,2026.92 151.5,2027.5C 152.585,2025.41 154.251,2024.08 156.5,2023.5 Z"/></g>
<g><path style="opacity:1" fill="#4d53a5" d="M 1081.5,2035.5 C 1080.5,2086.33 1080.17,2137.33 1080.5,2188.5C 1080.17,2188.5 1079.83,2188.5 1079.5,2188.5C 1079.17,2137.16 1079.5,2085.83 1080.5,2034.5C 1081.11,2034.62 1081.44,2034.96 1081.5,2035.5 Z"/></g>
<g><path style="opacity:1" fill="#9699ca" d="M 114.5,2043.5 C 113.5,2044.17 112.5,2044.83 111.5,2045.5C 110.957,2045.44 110.624,2045.11 110.5,2044.5C 111.689,2043.57 113.022,2043.24 114.5,2043.5 Z"/></g>
<g><path style="opacity:1" fill="#8d84c2" d="M 135.5,2088.5 C 137.048,2088.82 137.715,2089.82 137.5,2091.5C 136.599,2090.71 135.932,2089.71 135.5,2088.5 Z"/></g>
<g><path style="opacity:1" fill="#111887" d="M 739.5,2124.5 C 807.5,2124.5 875.5,2124.5 943.5,2124.5C 943.5,2145.83 943.5,2167.17 943.5,2188.5C 875.5,2188.5 807.5,2188.5 739.5,2188.5C 739.5,2167.17 739.5,2145.83 739.5,2124.5 Z"/></g>
<g><path style="opacity:1" fill="#8485c0" d="M 739.5,2124.5 C 807.665,2123.5 875.998,2123.17 944.5,2123.5C 944.5,2145.5 944.5,2167.5 944.5,2189.5C 875.998,2189.83 807.665,2189.5 739.5,2188.5C 807.5,2188.5 875.5,2188.5 943.5,2188.5C 943.5,2167.17 943.5,2145.83 943.5,2124.5C 875.5,2124.5 807.5,2124.5 739.5,2124.5 Z"/></g>
<g><path style="opacity:1" fill="#8d84c2" d="M 169.5,2147.5 C 171.048,2147.82 171.715,2148.82 171.5,2150.5C 170.599,2149.71 169.932,2148.71 169.5,2147.5 Z"/></g>
<g><path style="opacity:1" fill="#8d84c2" d="M 184.5,2173.5 C 186.048,2173.82 186.715,2174.82 186.5,2176.5C 185.599,2175.71 184.932,2174.71 184.5,2173.5 Z"/></g>
</svg>
