<?xml version="1.0" standalone="no"?>
<!DOCTYPE svg PUBLIC "-//W3C//DTD SVG 1.0//EN" "http://www.w3.org/TR/2001/REC-SVG-20010904/DTD/svg10.dtd">

<svg xmlns="http://www.w3.org/2000/svg" width="790" height="263" viewBox="0 0 790 263" version="1.1"><path d="M 233.059 72.492 C 215.374 76.501, 201.511 88.644, 195.401 105.476 C 188.499 124.491, 193.131 144.376, 207.885 159.061 C 228.066 179.150, 259.752 179.088, 279.920 158.920 C 299.169 139.671, 300.111 109.097, 282.077 88.874 C 269.777 75.080, 250.323 68.578, 233.059 72.492 M 388.500 71.976 C 379.598 73.919, 372.314 78.559, 369.438 84.119 C 368.173 86.566, 367.346 87, 363.942 87 C 352.227 87, 341.049 97.698, 336.035 113.708 C 326.776 143.274, 341.878 177.693, 364.224 177.956 C 367.295 177.992, 368.210 178.506, 369.438 180.881 C 371.380 184.636, 376.377 188.805, 382 191.363 C 388.104 194.139, 402.781 194.053, 411.728 191.190 C 421.117 188.185, 430.606 182.432, 437.416 175.615 C 444.795 168.229, 448.487 162.166, 450.580 153.994 C 452.344 147.109, 451.879 142.148, 448.929 136.360 C 447.020 132.616, 447.021 132.588, 449.230 128.052 C 451.941 122.484, 452.118 114.598, 449.691 107.500 C 447.622 101.451, 440.910 92.283, 434.909 87.310 C 430.924 84.008, 431.044 84.226, 436.153 89.578 C 443.854 97.645, 447.361 104.700, 447.835 113.078 C 448.130 118.308, 447.775 120.522, 446.118 123.769 C 444.969 126.021, 443.685 128.034, 443.264 128.242 C 442.844 128.450, 441.047 127.867, 439.270 126.947 L 436.041 125.273 438.123 123.389 C 441.425 120.401, 443.113 116.260, 443.153 111.047 C 443.259 97.396, 427.854 81.619, 410.408 77.511 C 395.812 74.074, 384.346 78.208, 380.993 88.117 L 379.487 92.571 376.375 90.474 L 373.263 88.377 375.128 84.742 C 382.479 70.414, 406.949 69.261, 427.500 82.274 L 430.500 84.173 428 81.941 C 420.302 75.067, 398.981 69.688, 388.500 71.976 M 232.500 75.405 C 225.892 77.038, 219.488 80.021, 214.143 83.958 L 209.786 87.167 212.503 90.003 L 215.220 92.839 219.860 89.510 C 224.752 86.001, 235.199 82, 239.468 82 C 241.755 82, 242 81.613, 242 78 C 242 73.424, 241.296 73.232, 232.500 75.405 M 245.190 77.625 C 245.496 81.207, 245.582 81.272, 252.500 83.144 C 262.228 85.777, 268.494 86.609, 267.591 85.147 C 267.201 84.516, 267.407 84, 268.048 84 C 268.689 84, 268.993 84.575, 268.724 85.278 C 268.454 85.980, 269.218 87.790, 270.422 89.299 L 272.610 92.044 274.856 89.654 L 277.101 87.263 273.801 84.472 C 269.315 80.679, 259.639 76.259, 253.109 75.021 C 244.949 73.473, 244.837 73.510, 245.190 77.625 M 200.407 78.963 C 198.157 79.965, 195.303 82.070, 194.067 83.642 C 191.458 86.958, 188.729 93.063, 189.508 93.841 C 190.250 94.584, 198.215 86.622, 201.994 81.358 C 203.716 78.961, 204.984 77.032, 204.812 77.071 C 204.640 77.109, 202.658 77.961, 200.407 78.963 M 286.031 81.394 C 289.891 86.768, 297.760 94.574, 298.536 93.798 C 299.418 92.915, 295.184 84.517, 292.700 82.223 C 291.490 81.106, 288.796 79.490, 286.714 78.632 L 282.927 77.072 286.031 81.394 M 248.029 78.961 C 247.220 79.473, 246.836 80.170, 247.177 80.510 C 248.122 81.455, 255.060 79.906, 254.432 78.890 C 253.716 77.731, 249.907 77.773, 248.029 78.961 M 394 79.784 C 388.402 82.854, 385.708 87.573, 386.352 93.182 C 387.077 99.498, 389.882 104.590, 395.669 110.097 C 402.048 116.168, 406.333 118.614, 414.049 120.591 C 433.304 125.524, 445.320 114.068, 437.452 98.279 C 431.945 87.228, 418.568 78.955, 405.077 78.257 C 398.974 77.941, 396.819 78.238, 394 79.784 M 470 91.050 C 470 104.261, 471.154 107.259, 477.316 110.057 C 484.715 113.416, 494.190 111.939, 498.559 106.747 C 500.848 104.027, 501 103.105, 501 91.923 L 501 80 495 80 L 489 80 489 90.433 C 489 100.068, 488.844 100.915, 486.952 101.515 C 482.971 102.779, 482 100.497, 482 89.878 L 482 80 476 80 L 470 80 470 91.050 M 504 96.050 L 504 112.100 509.750 111.800 L 515.500 111.500 515.801 105.709 L 516.102 99.919 520.549 105.959 C 524.844 111.794, 525.149 112, 529.498 112 L 534 112 534 96 L 534 80 528 80 L 522 80 522 85.750 L 522 91.500 517.921 85.750 C 513.900 80.082, 513.772 80, 508.921 80 L 504 80 504 96.050 M 398.225 82.933 C 392.660 86.447, 392.052 91.040, 396.083 99.095 C 402.767 112.449, 427.164 119.310, 433.512 109.621 C 437.145 104.077, 434.678 96.593, 426.917 89.616 C 420.484 83.831, 416.286 81.980, 408.221 81.372 C 402.587 80.947, 400.970 81.199, 398.225 82.933 M 187.941 85.703 C 183.549 89.398, 182 93.660, 182 102.044 L 182 109.151 189.075 102.863 C 192.967 99.404, 196.792 95.040, 197.575 93.165 C 199.499 88.563, 199.420 88.452, 196.250 91.307 C 194.738 92.669, 191.606 95.442, 189.292 97.470 L 185.084 101.157 187.114 93.828 C 188.231 89.798, 189.857 85.713, 190.727 84.750 C 193.105 82.121, 191.576 82.644, 187.941 85.703 M 297.178 84.604 C 298.101 85.647, 299.769 89.798, 300.886 93.828 L 302.916 101.157 298.708 97.470 C 296.394 95.442, 293.262 92.669, 291.750 91.307 C 288.580 88.452, 288.501 88.563, 290.425 93.165 C 291.208 95.040, 295.033 99.404, 298.925 102.863 L 306 109.151 306 102.141 C 306 92.371, 303.475 86.910, 297.500 83.763 C 295.600 82.762, 295.584 82.804, 297.178 84.604 M 402.108 84.637 C 400.062 86.070, 399.831 86.884, 400.245 91.193 C 400.615 95.052, 401.448 96.882, 404.109 99.679 C 411.310 107.252, 423.765 110.333, 429.365 105.927 C 435.618 101.009, 429.994 90.107, 418.500 84.867 C 413.441 82.561, 405.236 82.446, 402.108 84.637 M 231.079 86.643 C 226.276 88.324, 219.580 92.252, 218.479 94.034 C 218.100 94.647, 218.768 96.189, 219.963 97.460 L 222.135 99.773 227.687 96.430 C 230.740 94.591, 235.210 92.791, 237.619 92.430 C 241.802 91.803, 242 91.620, 242 88.386 C 242 85.223, 241.786 85.003, 238.750 85.048 C 236.963 85.074, 233.511 85.792, 231.079 86.643 M 245 88.368 C 245 91.512, 245.254 91.771, 248.794 92.246 C 250.881 92.525, 254.529 93.692, 256.901 94.838 L 261.213 96.921 260.655 94.711 C 260.177 92.817, 260.508 92.955, 262.962 95.669 C 265.775 98.780, 267 98.982, 267 96.333 C 267 95.600, 266.331 95, 265.513 95 C 264.696 95, 263.393 93.483, 262.619 91.630 C 261.501 88.955, 260.224 87.923, 256.427 86.630 C 253.796 85.733, 250.149 85, 248.322 85 C 245.217 85, 245 85.220, 245 88.368 M 409.159 86.137 C 404.126 87.999, 408.174 95.361, 416.246 99.025 C 421.166 101.259, 424.103 101.497, 425.800 99.800 C 427.893 97.707, 427.105 94.469, 423.766 91.437 C 421.913 89.755, 421.348 89.471, 422.442 90.774 C 425.007 93.826, 423.427 95.493, 419.415 93.968 C 413.777 91.824, 411.018 87.569, 414.750 86.774 C 416.010 86.505, 415.774 86.252, 413.909 85.869 C 412.484 85.577, 410.347 85.698, 409.159 86.137 M 204.992 93.143 C 200.542 99.249, 198.229 104.024, 196.495 110.680 C 194.064 120.013, 194.304 121, 199 121 C 202.729 121, 203 120.807, 203 118.157 C 203 113.668, 206.648 104.229, 210.402 99.003 L 213.839 94.220 211.003 91.503 L 208.167 88.786 204.992 93.143 M 276.086 92.408 L 273.788 94.855 276.280 98.177 C 280.112 103.288, 282.652 108.937, 283.955 115.250 C 285.121 120.901, 285.201 121, 288.571 121 C 291.803 121, 292 120.805, 292 117.605 C 292 112.077, 288.317 101.794, 284.273 96.028 C 282.198 93.071, 280.024 90.496, 279.442 90.306 C 278.861 90.117, 277.350 91.063, 276.086 92.408 M 353.245 93.586 C 344.914 97.229, 337.342 109.139, 335.126 122.082 C 333.637 130.785, 333.728 136.052, 335.514 144.483 C 339.212 161.944, 349.510 172.919, 362.250 172.978 L 367 173 367 169 C 367 164.640, 366.759 164.491, 362.245 166.064 C 357.675 167.657, 351.994 165.731, 347.016 160.900 C 342.899 156.904, 337.930 147.641, 338.070 144.221 C 338.109 143.275, 338.739 144.125, 339.470 146.110 C 341.993 152.965, 345.323 156.954, 350.771 159.649 C 355.939 162.204, 356.127 162.223, 360.351 160.610 C 372.994 155.782, 378.882 136.892, 373.430 118.653 C 371.895 113.521, 366.758 107.061, 362.616 105.056 C 357.287 102.476, 355.696 102.485, 350.250 105.121 C 344.810 107.755, 341.168 113.068, 338.769 121.869 C 337.031 128.250, 336.985 128.312, 337.554 123.500 C 338.809 112.883, 345.757 102.404, 353.503 99.446 C 357.607 97.878, 359.496 97.905, 365.250 99.615 C 366.715 100.050, 367 99.472, 367 96.067 L 367 92 361.750 92.082 C 358.863 92.126, 355.035 92.804, 353.245 93.586 M 177.956 97.591 C 174.623 104.476, 174.410 109.557, 177.078 118.545 C 178.996 125.004, 179.569 126.023, 180.445 124.530 C 181.025 123.539, 183.439 119.846, 185.809 116.322 C 188.179 112.798, 190.786 108.022, 191.601 105.708 L 193.084 101.500 187.965 106.500 C 185.150 109.250, 182.221 112.850, 181.457 114.500 C 180.193 117.227, 180.087 116.384, 180.283 105.249 C 180.403 98.510, 180.428 92.998, 180.339 92.999 C 180.251 92.999, 179.178 95.066, 177.956 97.591 M 307.717 105.380 C 307.914 116.404, 307.807 117.229, 306.543 114.500 C 305.779 112.850, 302.850 109.250, 300.035 106.500 L 294.916 101.500 296.399 105.708 C 297.214 108.022, 299.907 112.874, 302.384 116.491 C 304.860 120.107, 307.201 124.058, 307.585 125.269 C 308.136 127.004, 308.785 125.788, 310.642 119.541 C 313.383 110.325, 313.552 106.816, 311.532 101.090 C 308.196 91.635, 307.485 92.434, 307.717 105.380 M 237.734 95.088 C 233.351 96.121, 226.436 99.486, 225.463 101.060 C 225.093 101.658, 225.782 103.203, 226.994 104.493 L 229.197 106.839 233.748 104.419 C 236.250 103.089, 239.131 102, 240.149 102 C 241.642 102, 242 101.226, 242 98 C 242 95.800, 241.887 94.045, 241.750 94.100 C 241.613 94.156, 239.806 94.600, 237.734 95.088 M 245 98.129 C 245 101.214, 245.372 102, 246.831 102 C 247.837 102, 250.745 103.055, 253.292 104.345 L 257.924 106.689 260.426 104.077 L 262.929 101.465 258.603 98.728 C 256.223 97.223, 252.189 95.601, 249.638 95.125 L 245 94.258 245 98.129 M 373.387 99.187 C 374.549 104.993, 378.622 112.433, 383.413 117.500 L 388.141 122.500 387.558 119.063 C 386.694 113.967, 382.425 105.224, 378.406 100.320 C 374.155 95.132, 372.502 94.759, 373.387 99.187 M 213.135 99.556 C 209.869 103.707, 206.964 110.464, 206.103 115.911 L 205.299 121 209.149 121 C 212.678 121, 213.002 120.770, 213.022 118.250 C 213.046 115.191, 215.912 108.336, 218.950 104.070 L 220.933 101.286 218.652 99.143 C 215.778 96.443, 215.572 96.458, 213.135 99.556 M 267.746 100.587 C 266.905 101.429, 269.193 105, 270.574 105 C 271.175 105, 271.728 105.563, 271.803 106.250 C 272.127 109.218, 273.891 117.646, 274.524 119.250 C 274.992 120.437, 276.305 121, 278.607 121 C 282.576 121, 282.802 119.971, 280.484 112.432 C 279.289 108.545, 277.970 106.759, 274.257 104 C 268.653 99.836, 268.551 99.783, 267.746 100.587 M 221.243 105.250 C 219.367 107.592, 216.290 114.492, 215.669 117.750 C 215.188 120.273, 215.393 121, 216.584 121 C 217.428 121, 217.865 120.591, 217.556 120.090 C 216.531 118.433, 218.023 116.393, 223.082 112.535 L 228.085 108.720 225.868 106.360 C 223.338 103.666, 222.646 103.500, 221.243 105.250 M 261.183 107.311 L 257.997 110.599 261.561 110.183 C 264.543 109.835, 265.217 110.115, 265.684 111.899 C 266.012 113.152, 266.914 113.922, 267.871 113.766 C 268.990 113.583, 269.475 114.204, 269.421 115.750 C 269.377 116.987, 269.700 118, 270.139 118 C 270.578 118, 270.678 118.675, 270.362 119.500 C 270.045 120.325, 270.284 121, 270.893 121 C 271.502 121, 272 120.587, 272 120.082 C 272 119.577, 272.267 118.339, 272.594 117.332 C 273.089 115.808, 273.007 115.752, 272.110 117 C 271.251 118.193, 271.027 117.828, 271.015 115.219 C 271.006 113.235, 270.407 111.710, 269.500 111.362 C 268.675 111.045, 268 110.004, 268 109.048 C 268 108.092, 267.183 106.571, 266.185 105.667 C 264.482 104.126, 264.171 104.228, 261.183 107.311 M 234.750 106.572 C 231.329 108.428, 231.300 109.287, 234.601 111.054 C 236.902 112.286, 237.346 112.248, 238.461 110.723 C 239.154 109.775, 240.233 109, 240.860 109 C 241.487 109, 242 108.100, 242 107 C 242 104.562, 238.803 104.373, 234.750 106.572 M 245 107.500 C 245 110.163, 246.816 110.784, 248.800 108.800 C 249.733 107.867, 250 107.967, 250 109.250 C 250 110.158, 249.276 111.306, 248.391 111.801 C 246.939 112.614, 246.954 112.768, 248.546 113.379 C 250.252 114.034, 255 110.703, 255 108.851 C 255 107.689, 249.449 105, 247.050 105 C 245.530 105, 245 105.646, 245 107.500 M 347.607 112.095 C 344.161 114.805, 341.195 120.682, 340.509 126.158 L 339.966 130.500 341.340 125.704 C 344.176 115.806, 351.349 112.195, 356.983 117.829 C 365.888 126.735, 361.837 150, 351.381 150 C 347.665 150, 342.981 145.065, 341.383 139.466 L 339.966 134.500 340.509 138.842 C 341.202 144.375, 344.168 150.199, 347.722 153.003 C 349.881 154.706, 351.424 155.092, 354.644 154.732 C 368.264 153.211, 372.938 125.559, 361.606 113.544 C 358.862 110.634, 357.549 110, 354.267 110 C 351.724 110, 349.301 110.762, 347.607 112.095 M 172.757 114 C 172.356 115.375, 172.025 119.200, 172.022 122.500 C 172.016 128.644, 173.119 131.242, 179.937 141.157 L 182.374 144.701 185.066 134.101 C 188.145 121.974, 189.310 116, 188.594 116 C 187.547 116, 181 128.800, 181 130.846 C 181 132.031, 180.658 133, 180.241 133 C 179.151 133, 174.593 120.232, 173.994 115.500 C 173.539 111.910, 173.412 111.756, 172.757 114 M 314.070 114.900 C 313.994 118.594, 308.970 132.972, 307.750 132.989 C 307.337 132.995, 307 132.031, 307 130.846 C 307 128.838, 300.462 116, 299.439 116 C 298.615 116, 300.236 124.297, 302.648 132.426 C 303.942 136.786, 305 141.471, 305 142.839 C 305 144.982, 305.533 144.578, 308.859 139.913 C 315.003 131.296, 316.007 128.723, 315.930 121.800 C 315.852 114.862, 314.198 108.724, 314.070 114.900 M 239.635 118.073 C 238.186 119.212, 237 120.818, 237 121.640 C 237 122.648, 236.388 122.940, 235.118 122.538 C 233.931 122.161, 233.020 122.505, 232.650 123.470 C 231.958 125.273, 232.086 125.298, 235.435 124.025 C 238.299 122.936, 238.460 123.180, 236.944 126.316 C 235.893 128.487, 235.898 128.487, 237.854 126.250 C 240.069 123.716, 243 123.256, 243 125.443 C 243 126.237, 242.006 127.583, 240.791 128.434 C 239.141 129.589, 238.869 130.269, 239.718 131.118 C 241.224 132.624, 246 131.380, 246 129.481 C 246 128.666, 246.734 128, 247.632 128 C 250.100 128, 248.798 120.065, 245.952 117.760 C 243.205 115.536, 242.837 115.554, 239.635 118.073 M 479.655 117.459 C 471.989 120.192, 468.322 126.293, 469.273 134.733 C 469.899 140.282, 472.453 143.916, 477.479 146.411 C 482.016 148.663, 490.759 148.994, 496.250 147.123 L 500 145.845 500 137.422 L 500 129 492.500 129 L 485 129 485 132.500 C 485 135.567, 485.310 136, 487.500 136 C 488.875 136, 490 136.450, 490 137 C 490 137.550, 488.415 138, 486.479 138 C 483.721 138, 482.717 137.473, 481.852 135.574 C 480.246 132.051, 481.570 128.117, 484.778 126.878 C 486.333 126.277, 489.964 126.100, 493.250 126.463 L 499 127.099 499 122.525 C 499 118.535, 498.672 117.826, 496.435 116.975 C 492.804 115.595, 484.187 115.843, 479.655 117.459 M 502.667 116.667 C 502.300 117.033, 502 124.233, 502 132.667 L 502 148 514.500 148 L 527 148 527 143.500 L 527 139 520.500 139 L 514 139 514 127.500 L 514 116 508.667 116 C 505.733 116, 503.033 116.300, 502.667 116.667 M 535.316 117.943 C 532.904 119.039, 530.526 121.041, 529.700 122.671 C 526.053 129.871, 526.864 139.161, 531.567 144.070 C 536.605 149.329, 548.682 150.059, 555.604 145.524 C 559.446 143.007, 561.275 137.656, 560.807 130.303 C 560.472 125.048, 559.939 123.546, 557.511 121.011 C 552.550 115.833, 542.901 114.500, 535.316 117.943 M 563 131.956 L 563 148.163 575.398 147.832 C 585.851 147.552, 588.123 147.204, 589.879 145.613 C 592.856 142.914, 593.636 137.619, 591.529 134.404 C 590.123 132.258, 590.035 131.331, 591.011 128.974 C 591.675 127.369, 591.892 124.783, 591.507 123.032 C 590.388 117.936, 587.238 116.676, 574.386 116.184 L 563 115.748 563 131.956 M 603.085 118.250 C 595.875 136.995, 592 147.251, 592 147.587 C 592 147.814, 594.723 148, 598.052 148 C 603.877 148, 604.143 147.888, 605.150 145 C 606.057 142.399, 606.686 142, 609.879 142 C 613.052 142, 613.718 142.415, 614.694 145 C 615.781 147.881, 616.068 148, 621.913 148 C 625.261 148, 628 147.830, 628 147.622 C 628 147.414, 627.386 145.727, 626.637 143.872 C 625.887 142.017, 623.149 134.988, 620.553 128.250 L 615.832 116 609.891 116 C 604.654 116, 603.848 116.266, 603.085 118.250 M 629 131.950 L 629 148 641.500 148 L 654 148 654 143.500 L 654 139 647.533 139 L 641.066 139 640.783 127.750 L 640.500 116.500 634.750 116.200 L 629 115.900 629 131.950 M 394.419 122.250 C 395.454 128.779, 396.756 129.574, 403.011 127.496 L 408.223 125.765 402.863 122.834 C 399.915 121.222, 397.075 119.475, 396.551 118.951 C 394.534 116.934, 393.764 118.124, 394.419 122.250 M 220.882 120.750 C 220.816 121.162, 220.827 121.869, 220.905 122.321 C 220.983 122.772, 220.035 123.961, 218.797 124.963 C 216.851 126.539, 216.707 127.104, 217.732 129.143 C 219.518 132.697, 221.204 140.026, 220.598 141.605 C 219.687 143.978, 221.469 143.151, 224.593 139.750 L 227.578 136.500 224.875 131.244 C 223.388 128.353, 221.969 126.553, 221.722 127.244 C 221.476 127.935, 220.966 128.216, 220.589 127.869 C 220.213 127.522, 220.601 126.542, 221.452 125.690 C 223.175 123.967, 223.557 120, 222 120 C 221.450 120, 220.947 120.338, 220.882 120.750 M 345.486 123.015 C 341.555 127.359, 343.003 141.913, 347.538 143.653 C 351.775 145.279, 355.934 135.181, 353.994 127.977 C 352.191 121.283, 348.829 119.322, 345.486 123.015 M 195 125.951 C 195 133.295, 200.175 146.489, 205.571 152.902 L 208.263 156.101 210.632 153.876 C 211.934 152.653, 213 151.312, 213 150.897 C 213 149.462, 204.956 142.660, 200.824 140.599 C 199.174 139.777, 198.500 138.580, 198.500 136.470 C 198.500 134.837, 198.950 133.493, 199.500 133.485 C 200.050 133.476, 201.024 133.136, 201.665 132.728 C 202.305 132.321, 203.098 132.553, 203.426 133.244 C 203.754 133.935, 203.798 133.375, 203.525 132 C 203.251 130.625, 203.021 128.262, 203.014 126.750 C 203.001 124.211, 202.694 124, 199 124 C 195.700 124, 195 124.342, 195 125.951 M 205.829 128 C 206.186 131.743, 208 133.814, 208 130.479 C 208 129.642, 209.125 128.445, 210.500 127.818 C 214.341 126.068, 213.650 124, 209.224 124 L 205.447 124 205.829 128 M 269 124.878 C 269 125.360, 269.675 126.315, 270.500 127 C 271.753 128.040, 272 127.896, 272 126.122 C 272 124.902, 271.362 124, 270.500 124 C 269.675 124, 269 124.395, 269 124.878 M 274.842 125.750 C 274.754 126.713, 274.749 128.287, 274.830 129.250 C 274.910 130.213, 274.581 131, 274.097 131 C 273.613 131, 272.925 132.161, 272.569 133.581 C 272.213 135, 270.771 137.899, 269.366 140.023 C 266.777 143.936, 266.853 146.377, 269.532 145.349 C 270.447 144.998, 271 145.391, 271 146.393 C 271 148.866, 272.645 148.307, 274.969 145.044 C 278.115 140.625, 280.749 134.086, 281.531 128.750 L 282.227 124 278.614 124 C 275.899 124, 274.961 124.435, 274.842 125.750 M 284.472 128.250 C 283.444 134.464, 280.757 141.040, 277.034 146.450 L 273.758 151.212 276.441 153.856 L 279.125 156.500 281.596 153.500 C 286.203 147.907, 290.976 136.868, 291.649 130.250 L 292.285 124 288.730 124 C 285.326 124, 285.146 124.179, 284.472 128.250 M 381.300 132.496 L 381.300 140.853 385.150 137.759 C 390.040 133.830, 390.036 131.389, 385.132 127.319 L 381.300 124.139 381.300 132.496 M 574 127 C 574 129.145, 577.263 129.753, 579.878 128.096 C 581.955 126.781, 580.266 125, 576.941 125 C 574.667 125, 574 125.453, 574 127 M 344.463 128.291 C 343.455 132.309, 344.321 137.500, 346 137.500 C 347.149 137.500, 347.500 136.231, 347.500 132.083 C 347.500 126.344, 345.560 123.921, 344.463 128.291 M 541.061 127.426 C 540.410 128.210, 540.018 130.798, 540.189 133.176 C 540.485 137.290, 540.665 137.516, 543.895 137.824 C 545.937 138.019, 547.625 137.621, 548.130 136.824 C 549.386 134.844, 549.171 128.571, 547.800 127.200 C 546.165 125.565, 542.504 125.688, 541.061 127.426 M 226 127.514 C 226 128.884, 229.129 134, 229.967 134 C 231.642 134, 232.189 131.933, 230.918 130.402 C 229.490 128.681, 226 126.632, 226 127.514 M 418.500 129.455 C 417.950 129.685, 414.800 130.413, 411.500 131.072 L 405.500 132.271 409.500 133.746 C 415.106 135.812, 430.617 135.876, 434.392 133.849 L 437.285 132.295 433.892 131.109 C 430.276 129.845, 420.166 128.759, 418.500 129.455 M 609.032 129.668 C 609.014 130.311, 608.727 131.548, 608.393 132.418 C 607.958 133.552, 608.383 134, 609.893 134 C 611.052 134, 612 133.636, 612 133.191 C 612 131.874, 609.067 128.392, 609.032 129.668 M 262.965 133.319 C 259.489 135.520, 259.250 136.009, 262 135.290 C 264.325 134.682, 264.685 136.846, 262.836 140.316 C 261.825 142.214, 261.870 142.337, 263.178 141.259 C 264.006 140.576, 264.919 140.252, 265.207 140.540 C 265.830 141.164, 268.673 136.991, 269.997 133.508 C 270.854 131.254, 270.711 131.046, 268.435 131.235 C 267.057 131.349, 264.595 132.287, 262.965 133.319 M 299.265 134.500 C 298.644 136.700, 297.646 142.655, 297.049 147.733 C 296.452 152.812, 295.533 158.099, 295.006 159.483 C 294.480 160.868, 294.376 161.982, 294.775 161.959 C 295.174 161.937, 298.861 159.575, 302.969 156.709 C 309.059 152.462, 310.940 150.485, 313.159 146 C 316.130 139.997, 318.106 131.927, 315.766 135.355 C 313.361 138.880, 309.455 143.700, 304.892 148.775 L 300.313 153.868 301.301 150.167 C 301.940 147.773, 301.955 143.648, 301.342 138.483 L 300.396 130.500 299.265 134.500 M 186.505 140.247 C 186.073 145.529, 186.231 149.540, 186.944 151.390 C 187.856 153.759, 187.199 153.325, 183.293 148.981 C 178.563 143.720, 174.664 138.916, 172.234 135.355 C 171.136 133.747, 171.052 133.966, 171.606 137 C 173.270 146.128, 179.716 154.195, 189.833 159.814 L 193.999 162.127 193.124 159.814 C 192.642 158.541, 191.949 155.025, 191.584 152 C 190.227 140.777, 188.797 132.993, 188 132.500 C 187.549 132.221, 186.876 135.707, 186.505 140.247 M 233.990 134.510 L 231.811 136.830 234.156 138.311 C 238.679 141.168, 240.546 141.216, 241.993 138.513 C 242.732 137.133, 243.148 135.890, 242.918 135.752 C 237.120 132.265, 236.218 132.139, 233.990 134.510 M 396.216 137.250 C 395.650 137.938, 394.858 140.713, 394.455 143.417 L 393.723 148.334 397.099 145.917 C 398.955 144.588, 402.280 142.676, 404.487 141.668 L 408.500 139.836 403.500 137.919 C 397.582 135.650, 397.537 135.646, 396.216 137.250 M 439.163 138.269 L 435.826 140.286 438.319 142.393 C 441.852 145.379, 443.110 148.370, 443.152 153.886 C 443.210 161.342, 439.827 167.874, 431.986 175.443 C 422.631 184.475, 411.958 189.013, 400.114 188.994 C 390.692 188.980, 382.750 183.834, 380.780 176.468 L 379.643 172.216 376.438 174.317 C 373.578 176.191, 373.344 176.691, 374.262 178.959 C 375.996 183.242, 382.860 188.881, 388.309 190.499 C 412.561 197.701, 448 174.579, 448 151.553 C 448 146.003, 446.495 141.033, 443.857 137.876 C 442.612 136.387, 442.225 136.419, 439.163 138.269 M 574 138 C 574 139.797, 574.504 140.078, 577.250 139.813 C 579.333 139.613, 580.500 138.961, 580.500 138 C 580.500 137.039, 579.333 136.387, 577.250 136.187 C 574.504 135.922, 574 136.203, 574 138 M 252.639 138.694 C 252.258 139.076, 250.225 139.286, 248.122 139.162 C 245.589 139.013, 243.841 139.487, 242.945 140.567 C 241.751 142.005, 241.880 142.159, 244.046 141.879 C 245.396 141.705, 247.066 141.914, 247.757 142.344 C 248.849 143.024, 255 139.702, 255 138.432 C 255 137.751, 253.405 137.928, 252.639 138.694 M 226.969 141.533 C 224.922 143.712, 224.778 144.256, 226.026 145.089 C 229.083 147.130, 233.481 149.278, 236.201 150.058 C 238.906 150.833, 238.961 150.782, 237.557 148.778 C 236.519 147.297, 236.378 146.162, 237.070 144.868 C 237.889 143.339, 237.439 142.769, 234.273 141.326 C 232.198 140.380, 230.249 139.461, 229.942 139.284 C 229.636 139.106, 228.297 140.119, 226.969 141.533 M 414 144.372 C 399.377 148.633, 387.692 160.169, 386.372 171.648 C 385.910 175.670, 386.215 177.081, 388.157 179.898 C 391.957 185.411, 396.250 187.167, 405 186.791 C 430.662 185.689, 450.994 156.812, 433.653 146.095 C 429.346 143.433, 420.026 142.616, 414 144.372 M 382.491 149.211 C 377.686 154.545, 374.862 159.799, 373.523 165.896 L 372.795 169.212 375.721 167.048 C 377.330 165.858, 380.040 162.548, 381.742 159.692 C 384.806 154.551, 388.443 145.110, 387.661 144.328 C 387.438 144.105, 385.111 146.302, 382.491 149.211 M 264 146.950 C 264 147.473, 264.766 148.329, 265.703 148.854 C 267.055 149.611, 267.160 150.102, 266.211 151.245 C 264.704 153.062, 265.861 154.360, 267.658 152.869 C 269.500 151.340, 269.340 149.617, 267.171 147.655 C 265.112 145.791, 264 145.544, 264 146.950 M 193.308 149.250 C 193.597 150.488, 194.358 154.115, 195 157.310 C 195.793 161.260, 197.181 164.299, 199.333 166.801 C 202.065 169.977, 202.157 170.244, 200 168.743 C 198.625 167.787, 194.198 165.141, 190.162 162.863 C 186.126 160.586, 181.513 157.620, 179.912 156.272 C 174.780 151.954, 177.161 157.117, 183.401 163.838 C 187.335 168.075, 192.276 170.617, 200.219 172.489 C 208.478 174.437, 208.451 174.443, 206.146 171.205 C 205.051 169.668, 202.915 165.280, 201.399 161.455 C 197.348 151.234, 191.829 142.909, 193.308 149.250 M 224.629 148.476 C 224.925 149.246, 223.934 149.963, 222.055 150.339 C 220.375 150.675, 219.006 151.299, 219.012 151.725 C 219.049 154.003, 234.857 161, 239.968 161 C 241.610 161, 242 160.351, 242 157.619 C 242 154.418, 241.746 154.174, 237.250 153.052 C 234.637 152.400, 230.621 150.822, 228.324 149.545 C 225.981 148.243, 224.360 147.773, 224.629 148.476 M 291.751 150.656 C 290.434 152.770, 288.117 157.630, 286.601 161.455 C 285.085 165.280, 282.949 169.668, 281.854 171.205 C 280.759 172.742, 280.232 173.993, 280.682 173.985 C 283.099 173.942, 294.542 170.777, 297.300 169.390 C 301.343 167.356, 307.730 161.329, 309.582 157.800 C 311.656 153.850, 311.345 153.532, 308.088 156.272 C 306.487 157.620, 301.874 160.586, 297.838 162.863 C 293.802 165.141, 289.375 167.787, 288 168.743 C 285.818 170.261, 285.897 170.020, 288.626 166.848 C 290.903 164.199, 292.216 161.127, 293.462 155.526 C 294.403 151.298, 294.941 147.608, 294.658 147.325 C 294.376 147.042, 293.067 148.541, 291.751 150.656 M 413.844 152.394 C 400.634 157.112, 390.903 169.353, 393.963 177.402 C 397.723 187.292, 417.549 185.495, 428.570 174.265 C 434.408 168.316, 436.604 160.866, 433.970 155.945 C 431.504 151.337, 421.663 149.601, 413.844 152.394 M 213.010 155.490 C 210.727 157.920, 210.715 158.027, 212.519 160.021 C 216.984 164.954, 231.390 171, 238.682 171 C 241.794 171, 242 170.787, 242 167.571 C 242 164.199, 241.904 164.122, 236.250 162.971 C 229.960 161.690, 221.679 157.950, 218.436 154.925 C 215.833 152.498, 215.818 152.500, 213.010 155.490 M 268.422 155.299 C 266.730 156.510, 263.871 159.188, 262.069 161.250 C 258.743 165.057, 256.291 165.891, 254.296 163.896 C 253.605 163.205, 251.658 163.051, 249.096 163.484 C 245.199 164.142, 245 164.349, 245 167.730 L 245 171.285 251.250 170.649 C 257.836 169.979, 268.842 165.233, 274.500 160.622 L 277.500 158.177 275.076 155.589 C 272.191 152.509, 272.316 152.514, 268.422 155.299 M 470 168.914 L 470 185 476 185 L 482 185 482 181.627 C 482 178.316, 482.090 178.246, 486.943 177.779 C 493.129 177.185, 496.739 174.869, 498.664 170.261 C 500.618 165.584, 499.689 160.804, 496.031 156.706 L 493.169 153.500 481.584 153.164 L 470 152.828 470 168.914 M 501.002 163.750 C 501.003 172.013, 501.408 175.290, 502.752 177.915 C 505.104 182.509, 510.112 185, 517 185 C 523.888 185, 528.896 182.509, 531.248 177.915 C 532.592 175.290, 532.997 172.013, 532.998 163.750 L 533 153 527.035 153 L 521.070 153 520.785 163.144 C 520.550 171.519, 520.195 173.479, 518.750 174.389 C 517.476 175.190, 516.524 175.190, 515.250 174.389 C 513.805 173.479, 513.450 171.519, 513.215 163.144 L 512.930 153 506.965 153 L 501 153 501.002 163.750 M 535 169 L 535 185 547.500 185 L 560 185 560 180.500 L 560 176 553.500 176 L 547 176 547 164.500 L 547 153 541 153 L 535 153 535 169 M 566.357 153.992 C 560.759 156.251, 559.058 165.295, 563.463 169.378 C 564.818 170.634, 567.743 172.206, 569.963 172.871 C 573.970 174.071, 575.149 175.623, 572.750 176.541 C 572.063 176.804, 569.115 176.400, 566.201 175.643 L 560.901 174.267 561.201 178.825 C 561.482 183.107, 561.712 183.437, 565 184.288 C 566.925 184.787, 571.324 185.016, 574.776 184.798 C 582.985 184.280, 586.500 181.217, 586.500 174.582 C 586.500 169.190, 584.233 166.420, 578.436 164.730 C 571.179 162.614, 574.794 160.316, 582.250 162.305 C 584.945 163.023, 585 162.949, 585 158.636 C 585 154.916, 584.651 154.140, 582.750 153.630 C 579.470 152.751, 568.851 152.985, 566.357 153.992 M 588.440 154.296 C 588.166 155.009, 588.068 162.096, 588.221 170.046 L 588.500 184.500 601.250 184.780 L 614 185.060 614 180.530 L 614 176 607 176 C 601.444 176, 600 175.690, 600 174.500 C 600 173.332, 601.340 173, 606.057 173 L 612.115 173 611.807 168.750 L 611.500 164.500 605.750 164.200 C 597.590 163.774, 598.598 162, 607 162 L 614 162 614 157.500 L 614 153 601.469 153 C 592.129 153, 588.811 153.330, 588.440 154.296 M 245 157.531 C 245 160.594, 245.302 161, 247.583 161 C 249.294 161, 249.970 160.578, 249.584 159.750 C 249.263 159.063, 248.732 157.744, 248.402 156.819 C 248.073 155.895, 247.172 154.896, 246.401 154.601 C 245.366 154.203, 245 154.967, 245 157.531 M 415.994 157.882 C 406.509 160.966, 400 168.047, 400 175.279 C 400 182.177, 406.808 184.555, 416.332 180.983 C 433.104 174.691, 438.012 158.402, 423.436 157.404 C 420.721 157.218, 417.372 157.433, 415.994 157.882 M 203 161.449 C 203 163.072, 208.490 171.688, 210.890 173.832 L 213.500 176.164 205.500 175.524 C 200.311 175.108, 195.831 174.079, 192.750 172.594 C 187.356 169.995, 186.764 170.470, 190.750 174.199 C 197.649 180.654, 205.977 182.246, 218.218 179.450 L 226.296 177.605 222.044 175.799 C 219.705 174.806, 214.464 171.015, 210.396 167.374 C 206.328 163.734, 203 161.067, 203 161.449 M 278 167.186 C 274.425 170.474, 269.313 174.167, 266.641 175.394 L 261.781 177.623 269.821 179.459 C 282.020 182.245, 290.359 180.646, 297.250 174.199 C 301.032 170.660, 300.698 169.656, 296.552 172.102 C 294.656 173.221, 290.043 174.543, 286.302 175.040 C 282.561 175.537, 277.700 176.196, 275.500 176.504 L 271.500 177.065 275 175.166 C 277.195 173.974, 279.745 171.137, 281.840 167.556 C 283.676 164.415, 285.026 161.702, 284.840 161.527 C 284.653 161.351, 281.575 163.898, 278 167.186 M 482 165.500 C 482 167.470, 482.507 168, 484.393 168 C 486.853 168, 488.038 166.454, 487.269 164.250 C 487.030 163.563, 485.746 163, 484.417 163 C 482.506 163, 482 163.523, 482 165.500 M 417.625 165.469 C 412.706 167.222, 407 172.696, 407 175.661 C 407 181.319, 416.162 180.559, 423.057 174.330 C 427.418 170.389, 428.212 166.719, 425.066 165.035 C 422.669 163.752, 422.396 163.768, 417.625 165.469 M 415.750 173.115 C 412.596 175.468, 412.131 178, 414.852 178 C 417.040 178, 423.168 174.043, 423.756 172.250 C 424.423 170.220, 418.819 170.825, 415.750 173.115 M 223.538 180.576 C 213.344 184.080, 207.294 184.770, 202.315 182.998 L 199.500 181.995 202.500 184.495 C 209.508 190.336, 217.251 190.301, 227.668 184.382 C 234.980 180.227, 239 178.670, 239 179.991 C 239 180.442, 237.088 181.955, 234.750 183.354 C 232.412 184.753, 229.163 186.992, 227.529 188.330 C 224.961 190.434, 224.741 190.983, 225.902 192.382 C 227.103 193.830, 227.912 193.376, 233.569 188.084 C 237.047 184.831, 240.794 181.883, 241.896 181.533 C 244.575 180.683, 249.259 183.227, 255.135 188.723 C 258.446 191.820, 260.481 193.029, 261.636 192.586 C 263.090 192.028, 262.924 191.529, 260.409 188.894 C 258.809 187.219, 255.363 184.644, 252.751 183.174 C 250.139 181.703, 248.002 180.194, 248.001 179.820 C 247.999 178.661, 253.160 180.634, 261.304 184.906 C 266.890 187.836, 270.300 188.994, 273.304 188.978 C 277.907 188.954, 284.704 186.278, 286.899 183.627 C 288.179 182.080, 288.067 182.024, 285.584 182.968 C 280.666 184.838, 274.049 184.081, 263.356 180.428 C 253.838 177.175, 252.469 176.948, 248.069 177.892 C 244.896 178.572, 242.082 178.597, 239.875 177.964 C 235.242 176.635, 234.793 176.707, 223.538 180.576" stroke="none" fill="#070a0d" fill-rule="evenodd"/><path d="M 0 131.501 L 0 263.003 395.250 262.751 L 790.500 262.500 790.754 131.250 L 791.007 0 395.504 0 L 0 0 0 131.501 M 0.485 132 C 0.485 204.325, 0.604 233.913, 0.750 197.750 C 0.895 161.588, 0.895 102.413, 0.750 66.250 C 0.604 30.088, 0.485 59.675, 0.485 132 M 233.059 72.492 C 215.374 76.501, 201.511 88.644, 195.401 105.476 C 188.499 124.491, 193.131 144.376, 207.885 159.061 C 228.066 179.150, 259.752 179.088, 279.920 158.920 C 299.169 139.671, 300.111 109.097, 282.077 88.874 C 269.777 75.080, 250.323 68.578, 233.059 72.492 M 388.500 71.976 C 379.598 73.919, 372.314 78.559, 369.438 84.119 C 368.173 86.566, 367.346 87, 363.942 87 C 352.227 87, 341.049 97.698, 336.035 113.708 C 326.776 143.274, 341.878 177.693, 364.224 177.956 C 367.295 177.992, 368.210 178.506, 369.438 180.881 C 371.380 184.636, 376.377 188.805, 382 191.363 C 388.104 194.139, 402.781 194.053, 411.728 191.190 C 421.117 188.185, 430.606 182.432, 437.416 175.615 C 444.795 168.229, 448.487 162.166, 450.580 153.994 C 452.344 147.109, 451.879 142.148, 448.929 136.360 C 447.020 132.616, 447.021 132.588, 449.230 128.052 C 451.941 122.484, 452.118 114.598, 449.691 107.500 C 447.622 101.451, 440.910 92.283, 434.909 87.310 C 430.924 84.008, 431.044 84.226, 436.153 89.578 C 443.854 97.645, 447.361 104.700, 447.835 113.078 C 448.130 118.308, 447.775 120.522, 446.118 123.769 C 444.969 126.021, 443.685 128.034, 443.264 128.242 C 442.844 128.450, 441.047 127.867, 439.270 126.947 L 436.041 125.273 438.123 123.389 C 441.425 120.401, 443.113 116.260, 443.153 111.047 C 443.259 97.396, 427.854 81.619, 410.408 77.511 C 395.812 74.074, 384.346 78.208, 380.993 88.117 L 379.487 92.571 376.375 90.474 L 373.263 88.377 375.128 84.742 C 382.479 70.414, 406.949 69.261, 427.500 82.274 L 430.500 84.173 428 81.941 C 420.302 75.067, 398.981 69.688, 388.500 71.976 M 232.500 75.405 C 225.892 77.038, 219.488 80.021, 214.143 83.958 L 209.786 87.167 212.503 90.003 L 215.220 92.839 219.860 89.510 C 224.752 86.001, 235.199 82, 239.468 82 C 241.755 82, 242 81.613, 242 78 C 242 73.424, 241.296 73.232, 232.500 75.405 M 245.190 77.625 C 245.496 81.207, 245.582 81.272, 252.500 83.144 C 262.228 85.777, 268.494 86.609, 267.591 85.147 C 267.201 84.516, 267.407 84, 268.048 84 C 268.689 84, 268.993 84.575, 268.724 85.278 C 268.454 85.980, 269.218 87.790, 270.422 89.299 L 272.610 92.044 274.856 89.654 L 277.101 87.263 273.801 84.472 C 269.315 80.679, 259.639 76.259, 253.109 75.021 C 244.949 73.473, 244.837 73.510, 245.190 77.625 M 200.407 78.963 C 198.157 79.965, 195.303 82.070, 194.067 83.642 C 191.458 86.958, 188.729 93.063, 189.508 93.841 C 190.250 94.584, 198.215 86.622, 201.994 81.358 C 203.716 78.961, 204.984 77.032, 204.812 77.071 C 204.640 77.109, 202.658 77.961, 200.407 78.963 M 286.031 81.394 C 289.891 86.768, 297.760 94.574, 298.536 93.798 C 299.418 92.915, 295.184 84.517, 292.700 82.223 C 291.490 81.106, 288.796 79.490, 286.714 78.632 L 282.927 77.072 286.031 81.394 M 248.029 78.961 C 247.220 79.473, 246.836 80.170, 247.177 80.510 C 248.122 81.455, 255.060 79.906, 254.432 78.890 C 253.716 77.731, 249.907 77.773, 248.029 78.961 M 394 79.784 C 388.402 82.854, 385.708 87.573, 386.352 93.182 C 387.077 99.498, 389.882 104.590, 395.669 110.097 C 402.048 116.168, 406.333 118.614, 414.049 120.591 C 433.304 125.524, 445.320 114.068, 437.452 98.279 C 431.945 87.228, 418.568 78.955, 405.077 78.257 C 398.974 77.941, 396.819 78.238, 394 79.784 M 470 91.050 C 470 104.261, 471.154 107.259, 477.316 110.057 C 484.715 113.416, 494.190 111.939, 498.559 106.747 C 500.848 104.027, 501 103.105, 501 91.923 L 501 80 495 80 L 489 80 489 90.433 C 489 100.068, 488.844 100.915, 486.952 101.515 C 482.971 102.779, 482 100.497, 482 89.878 L 482 80 476 80 L 470 80 470 91.050 M 504 96.050 L 504 112.100 509.750 111.800 L 515.500 111.500 515.801 105.709 L 516.102 99.919 520.549 105.959 C 524.844 111.794, 525.149 112, 529.498 112 L 534 112 534 96 L 534 80 528 80 L 522 80 522 85.750 L 522 91.500 517.921 85.750 C 513.900 80.082, 513.772 80, 508.921 80 L 504 80 504 96.050 M 398.225 82.933 C 392.660 86.447, 392.052 91.040, 396.083 99.095 C 402.767 112.449, 427.164 119.310, 433.512 109.621 C 437.145 104.077, 434.678 96.593, 426.917 89.616 C 420.484 83.831, 416.286 81.980, 408.221 81.372 C 402.587 80.947, 400.970 81.199, 398.225 82.933 M 187.941 85.703 C 183.549 89.398, 182 93.660, 182 102.044 L 182 109.151 189.075 102.863 C 192.967 99.404, 196.792 95.040, 197.575 93.165 C 199.499 88.563, 199.420 88.452, 196.250 91.307 C 194.738 92.669, 191.606 95.442, 189.292 97.470 L 185.084 101.157 187.114 93.828 C 188.231 89.798, 189.857 85.713, 190.727 84.750 C 193.105 82.121, 191.576 82.644, 187.941 85.703 M 297.178 84.604 C 298.101 85.647, 299.769 89.798, 300.886 93.828 L 302.916 101.157 298.708 97.470 C 296.394 95.442, 293.262 92.669, 291.750 91.307 C 288.580 88.452, 288.501 88.563, 290.425 93.165 C 291.208 95.040, 295.033 99.404, 298.925 102.863 L 306 109.151 306 102.141 C 306 92.371, 303.475 86.910, 297.500 83.763 C 295.600 82.762, 295.584 82.804, 297.178 84.604 M 402.108 84.637 C 400.062 86.070, 399.831 86.884, 400.245 91.193 C 400.615 95.052, 401.448 96.882, 404.109 99.679 C 411.310 107.252, 423.765 110.333, 429.365 105.927 C 435.618 101.009, 429.994 90.107, 418.500 84.867 C 413.441 82.561, 405.236 82.446, 402.108 84.637 M 231.079 86.643 C 226.276 88.324, 219.580 92.252, 218.479 94.034 C 218.100 94.647, 218.768 96.189, 219.963 97.460 L 222.135 99.773 227.687 96.430 C 230.740 94.591, 235.210 92.791, 237.619 92.430 C 241.802 91.803, 242 91.620, 242 88.386 C 242 85.223, 241.786 85.003, 238.750 85.048 C 236.963 85.074, 233.511 85.792, 231.079 86.643 M 245 88.368 C 245 91.512, 245.254 91.771, 248.794 92.246 C 250.881 92.525, 254.529 93.692, 256.901 94.838 L 261.213 96.921 260.655 94.711 C 260.177 92.817, 260.508 92.955, 262.962 95.669 C 265.775 98.780, 267 98.982, 267 96.333 C 267 95.600, 266.331 95, 265.513 95 C 264.696 95, 263.393 93.483, 262.619 91.630 C 261.501 88.955, 260.224 87.923, 256.427 86.630 C 253.796 85.733, 250.149 85, 248.322 85 C 245.217 85, 245 85.220, 245 88.368 M 409.159 86.137 C 404.126 87.999, 408.174 95.361, 416.246 99.025 C 421.166 101.259, 424.103 101.497, 425.800 99.800 C 427.893 97.707, 427.105 94.469, 423.766 91.437 C 421.913 89.755, 421.348 89.471, 422.442 90.774 C 425.007 93.826, 423.427 95.493, 419.415 93.968 C 413.777 91.824, 411.018 87.569, 414.750 86.774 C 416.010 86.505, 415.774 86.252, 413.909 85.869 C 412.484 85.577, 410.347 85.698, 409.159 86.137 M 204.992 93.143 C 200.542 99.249, 198.229 104.024, 196.495 110.680 C 194.064 120.013, 194.304 121, 199 121 C 202.729 121, 203 120.807, 203 118.157 C 203 113.668, 206.648 104.229, 210.402 99.003 L 213.839 94.220 211.003 91.503 L 208.167 88.786 204.992 93.143 M 276.086 92.408 L 273.788 94.855 276.280 98.177 C 280.112 103.288, 282.652 108.937, 283.955 115.250 C 285.121 120.901, 285.201 121, 288.571 121 C 291.803 121, 292 120.805, 292 117.605 C 292 112.077, 288.317 101.794, 284.273 96.028 C 282.198 93.071, 280.024 90.496, 279.442 90.306 C 278.861 90.117, 277.350 91.063, 276.086 92.408 M 353.245 93.586 C 344.914 97.229, 337.342 109.139, 335.126 122.082 C 333.637 130.785, 333.728 136.052, 335.514 144.483 C 339.212 161.944, 349.510 172.919, 362.250 172.978 L 367 173 367 169 C 367 164.640, 366.759 164.491, 362.245 166.064 C 357.675 167.657, 351.994 165.731, 347.016 160.900 C 342.899 156.904, 337.930 147.641, 338.070 144.221 C 338.109 143.275, 338.739 144.125, 339.470 146.110 C 341.993 152.965, 345.323 156.954, 350.771 159.649 C 355.939 162.204, 356.127 162.223, 360.351 160.610 C 372.994 155.782, 378.882 136.892, 373.430 118.653 C 371.895 113.521, 366.758 107.061, 362.616 105.056 C 357.287 102.476, 355.696 102.485, 350.250 105.121 C 344.810 107.755, 341.168 113.068, 338.769 121.869 C 337.031 128.250, 336.985 128.312, 337.554 123.500 C 338.809 112.883, 345.757 102.404, 353.503 99.446 C 357.607 97.878, 359.496 97.905, 365.250 99.615 C 366.715 100.050, 367 99.472, 367 96.067 L 367 92 361.750 92.082 C 358.863 92.126, 355.035 92.804, 353.245 93.586 M 177.956 97.591 C 174.623 104.476, 174.410 109.557, 177.078 118.545 C 178.996 125.004, 179.569 126.023, 180.445 124.530 C 181.025 123.539, 183.439 119.846, 185.809 116.322 C 188.179 112.798, 190.786 108.022, 191.601 105.708 L 193.084 101.500 187.965 106.500 C 185.150 109.250, 182.221 112.850, 181.457 114.500 C 180.193 117.227, 180.087 116.384, 180.283 105.249 C 180.403 98.510, 180.428 92.998, 180.339 92.999 C 180.251 92.999, 179.178 95.066, 177.956 97.591 M 307.717 105.380 C 307.914 116.404, 307.807 117.229, 306.543 114.500 C 305.779 112.850, 302.850 109.250, 300.035 106.500 L 294.916 101.500 296.399 105.708 C 297.214 108.022, 299.907 112.874, 302.384 116.491 C 304.860 120.107, 307.201 124.058, 307.585 125.269 C 308.136 127.004, 308.785 125.788, 310.642 119.541 C 313.383 110.325, 313.552 106.816, 311.532 101.090 C 308.196 91.635, 307.485 92.434, 307.717 105.380 M 237.734 95.088 C 233.351 96.121, 226.436 99.486, 225.463 101.060 C 225.093 101.658, 225.782 103.203, 226.994 104.493 L 229.197 106.839 233.748 104.419 C 236.250 103.089, 239.131 102, 240.149 102 C 241.642 102, 242 101.226, 242 98 C 242 95.800, 241.887 94.045, 241.750 94.100 C 241.613 94.156, 239.806 94.600, 237.734 95.088 M 245 98.129 C 245 101.214, 245.372 102, 246.831 102 C 247.837 102, 250.745 103.055, 253.292 104.345 L 257.924 106.689 260.426 104.077 L 262.929 101.465 258.603 98.728 C 256.223 97.223, 252.189 95.601, 249.638 95.125 L 245 94.258 245 98.129 M 373.387 99.187 C 374.549 104.993, 378.622 112.433, 383.413 117.500 L 388.141 122.500 387.558 119.063 C 386.694 113.967, 382.425 105.224, 378.406 100.320 C 374.155 95.132, 372.502 94.759, 373.387 99.187 M 213.135 99.556 C 209.869 103.707, 206.964 110.464, 206.103 115.911 L 205.299 121 209.149 121 C 212.678 121, 213.002 120.770, 213.022 118.250 C 213.046 115.191, 215.912 108.336, 218.950 104.070 L 220.933 101.286 218.652 99.143 C 215.778 96.443, 215.572 96.458, 213.135 99.556 M 267.746 100.587 C 266.905 101.429, 269.193 105, 270.574 105 C 271.175 105, 271.728 105.563, 271.803 106.250 C 272.127 109.218, 273.891 117.646, 274.524 119.250 C 274.992 120.437, 276.305 121, 278.607 121 C 282.576 121, 282.802 119.971, 280.484 112.432 C 279.289 108.545, 277.970 106.759, 274.257 104 C 268.653 99.836, 268.551 99.783, 267.746 100.587 M 221.243 105.250 C 219.367 107.592, 216.290 114.492, 215.669 117.750 C 215.188 120.273, 215.393 121, 216.584 121 C 217.428 121, 217.865 120.591, 217.556 120.090 C 216.531 118.433, 218.023 116.393, 223.082 112.535 L 228.085 108.720 225.868 106.360 C 223.338 103.666, 222.646 103.500, 221.243 105.250 M 261.183 107.311 L 257.997 110.599 261.561 110.183 C 264.543 109.835, 265.217 110.115, 265.684 111.899 C 266.012 113.152, 266.914 113.922, 267.871 113.766 C 268.990 113.583, 269.475 114.204, 269.421 115.750 C 269.377 116.987, 269.700 118, 270.139 118 C 270.578 118, 270.678 118.675, 270.362 119.500 C 270.045 120.325, 270.284 121, 270.893 121 C 271.502 121, 272 120.587, 272 120.082 C 272 119.577, 272.267 118.339, 272.594 117.332 C 273.089 115.808, 273.007 115.752, 272.110 117 C 271.251 118.193, 271.027 117.828, 271.015 115.219 C 271.006 113.235, 270.407 111.710, 269.500 111.362 C 268.675 111.045, 268 110.004, 268 109.048 C 268 108.092, 267.183 106.571, 266.185 105.667 C 264.482 104.126, 264.171 104.228, 261.183 107.311 M 234.750 106.572 C 231.329 108.428, 231.300 109.287, 234.601 111.054 C 236.902 112.286, 237.346 112.248, 238.461 110.723 C 239.154 109.775, 240.233 109, 240.860 109 C 241.487 109, 242 108.100, 242 107 C 242 104.562, 238.803 104.373, 234.750 106.572 M 245 107.500 C 245 110.163, 246.816 110.784, 248.800 108.800 C 249.733 107.867, 250 107.967, 250 109.250 C 250 110.158, 249.276 111.306, 248.391 111.801 C 246.939 112.614, 246.954 112.768, 248.546 113.379 C 250.252 114.034, 255 110.703, 255 108.851 C 255 107.689, 249.449 105, 247.050 105 C 245.530 105, 245 105.646, 245 107.500 M 347.607 112.095 C 344.161 114.805, 341.195 120.682, 340.509 126.158 L 339.966 130.500 341.340 125.704 C 344.176 115.806, 351.349 112.195, 356.983 117.829 C 365.888 126.735, 361.837 150, 351.381 150 C 347.665 150, 342.981 145.065, 341.383 139.466 L 339.966 134.500 340.509 138.842 C 341.202 144.375, 344.168 150.199, 347.722 153.003 C 349.881 154.706, 351.424 155.092, 354.644 154.732 C 368.264 153.211, 372.938 125.559, 361.606 113.544 C 358.862 110.634, 357.549 110, 354.267 110 C 351.724 110, 349.301 110.762, 347.607 112.095 M 172.757 114 C 172.356 115.375, 172.025 119.200, 172.022 122.500 C 172.016 128.644, 173.119 131.242, 179.937 141.157 L 182.374 144.701 185.066 134.101 C 188.145 121.974, 189.310 116, 188.594 116 C 187.547 116, 181 128.800, 181 130.846 C 181 132.031, 180.658 133, 180.241 133 C 179.151 133, 174.593 120.232, 173.994 115.500 C 173.539 111.910, 173.412 111.756, 172.757 114 M 314.070 114.900 C 313.994 118.594, 308.970 132.972, 307.750 132.989 C 307.337 132.995, 307 132.031, 307 130.846 C 307 128.838, 300.462 116, 299.439 116 C 298.615 116, 300.236 124.297, 302.648 132.426 C 303.942 136.786, 305 141.471, 305 142.839 C 305 144.982, 305.533 144.578, 308.859 139.913 C 315.003 131.296, 316.007 128.723, 315.930 121.800 C 315.852 114.862, 314.198 108.724, 314.070 114.900 M 239.635 118.073 C 238.186 119.212, 237 120.818, 237 121.640 C 237 122.648, 236.388 122.940, 235.118 122.538 C 233.931 122.161, 233.020 122.505, 232.650 123.470 C 231.958 125.273, 232.086 125.298, 235.435 124.025 C 238.299 122.936, 238.460 123.180, 236.944 126.316 C 235.893 128.487, 235.898 128.487, 237.854 126.250 C 240.069 123.716, 243 123.256, 243 125.443 C 243 126.237, 242.006 127.583, 240.791 128.434 C 239.141 129.589, 238.869 130.269, 239.718 131.118 C 241.224 132.624, 246 131.380, 246 129.481 C 246 128.666, 246.734 128, 247.632 128 C 250.100 128, 248.798 120.065, 245.952 117.760 C 243.205 115.536, 242.837 115.554, 239.635 118.073 M 479.655 117.459 C 471.989 120.192, 468.322 126.293, 469.273 134.733 C 469.899 140.282, 472.453 143.916, 477.479 146.411 C 482.016 148.663, 490.759 148.994, 496.250 147.123 L 500 145.845 500 137.422 L 500 129 492.500 129 L 485 129 485 132.500 C 485 135.567, 485.310 136, 487.500 136 C 488.875 136, 490 136.450, 490 137 C 490 137.550, 488.415 138, 486.479 138 C 483.721 138, 482.717 137.473, 481.852 135.574 C 480.246 132.051, 481.570 128.117, 484.778 126.878 C 486.333 126.277, 489.964 126.100, 493.250 126.463 L 499 127.099 499 122.525 C 499 118.535, 498.672 117.826, 496.435 116.975 C 492.804 115.595, 484.187 115.843, 479.655 117.459 M 502.667 116.667 C 502.300 117.033, 502 124.233, 502 132.667 L 502 148 514.500 148 L 527 148 527 143.500 L 527 139 520.500 139 L 514 139 514 127.500 L 514 116 508.667 116 C 505.733 116, 503.033 116.300, 502.667 116.667 M 535.316 117.943 C 532.904 119.039, 530.526 121.041, 529.700 122.671 C 526.053 129.871, 526.864 139.161, 531.567 144.070 C 536.605 149.329, 548.682 150.059, 555.604 145.524 C 559.446 143.007, 561.275 137.656, 560.807 130.303 C 560.472 125.048, 559.939 123.546, 557.511 121.011 C 552.550 115.833, 542.901 114.500, 535.316 117.943 M 563 131.956 L 563 148.163 575.398 147.832 C 585.851 147.552, 588.123 147.204, 589.879 145.613 C 592.856 142.914, 593.636 137.619, 591.529 134.404 C 590.123 132.258, 590.035 131.331, 591.011 128.974 C 591.675 127.369, 591.892 124.783, 591.507 123.032 C 590.388 117.936, 587.238 116.676, 574.386 116.184 L 563 115.748 563 131.956 M 603.085 118.250 C 595.875 136.995, 592 147.251, 592 147.587 C 592 147.814, 594.723 148, 598.052 148 C 603.877 148, 604.143 147.888, 605.150 145 C 606.057 142.399, 606.686 142, 609.879 142 C 613.052 142, 613.718 142.415, 614.694 145 C 615.781 147.881, 616.068 148, 621.913 148 C 625.261 148, 628 147.830, 628 147.622 C 628 147.414, 627.386 145.727, 626.637 143.872 C 625.887 142.017, 623.149 134.988, 620.553 128.250 L 615.832 116 609.891 116 C 604.654 116, 603.848 116.266, 603.085 118.250 M 629 131.950 L 629 148 641.500 148 L 654 148 654 143.500 L 654 139 647.533 139 L 641.066 139 640.783 127.750 L 640.500 116.500 634.750 116.200 L 629 115.900 629 131.950 M 394.419 122.250 C 395.454 128.779, 396.756 129.574, 403.011 127.496 L 408.223 125.765 402.863 122.834 C 399.915 121.222, 397.075 119.475, 396.551 118.951 C 394.534 116.934, 393.764 118.124, 394.419 122.250 M 220.882 120.750 C 220.816 121.162, 220.827 121.869, 220.905 122.321 C 220.983 122.772, 220.035 123.961, 218.797 124.963 C 216.851 126.539, 216.707 127.104, 217.732 129.143 C 219.518 132.697, 221.204 140.026, 220.598 141.605 C 219.687 143.978, 221.469 143.151, 224.593 139.750 L 227.578 136.500 224.875 131.244 C 223.388 128.353, 221.969 126.553, 221.722 127.244 C 221.476 127.935, 220.966 128.216, 220.589 127.869 C 220.213 127.522, 220.601 126.542, 221.452 125.690 C 223.175 123.967, 223.557 120, 222 120 C 221.450 120, 220.947 120.338, 220.882 120.750 M 345.486 123.015 C 341.555 127.359, 343.003 141.913, 347.538 143.653 C 351.775 145.279, 355.934 135.181, 353.994 127.977 C 352.191 121.283, 348.829 119.322, 345.486 123.015 M 195 125.951 C 195 133.295, 200.175 146.489, 205.571 152.902 L 208.263 156.101 210.632 153.876 C 211.934 152.653, 213 151.312, 213 150.897 C 213 149.462, 204.956 142.660, 200.824 140.599 C 199.174 139.777, 198.500 138.580, 198.500 136.470 C 198.500 134.837, 198.950 133.493, 199.500 133.485 C 200.050 133.476, 201.024 133.136, 201.665 132.728 C 202.305 132.321, 203.098 132.553, 203.426 133.244 C 203.754 133.935, 203.798 133.375, 203.525 132 C 203.251 130.625, 203.021 128.262, 203.014 126.750 C 203.001 124.211, 202.694 124, 199 124 C 195.700 124, 195 124.342, 195 125.951 M 205.829 128 C 206.186 131.743, 208 133.814, 208 130.479 C 208 129.642, 209.125 128.445, 210.500 127.818 C 214.341 126.068, 213.650 124, 209.224 124 L 205.447 124 205.829 128 M 269 124.878 C 269 125.360, 269.675 126.315, 270.500 127 C 271.753 128.040, 272 127.896, 272 126.122 C 272 124.902, 271.362 124, 270.500 124 C 269.675 124, 269 124.395, 269 124.878 M 274.842 125.750 C 274.754 126.713, 274.749 128.287, 274.830 129.250 C 274.910 130.213, 274.581 131, 274.097 131 C 273.613 131, 272.925 132.161, 272.569 133.581 C 272.213 135, 270.771 137.899, 269.366 140.023 C 266.777 143.936, 266.853 146.377, 269.532 145.349 C 270.447 144.998, 271 145.391, 271 146.393 C 271 148.866, 272.645 148.307, 274.969 145.044 C 278.115 140.625, 280.749 134.086, 281.531 128.750 L 282.227 124 278.614 124 C 275.899 124, 274.961 124.435, 274.842 125.750 M 284.472 128.250 C 283.444 134.464, 280.757 141.040, 277.034 146.450 L 273.758 151.212 276.441 153.856 L 279.125 156.500 281.596 153.500 C 286.203 147.907, 290.976 136.868, 291.649 130.250 L 292.285 124 288.730 124 C 285.326 124, 285.146 124.179, 284.472 128.250 M 381.300 132.496 L 381.300 140.853 385.150 137.759 C 390.040 133.830, 390.036 131.389, 385.132 127.319 L 381.300 124.139 381.300 132.496 M 574 127 C 574 129.145, 577.263 129.753, 579.878 128.096 C 581.955 126.781, 580.266 125, 576.941 125 C 574.667 125, 574 125.453, 574 127 M 344.463 128.291 C 343.455 132.309, 344.321 137.500, 346 137.500 C 347.149 137.500, 347.500 136.231, 347.500 132.083 C 347.500 126.344, 345.560 123.921, 344.463 128.291 M 541.061 127.426 C 540.410 128.210, 540.018 130.798, 540.189 133.176 C 540.485 137.290, 540.665 137.516, 543.895 137.824 C 545.937 138.019, 547.625 137.621, 548.130 136.824 C 549.386 134.844, 549.171 128.571, 547.800 127.200 C 546.165 125.565, 542.504 125.688, 541.061 127.426 M 226 127.514 C 226 128.884, 229.129 134, 229.967 134 C 231.642 134, 232.189 131.933, 230.918 130.402 C 229.490 128.681, 226 126.632, 226 127.514 M 418.500 129.455 C 417.950 129.685, 414.800 130.413, 411.500 131.072 L 405.500 132.271 409.500 133.746 C 415.106 135.812, 430.617 135.876, 434.392 133.849 L 437.285 132.295 433.892 131.109 C 430.276 129.845, 420.166 128.759, 418.500 129.455 M 609.032 129.668 C 609.014 130.311, 608.727 131.548, 608.393 132.418 C 607.958 133.552, 608.383 134, 609.893 134 C 611.052 134, 612 133.636, 612 133.191 C 612 131.874, 609.067 128.392, 609.032 129.668 M 262.965 133.319 C 259.489 135.520, 259.250 136.009, 262 135.290 C 264.325 134.682, 264.685 136.846, 262.836 140.316 C 261.825 142.214, 261.870 142.337, 263.178 141.259 C 264.006 140.576, 264.919 140.252, 265.207 140.540 C 265.830 141.164, 268.673 136.991, 269.997 133.508 C 270.854 131.254, 270.711 131.046, 268.435 131.235 C 267.057 131.349, 264.595 132.287, 262.965 133.319 M 299.265 134.500 C 298.644 136.700, 297.646 142.655, 297.049 147.733 C 296.452 152.812, 295.533 158.099, 295.006 159.483 C 294.480 160.868, 294.376 161.982, 294.775 161.959 C 295.174 161.937, 298.861 159.575, 302.969 156.709 C 309.059 152.462, 310.940 150.485, 313.159 146 C 316.130 139.997, 318.106 131.927, 315.766 135.355 C 313.361 138.880, 309.455 143.700, 304.892 148.775 L 300.313 153.868 301.301 150.167 C 301.940 147.773, 301.955 143.648, 301.342 138.483 L 300.396 130.500 299.265 134.500 M 186.505 140.247 C 186.073 145.529, 186.231 149.540, 186.944 151.390 C 187.856 153.759, 187.199 153.325, 183.293 148.981 C 178.563 143.720, 174.664 138.916, 172.234 135.355 C 171.136 133.747, 171.052 133.966, 171.606 137 C 173.270 146.128, 179.716 154.195, 189.833 159.814 L 193.999 162.127 193.124 159.814 C 192.642 158.541, 191.949 155.025, 191.584 152 C 190.227 140.777, 188.797 132.993, 188 132.500 C 187.549 132.221, 186.876 135.707, 186.505 140.247 M 233.990 134.510 L 231.811 136.830 234.156 138.311 C 238.679 141.168, 240.546 141.216, 241.993 138.513 C 242.732 137.133, 243.148 135.890, 242.918 135.752 C 237.120 132.265, 236.218 132.139, 233.990 134.510 M 396.216 137.250 C 395.650 137.938, 394.858 140.713, 394.455 143.417 L 393.723 148.334 397.099 145.917 C 398.955 144.588, 402.280 142.676, 404.487 141.668 L 408.500 139.836 403.500 137.919 C 397.582 135.650, 397.537 135.646, 396.216 137.250 M 439.163 138.269 L 435.826 140.286 438.319 142.393 C 441.852 145.379, 443.110 148.370, 443.152 153.886 C 443.210 161.342, 439.827 167.874, 431.986 175.443 C 422.631 184.475, 411.958 189.013, 400.114 188.994 C 390.692 188.980, 382.750 183.834, 380.780 176.468 L 379.643 172.216 376.438 174.317 C 373.578 176.191, 373.344 176.691, 374.262 178.959 C 375.996 183.242, 382.860 188.881, 388.309 190.499 C 412.561 197.701, 448 174.579, 448 151.553 C 448 146.003, 446.495 141.033, 443.857 137.876 C 442.612 136.387, 442.225 136.419, 439.163 138.269 M 574 138 C 574 139.797, 574.504 140.078, 577.250 139.813 C 579.333 139.613, 580.500 138.961, 580.500 138 C 580.500 137.039, 579.333 136.387, 577.250 136.187 C 574.504 135.922, 574 136.203, 574 138 M 252.639 138.694 C 252.258 139.076, 250.225 139.286, 248.122 139.162 C 245.589 139.013, 243.841 139.487, 242.945 140.567 C 241.751 142.005, 241.880 142.159, 244.046 141.879 C 245.396 141.705, 247.066 141.914, 247.757 142.344 C 248.849 143.024, 255 139.702, 255 138.432 C 255 137.751, 253.405 137.928, 252.639 138.694 M 226.969 141.533 C 224.922 143.712, 224.778 144.256, 226.026 145.089 C 229.083 147.130, 233.481 149.278, 236.201 150.058 C 238.906 150.833, 238.961 150.782, 237.557 148.778 C 236.519 147.297, 236.378 146.162, 237.070 144.868 C 237.889 143.339, 237.439 142.769, 234.273 141.326 C 232.198 140.380, 230.249 139.461, 229.942 139.284 C 229.636 139.106, 228.297 140.119, 226.969 141.533 M 414 144.372 C 399.377 148.633, 387.692 160.169, 386.372 171.648 C 385.910 175.670, 386.215 177.081, 388.157 179.898 C 391.957 185.411, 396.250 187.167, 405 186.791 C 430.662 185.689, 450.994 156.812, 433.653 146.095 C 429.346 143.433, 420.026 142.616, 414 144.372 M 382.491 149.211 C 377.686 154.545, 374.862 159.799, 373.523 165.896 L 372.795 169.212 375.721 167.048 C 377.330 165.858, 380.040 162.548, 381.742 159.692 C 384.806 154.551, 388.443 145.110, 387.661 144.328 C 387.438 144.105, 385.111 146.302, 382.491 149.211 M 264 146.950 C 264 147.473, 264.766 148.329, 265.703 148.854 C 267.055 149.611, 267.160 150.102, 266.211 151.245 C 264.704 153.062, 265.861 154.360, 267.658 152.869 C 269.500 151.340, 269.340 149.617, 267.171 147.655 C 265.112 145.791, 264 145.544, 264 146.950 M 193.308 149.250 C 193.597 150.488, 194.358 154.115, 195 157.310 C 195.793 161.260, 197.181 164.299, 199.333 166.801 C 202.065 169.977, 202.157 170.244, 200 168.743 C 198.625 167.787, 194.198 165.141, 190.162 162.863 C 186.126 160.586, 181.513 157.620, 179.912 156.272 C 174.780 151.954, 177.161 157.117, 183.401 163.838 C 187.335 168.075, 192.276 170.617, 200.219 172.489 C 208.478 174.437, 208.451 174.443, 206.146 171.205 C 205.051 169.668, 202.915 165.280, 201.399 161.455 C 197.348 151.234, 191.829 142.909, 193.308 149.250 M 224.629 148.476 C 224.925 149.246, 223.934 149.963, 222.055 150.339 C 220.375 150.675, 219.006 151.299, 219.012 151.725 C 219.049 154.003, 234.857 161, 239.968 161 C 241.610 161, 242 160.351, 242 157.619 C 242 154.418, 241.746 154.174, 237.250 153.052 C 234.637 152.400, 230.621 150.822, 228.324 149.545 C 225.981 148.243, 224.360 147.773, 224.629 148.476 M 291.751 150.656 C 290.434 152.770, 288.117 157.630, 286.601 161.455 C 285.085 165.280, 282.949 169.668, 281.854 171.205 C 280.759 172.742, 280.232 173.993, 280.682 173.985 C 283.099 173.942, 294.542 170.777, 297.300 169.390 C 301.343 167.356, 307.730 161.329, 309.582 157.800 C 311.656 153.850, 311.345 153.532, 308.088 156.272 C 306.487 157.620, 301.874 160.586, 297.838 162.863 C 293.802 165.141, 289.375 167.787, 288 168.743 C 285.818 170.261, 285.897 170.020, 288.626 166.848 C 290.903 164.199, 292.216 161.127, 293.462 155.526 C 294.403 151.298, 294.941 147.608, 294.658 147.325 C 294.376 147.042, 293.067 148.541, 291.751 150.656 M 413.844 152.394 C 400.634 157.112, 390.903 169.353, 393.963 177.402 C 397.723 187.292, 417.549 185.495, 428.570 174.265 C 434.408 168.316, 436.604 160.866, 433.970 155.945 C 431.504 151.337, 421.663 149.601, 413.844 152.394 M 213.010 155.490 C 210.727 157.920, 210.715 158.027, 212.519 160.021 C 216.984 164.954, 231.390 171, 238.682 171 C 241.794 171, 242 170.787, 242 167.571 C 242 164.199, 241.904 164.122, 236.250 162.971 C 229.960 161.690, 221.679 157.950, 218.436 154.925 C 215.833 152.498, 215.818 152.500, 213.010 155.490 M 268.422 155.299 C 266.730 156.510, 263.871 159.188, 262.069 161.250 C 258.743 165.057, 256.291 165.891, 254.296 163.896 C 253.605 163.205, 251.658 163.051, 249.096 163.484 C 245.199 164.142, 245 164.349, 245 167.730 L 245 171.285 251.250 170.649 C 257.836 169.979, 268.842 165.233, 274.500 160.622 L 277.500 158.177 275.076 155.589 C 272.191 152.509, 272.316 152.514, 268.422 155.299 M 470 168.914 L 470 185 476 185 L 482 185 482 181.627 C 482 178.316, 482.090 178.246, 486.943 177.779 C 493.129 177.185, 496.739 174.869, 498.664 170.261 C 500.618 165.584, 499.689 160.804, 496.031 156.706 L 493.169 153.500 481.584 153.164 L 470 152.828 470 168.914 M 501.002 163.750 C 501.003 172.013, 501.408 175.290, 502.752 177.915 C 505.104 182.509, 510.112 185, 517 185 C 523.888 185, 528.896 182.509, 531.248 177.915 C 532.592 175.290, 532.997 172.013, 532.998 163.750 L 533 153 527.035 153 L 521.070 153 520.785 163.144 C 520.550 171.519, 520.195 173.479, 518.750 174.389 C 517.476 175.190, 516.524 175.190, 515.250 174.389 C 513.805 173.479, 513.450 171.519, 513.215 163.144 L 512.930 153 506.965 153 L 501 153 501.002 163.750 M 535 169 L 535 185 547.500 185 L 560 185 560 180.500 L 560 176 553.500 176 L 547 176 547 164.500 L 547 153 541 153 L 535 153 535 169 M 566.357 153.992 C 560.759 156.251, 559.058 165.295, 563.463 169.378 C 564.818 170.634, 567.743 172.206, 569.963 172.871 C 573.970 174.071, 575.149 175.623, 572.750 176.541 C 572.063 176.804, 569.115 176.400, 566.201 175.643 L 560.901 174.267 561.201 178.825 C 561.482 183.107, 561.712 183.437, 565 184.288 C 566.925 184.787, 571.324 185.016, 574.776 184.798 C 582.985 184.280, 586.500 181.217, 586.500 174.582 C 586.500 169.190, 584.233 166.420, 578.436 164.730 C 571.179 162.614, 574.794 160.316, 582.250 162.305 C 584.945 163.023, 585 162.949, 585 158.636 C 585 154.916, 584.651 154.140, 582.750 153.630 C 579.470 152.751, 568.851 152.985, 566.357 153.992 M 588.440 154.296 C 588.166 155.009, 588.068 162.096, 588.221 170.046 L 588.500 184.500 601.250 184.780 L 614 185.060 614 180.530 L 614 176 607 176 C 601.444 176, 600 175.690, 600 174.500 C 600 173.332, 601.340 173, 606.057 173 L 612.115 173 611.807 168.750 L 611.500 164.500 605.750 164.200 C 597.590 163.774, 598.598 162, 607 162 L 614 162 614 157.500 L 614 153 601.469 153 C 592.129 153, 588.811 153.330, 588.440 154.296 M 245 157.531 C 245 160.594, 245.302 161, 247.583 161 C 249.294 161, 249.970 160.578, 249.584 159.750 C 249.263 159.063, 248.732 157.744, 248.402 156.819 C 248.073 155.895, 247.172 154.896, 246.401 154.601 C 245.366 154.203, 245 154.967, 245 157.531 M 415.994 157.882 C 406.509 160.966, 400 168.047, 400 175.279 C 400 182.177, 406.808 184.555, 416.332 180.983 C 433.104 174.691, 438.012 158.402, 423.436 157.404 C 420.721 157.218, 417.372 157.433, 415.994 157.882 M 203 161.449 C 203 163.072, 208.490 171.688, 210.890 173.832 L 213.500 176.164 205.500 175.524 C 200.311 175.108, 195.831 174.079, 192.750 172.594 C 187.356 169.995, 186.764 170.470, 190.750 174.199 C 197.649 180.654, 205.977 182.246, 218.218 179.450 L 226.296 177.605 222.044 175.799 C 219.705 174.806, 214.464 171.015, 210.396 167.374 C 206.328 163.734, 203 161.067, 203 161.449 M 278 167.186 C 274.425 170.474, 269.313 174.167, 266.641 175.394 L 261.781 177.623 269.821 179.459 C 282.020 182.245, 290.359 180.646, 297.250 174.199 C 301.032 170.660, 300.698 169.656, 296.552 172.102 C 294.656 173.221, 290.043 174.543, 286.302 175.040 C 282.561 175.537, 277.700 176.196, 275.500 176.504 L 271.500 177.065 275 175.166 C 277.195 173.974, 279.745 171.137, 281.840 167.556 C 283.676 164.415, 285.026 161.702, 284.840 161.527 C 284.653 161.351, 281.575 163.898, 278 167.186 M 482 165.500 C 482 167.470, 482.507 168, 484.393 168 C 486.853 168, 488.038 166.454, 487.269 164.250 C 487.030 163.563, 485.746 163, 484.417 163 C 482.506 163, 482 163.523, 482 165.500 M 417.625 165.469 C 412.706 167.222, 407 172.696, 407 175.661 C 407 181.319, 416.162 180.559, 423.057 174.330 C 427.418 170.389, 428.212 166.719, 425.066 165.035 C 422.669 163.752, 422.396 163.768, 417.625 165.469 M 415.750 173.115 C 412.596 175.468, 412.131 178, 414.852 178 C 417.040 178, 423.168 174.043, 423.756 172.250 C 424.423 170.220, 418.819 170.825, 415.750 173.115 M 223.538 180.576 C 213.344 184.080, 207.294 184.770, 202.315 182.998 L 199.500 181.995 202.500 184.495 C 209.508 190.336, 217.251 190.301, 227.668 184.382 C 234.980 180.227, 239 178.670, 239 179.991 C 239 180.442, 237.088 181.955, 234.750 183.354 C 232.412 184.753, 229.163 186.992, 227.529 188.330 C 224.961 190.434, 224.741 190.983, 225.902 192.382 C 227.103 193.830, 227.912 193.376, 233.569 188.084 C 237.047 184.831, 240.794 181.883, 241.896 181.533 C 244.575 180.683, 249.259 183.227, 255.135 188.723 C 258.446 191.820, 260.481 193.029, 261.636 192.586 C 263.090 192.028, 262.924 191.529, 260.409 188.894 C 258.809 187.219, 255.363 184.644, 252.751 183.174 C 250.139 181.703, 248.002 180.194, 248.001 179.820 C 247.999 178.661, 253.160 180.634, 261.304 184.906 C 266.890 187.836, 270.300 188.994, 273.304 188.978 C 277.907 188.954, 284.704 186.278, 286.899 183.627 C 288.179 182.080, 288.067 182.024, 285.584 182.968 C 280.666 184.838, 274.049 184.081, 263.356 180.428 C 253.838 177.175, 252.469 176.948, 248.069 177.892 C 244.896 178.572, 242.082 178.597, 239.875 177.964 C 235.242 176.635, 234.793 176.707, 223.538 180.576" stroke="none" fill="#6babfa" fill-rule="evenodd"/></svg>