<?xml version="1.0" standalone="no"?>
<!DOCTYPE svg PUBLIC "-//W3C//DTD SVG 1.0//EN" "http://www.w3.org/TR/2001/REC-SVG-20010904/DTD/svg10.dtd">

<svg xmlns="http://www.w3.org/2000/svg" width="100" height="70" viewBox="0 0 565 227" version="1.1"><path d="M 371.250 48.728 C 373.313 48.944, 376.688 48.944, 378.750 48.728 C 380.813 48.513, 379.125 48.336, 375 48.336 C 370.875 48.336, 369.188 48.513, 371.250 48.728 M 212.487 51.743 C 214.680 51.966, 216.810 52.678, 217.222 53.324 C 217.716 54.102, 217.975 53.907, 217.985 52.750 C 217.997 51.303, 217.176 51.029, 213.250 51.168 C 208.545 51.335, 208.538 51.340, 212.487 51.743 M 227.481 51.714 C 230.220 51.942, 232.842 52.662, 233.307 53.314 C 233.894 54.138, 234.029 54.042, 233.748 53 C 233.456 51.918, 231.833 51.472, 227.921 51.400 L 222.500 51.300 227.481 51.714 M 291 115.500 L 291 180 295.500 180 L 300 180 300 115.500 L 300 51 295.500 51 L 291 51 291 115.500 M 305.750 51.706 C 306.988 51.944, 309.012 51.944, 310.250 51.706 C 311.488 51.467, 310.475 51.272, 308 51.272 C 305.525 51.272, 304.512 51.467, 305.750 51.706 M 69.242 115.750 L 69 180 73.750 179.825 L 78.500 179.651 74.257 179.268 L 70.015 178.886 69.750 115.193 L 69.485 51.500 69.242 115.750 M 141.767 107.596 C 141.620 138.174, 141.831 163.712, 142.235 164.346 C 142.639 164.981, 142.976 139.963, 142.985 108.750 C 142.993 77.537, 142.782 52, 142.517 52 C 142.251 52, 141.913 77.018, 141.767 107.596 M 292 115.500 L 292 179 295.500 179 L 299 179 299 115.500 L 299 52 295.500 52 L 292 52 292 115.500 M 511.272 57 C 511.272 59.475, 511.467 60.487, 511.706 59.250 C 511.944 58.013, 511.944 55.987, 511.706 54.750 C 511.467 53.513, 511.272 54.525, 511.272 57 M 345.437 59.250 L 342.500 62.500 345.750 59.563 C 347.538 57.948, 349 56.485, 349 56.313 C 349 55.540, 348.175 56.221, 345.437 59.250 M 403 57.313 C 403 57.485, 404.462 58.948, 406.250 60.563 L 409.500 63.500 406.563 60.250 C 403.825 57.221, 403 56.540, 403 57.313 M 388.083 58.373 C 389.112 59.294, 395 61.999, 395 61.551 C 395 60.975, 389.456 58, 388.383 58 C 387.989 58, 387.854 58.168, 388.083 58.373 M 370.250 60.689 C 371.212 60.941, 372.788 60.941, 373.750 60.689 C 374.712 60.438, 373.925 60.232, 372 60.232 C 370.075 60.232, 369.288 60.438, 370.250 60.689 M 350.616 65.003 C 348.627 67.204, 347 69.319, 347 69.703 C 347 70.086, 347.339 69.973, 347.753 69.450 C 348.167 68.927, 350.055 66.813, 351.949 64.750 C 353.843 62.688, 355.131 61, 354.813 61 C 354.494 61, 352.605 62.801, 350.616 65.003 M 471.242 120.250 L 471 180 475.500 180 L 480 180 479.758 120.250 L 479.516 60.500 479.250 119.750 L 478.984 179 475.500 179 L 472.016 179 471.750 119.750 L 471.484 60.500 471.242 120.250 M 398.895 65.285 C 400.603 67.366, 402 69.504, 402 70.035 C 402 70.566, 404.475 71, 407.500 71 C 411.622 71, 413 70.639, 413 69.559 C 413 68.766, 412.555 67.843, 412.011 67.507 C 411.445 67.157, 411.277 67.558, 411.618 68.448 C 412.099 69.700, 411.397 70, 407.993 70 C 404.320 70, 403.254 69.448, 399.780 65.750 C 396.343 62.089, 396.220 62.025, 398.895 65.285 M 355.437 67.250 L 352.500 70.500 355.750 67.563 C 358.779 64.825, 359.460 64, 358.687 64 C 358.515 64, 357.052 65.463, 355.437 67.250 M 361.924 71.750 L 359.500 74.500 362.500 72 C 364.150 70.625, 365.688 69.388, 365.917 69.250 C 366.146 69.112, 365.887 69, 365.341 69 C 364.795 69, 363.258 70.237, 361.924 71.750 M 337.310 80.500 C 337.315 83.800, 337.502 85.029, 337.725 83.232 C 337.947 81.435, 337.943 78.735, 337.715 77.232 C 337.486 75.729, 337.304 77.200, 337.310 80.500 M 350.252 79.500 C 350.263 81.700, 350.468 82.482, 350.707 81.238 C 350.946 79.994, 350.937 78.194, 350.687 77.238 C 350.437 76.282, 350.241 77.300, 350.252 79.500 M 360.786 88.500 C 361.353 89.600, 363.095 91.623, 364.658 92.996 L 367.500 95.493 364.508 91.996 C 359.766 86.456, 359.701 86.395, 360.786 88.500 M 357.500 96 C 359.648 98.200, 361.631 100, 361.906 100 C 362.181 100, 360.648 98.200, 358.500 96 C 356.352 93.800, 354.369 92, 354.094 92 C 353.819 92, 355.352 93.800, 357.500 96 M 376 100.475 C 376 100.750, 379.150 102.561, 383 104.500 C 386.850 106.439, 390 107.800, 390 107.525 C 390 107.250, 386.850 105.439, 383 103.500 C 379.150 101.561, 376 100.200, 376 100.475 M 395 110.311 C 395 110.544, 396.913 111.996, 399.250 113.537 C 401.587 115.079, 402.972 115.701, 402.327 114.920 C 401.086 113.418, 395 109.589, 395 110.311 M 375 112.449 C 375 112.724, 376.350 113.647, 378 114.500 C 379.650 115.353, 381 115.826, 381 115.551 C 381 115.276, 379.650 114.353, 378 113.500 C 376.350 112.647, 375 112.174, 375 112.449 M 364 114.459 C 364 114.734, 365.800 115.878, 368 117 C 370.200 118.122, 372 118.816, 372 118.541 C 372 118.266, 370.200 117.122, 368 116 C 365.800 114.878, 364 114.184, 364 114.459 M 399.465 129 C 402.159 132.025, 404.568 134.725, 404.817 135 C 405.067 135.275, 404.796 134.600, 404.215 133.500 C 403.634 132.400, 401.225 129.700, 398.863 127.500 C 394.628 123.557, 394.636 123.578, 399.465 129 M 390.958 131.250 C 395.102 135.665, 396 136.459, 396 135.708 C 396 135.548, 393.863 133.410, 391.250 130.958 L 386.500 126.500 390.958 131.250 M 215.750 131.747 C 222.488 131.920, 233.512 131.920, 240.250 131.747 C 246.988 131.574, 241.475 131.432, 228 131.432 C 214.525 131.432, 209.012 131.574, 215.750 131.747 M 214.250 138.748 C 221.813 138.917, 234.188 138.917, 241.750 138.748 C 249.313 138.578, 243.125 138.439, 228 138.439 C 212.875 138.439, 206.688 138.578, 214.250 138.748 M 412.300 146 C 412.300 149.025, 412.487 150.262, 412.716 148.750 C 412.945 147.238, 412.945 144.762, 412.716 143.250 C 412.487 141.738, 412.300 142.975, 412.300 146 M 420.272 147 C 420.272 149.475, 420.467 150.488, 420.706 149.250 C 420.944 148.012, 420.944 145.988, 420.706 144.750 C 420.467 143.512, 420.272 144.525, 420.272 147 M 398 151.799 C 398 152.421, 396.554 154.634, 394.787 156.715 C 391.907 160.108, 391.864 160.241, 394.379 158 C 397.543 155.180, 399.449 152.116, 398.581 151.248 C 398.261 150.928, 398 151.176, 398 151.799 M 339.910 163.832 C 340.450 164.840, 341.676 166.302, 342.637 167.082 C 343.717 167.960, 343.475 167.261, 342.003 165.250 C 339.377 161.662, 338.392 160.995, 339.910 163.832 M 377.168 166.750 C 377.017 170.571, 377.227 170.988, 379.250 170.884 C 380.852 170.801, 381.012 170.639, 379.807 170.322 C 378.705 170.031, 377.978 168.587, 377.725 166.188 L 377.336 162.500 377.168 166.750 M 411.564 169.783 C 408.039 174.008, 407.969 174.187, 410.900 171.500 C 413.676 168.954, 416.720 164.925, 415.785 165.033 C 415.628 165.051, 413.729 167.188, 411.564 169.783 M 173 177.934 C 173 178.822, 171.654 179.094, 168.500 178.843 C 166.025 178.647, 164 178.826, 164 179.243 C 164 180.419, 172.799 180.134, 173.541 178.933 C 173.904 178.347, 173.930 177.597, 173.600 177.267 C 173.270 176.937, 173 177.237, 173 177.934 M 187 177.833 C 187 178.534, 185.103 179.070, 182.250 179.175 L 177.500 179.349 181.886 179.739 C 186.050 180.109, 189.160 178.827, 187.683 177.350 C 187.308 176.974, 187 177.192, 187 177.833 M 58.750 179.706 C 59.987 179.944, 62.013 179.944, 63.250 179.706 C 64.487 179.467, 63.475 179.272, 61 179.272 C 58.525 179.272, 57.513 179.467, 58.750 179.706 M 143.250 179.716 C 144.762 179.945, 147.238 179.945, 148.750 179.716 C 150.262 179.487, 149.025 179.300, 146 179.300 C 142.975 179.300, 141.738 179.487, 143.250 179.716 M 271.264 179.718 C 272.784 179.947, 275.034 179.941, 276.264 179.704 C 277.494 179.467, 276.250 179.279, 273.500 179.286 C 270.750 179.294, 269.744 179.488, 271.264 179.718 M 305.750 179.706 C 306.988 179.944, 309.012 179.944, 310.250 179.706 C 311.488 179.467, 310.475 179.272, 308 179.272 C 305.525 179.272, 304.512 179.467, 305.750 179.706 M 460.750 179.706 C 461.988 179.944, 464.012 179.944, 465.250 179.706 C 466.488 179.467, 465.475 179.272, 463 179.272 C 460.525 179.272, 459.512 179.467, 460.750 179.706" stroke="none" fill="#b7b7b7" fill-rule="evenodd"/><path d="M 360.870 50.504 C 350.987 53.677, 341.294 62.679, 339.046 70.775 C 337.664 75.749, 337.723 85.890, 339.159 90.101 C 342.568 100.104, 350.151 106.630, 371.678 118.089 C 393.769 129.848, 401.546 139.176, 398.939 150.786 C 397.456 157.392, 389.135 162.977, 380.750 162.994 C 378.255 162.999, 378 163.337, 378 166.640 L 378 170.280 383.503 169.712 C 394.995 168.526, 403.467 162.392, 405.896 153.500 C 408.373 144.432, 406.587 136.982, 400.246 129.928 C 395.733 124.909, 388.972 120.396, 371.240 110.565 C 359.567 104.093, 350.095 95.893, 347.067 89.639 C 344.574 84.489, 344.351 76.489, 346.553 71.218 C 348.637 66.229, 352.467 62.362, 358.500 59.157 C 363.039 56.745, 364.515 56.500, 374.500 56.500 C 384.534 56.500, 386.003 56.747, 391.224 59.311 C 394.373 60.857, 398.466 63.894, 400.320 66.061 C 403.241 69.473, 404.248 70, 407.846 70 C 410.131 70, 412 69.618, 412 69.150 C 412 67.529, 406.120 60.193, 402.776 57.643 C 400.928 56.233, 396.735 53.850, 393.458 52.348 C 388.323 49.994, 385.981 49.575, 376.500 49.317 C 368.789 49.108, 364.116 49.463, 360.870 50.504 M 57 115.500 L 57 179 61 179 L 65 179 65 115.500 L 65 52 61 52 L 57 52 57 115.500 M 70 115.445 L 70 179 73.992 179 L 77.983 179 78.242 123.335 L 78.500 67.671 110 123.327 L 141.500 178.983 146.250 178.992 L 151 179 151 115.500 L 151 52 147.008 52 L 143.017 52 142.758 108.510 L 142.500 165.019 110.824 108.760 L 79.147 52.500 74.574 52.195 L 70 51.890 70 115.445 M 187.583 114.254 C 175.528 148.489, 165.468 177.063, 165.226 177.750 C 164.480 179.871, 172.639 179.376, 173.468 177.250 C 175.305 172.538, 217 53.179, 217 52.632 C 217 52.284, 215.313 52.002, 213.250 52.004 L 209.500 52.007 187.583 114.254 M 201.337 115.251 L 179.173 178.500 182.735 178.819 C 184.694 178.995, 186.603 178.642, 186.978 178.035 C 187.353 177.429, 190.715 168.173, 194.448 157.466 L 201.236 138 228.014 138 L 254.792 138 258.964 149.750 C 261.258 156.213, 264.512 165.438, 266.193 170.250 L 269.251 179 273.083 179 L 276.916 179 269.555 157.750 C 265.507 146.063, 255.626 117.631, 247.597 94.568 C 239.569 71.506, 233 52.493, 233 52.318 C 233 52.143, 230.863 52, 228.250 52.001 L 223.500 52.002 201.337 115.251 M 292 115.500 L 292 179 295.500 179 L 299 179 299 115.500 L 299 52 295.500 52 L 292 52 292 115.500 M 304 115.500 L 304 179 308 179 L 312 179 312 115.500 L 312 52 308 52 L 304 52 304 115.500 M 426.390 54.427 C 426.088 55.212, 425.990 56.900, 426.171 58.177 C 426.498 60.486, 426.601 60.502, 442.750 60.775 L 459 61.050 459 120.025 L 459 179 463 179 L 467 179 467 120 L 467 61 469.500 61 L 472 61 472 120 L 472 179 475.500 179 L 479 179 479 120 L 479 61 495 61 L 511 61 511 57 L 511 53 468.969 53 C 433.482 53, 426.852 53.222, 426.390 54.427 M 363.637 62.465 C 355.812 65.255, 351 72.124, 351 80.508 C 351 91.106, 359.683 99.787, 381 110.502 C 395.766 117.924, 405.947 126.241, 410.326 134.460 C 412.014 137.628, 412.478 140.226, 412.477 146.501 C 412.475 153.569, 412.117 155.142, 409.403 160.001 C 403.600 170.391, 392.320 175.559, 377.098 174.803 C 365.842 174.243, 357.765 170.757, 351.450 163.733 C 349.002 161.011, 347 158.382, 347 157.892 C 347 157.401, 344.945 157, 342.433 157 C 338.155 157, 337.910 157.143, 338.567 159.250 C 342.060 170.450, 359.043 180.494, 376.473 181.670 C 400.849 183.315, 418.448 170.278, 419.776 149.593 C 420.988 130.704, 412.242 119.697, 384.545 105.255 C 377.420 101.540, 369.387 96.766, 366.693 94.646 C 354.422 84.990, 356.018 70.952, 369.750 67.751 C 374.521 66.638, 375 66.275, 375 63.763 C 375 61.229, 374.689 61.004, 371.250 61.044 C 369.188 61.068, 365.762 61.707, 363.637 62.465 M 215.733 96.756 C 209.261 115.315, 203.974 130.838, 203.983 131.250 C 203.992 131.662, 214.831 132, 228.070 132 C 250.734 132, 252.120 131.895, 251.820 130.193 C 251.278 127.129, 228.552 63, 228.010 63.006 C 227.729 63.009, 222.205 78.196, 215.733 96.756" stroke="none" fill="#0a0a0a" fill-rule="evenodd"/></svg>