<?xml version="1.0" standalone="no"?>
<!DOCTYPE svg PUBLIC "-//W3C//DTD SVG 1.0//EN" "http://www.w3.org/TR/2001/REC-SVG-20010904/DTD/svg10.dtd">

<svg xmlns="http://www.w3.org/2000/svg" width="1200" height="630" viewBox="0 0 1200 630" version="1.1"><path d="M 0 315.001 L 0 630.002 600.250 629.751 L 1200.500 629.500 1200.752 314.750 L 1201.003 0 600.502 0 L 0 0 0 315.001 M -0 315.250 L -0 629.500 599.500 629.248 L 1199 628.997 1199 314.998 L 1199 1 599.500 1 L 0 1 -0 315.250 M 462.500 269.430 C 444.648 272.961, 434.463 279.520, 429.111 290.933 C 426.921 295.603, 426.507 297.869, 426.543 305 C 426.595 315.384, 428.743 320.795, 435.487 327.539 C 444.686 336.738, 459.212 341, 481.370 341 C 505.003 341, 519.709 336.475, 528.954 326.360 C 534.911 319.843, 537 314.053, 536.999 304.072 C 536.998 287.667, 527.167 276.453, 508 270.988 C 498.235 268.205, 473.053 267.342, 462.500 269.430 M 300 275.439 L 300 279.877 304.750 280.489 C 312.941 281.544, 312.468 280.122, 312.770 304.607 C 313.071 328.937, 313.054 329, 306.391 329 C 300.891 329, 300 329.784, 300 334.623 L 300 339.032 327.250 338.766 L 354.500 338.500 354.819 334.602 C 355.197 329.988, 354.104 329.037, 348.405 329.015 C 342.497 328.993, 341 326.902, 341 318.671 L 341 312 362.113 312 L 383.226 312 382.831 318.982 C 382.614 322.822, 381.953 326.447, 381.361 327.039 C 380.769 327.631, 377.746 328.377, 374.642 328.697 L 369 329.280 369 334.140 L 369 339 396.555 339 L 424.110 339 423.805 334.250 L 423.500 329.500 418.049 328.835 C 414.568 328.410, 412.127 327.527, 411.299 326.394 C 410.335 325.076, 410 319.395, 410 304.380 C 410 282.514, 410.353 281, 415.446 281 C 416.713 281, 419.156 280.719, 420.875 280.375 C 423.804 279.789, 424 279.475, 424 275.375 L 424 271 396.500 271 L 369 271 369 275.386 L 369 279.773 374.723 280.636 C 381.601 281.674, 382.963 283.588, 382.985 292.250 L 383 298 362 298 L 341 298 341 291.071 C 341 283.493, 342.348 281, 346.446 281 C 347.713 281, 350.156 280.719, 351.875 280.375 C 354.804 279.789, 355 279.475, 355 275.375 L 355 271 327.500 271 L 300 271 300 275.439 M 540 275.439 L 540 279.877 544.750 280.513 C 547.362 280.863, 550.069 281.329, 550.765 281.549 C 553.481 282.407, 554.111 287.639, 553.807 306.798 C 553.525 324.617, 553.345 326.278, 551.559 327.582 C 550.491 328.362, 548.166 329, 546.391 329 C 540.896 329, 540 329.786, 540 334.607 L 540 339 562 339 L 584 339 584 334.607 C 584 329.752, 583.118 329, 577.418 329 C 575.333 329, 573.220 328.220, 572 327 C 570.147 325.147, 570 323.667, 570 306.800 C 570 296.790, 570.378 289.028, 570.839 289.550 C 571.301 290.072, 579.457 300.850, 588.964 313.500 C 598.472 326.150, 606.955 337.063, 607.816 337.750 C 608.941 338.647, 614.546 339, 627.691 339 L 646 339 646 312.223 C 646 283.209, 646.384 281, 651.432 281 C 652.707 281, 655.156 280.719, 656.875 280.375 C 659.804 279.789, 660 279.475, 660 275.375 L 660 271 638 271 L 616 271 616 275.428 L 616 279.856 621.557 280.550 C 629.886 281.591, 630.104 282.191, 629.774 303.111 L 629.500 320.500 610.710 295.750 L 591.919 271 565.960 271 L 540 271 540 275.439 M 665 275.406 L 665 279.812 670.026 280.504 C 678.119 281.617, 678 281.252, 678 305 C 678 327.803, 677.713 328.985, 672.179 329.014 C 666.109 329.045, 665 329.910, 665 334.617 L 665 339 702.750 338.983 C 742.753 338.964, 749.484 338.365, 758.460 334.019 C 765.103 330.803, 770.648 325.416, 773.689 319.224 C 776.138 314.237, 776.500 312.341, 776.500 304.500 C 776.500 297.397, 776.046 294.519, 774.348 290.844 C 771.755 285.236, 765.416 278.860, 759.693 276.104 C 749.822 271.352, 746.002 271, 704.290 271 L 665 271 665 275.406 M 794 275.439 L 794 279.877 798.750 280.468 C 805.808 281.345, 808.442 282.343, 808.816 284.282 C 809.229 286.427, 785.657 325.426, 782.693 327.502 C 781.517 328.326, 779.117 329, 777.359 329 C 771.898 329, 771 329.792, 771 334.607 L 771 339 793.055 339 L 815.110 339 814.805 334.250 L 814.500 329.500 810.230 328.930 C 804.028 328.102, 803.081 326.753, 805.513 322.212 L 807.502 318.500 828.524 318.231 L 849.546 317.962 851.273 320.885 C 854.533 326.404, 853.423 328.106, 846 328.974 L 841.500 329.500 841.195 334.250 L 840.890 339 870.445 339 L 900 339 900 334.140 L 900 329.280 894.333 328.695 C 890.801 328.330, 888.006 327.430, 886.916 326.305 C 885.954 325.312, 877.879 313.250, 868.972 299.500 C 860.065 285.750, 852.082 273.712, 851.233 272.750 C 849.833 271.162, 847.109 271, 821.845 271 L 794 271 794 275.439 M 476.500 281.434 C 475.950 281.655, 473.803 282.120, 471.729 282.467 C 466.782 283.295, 461.546 288.003, 459.441 293.515 C 458.159 296.873, 457.855 300.088, 458.180 306.872 C 458.540 314.401, 459.017 316.427, 461.214 319.747 C 462.648 321.914, 465.549 324.532, 467.661 325.563 C 472.353 327.856, 485.753 328.682, 491.807 327.052 C 501.752 324.374, 506.807 315.164, 505.684 301.766 C 504.559 288.346, 498.491 282.552, 484.500 281.539 C 480.650 281.261, 477.050 281.213, 476.500 281.434 M 705 304.908 L 705 326 715.364 326 C 739.575 326, 745.330 321.838, 745.249 304.386 C 745.204 294.530, 743.180 289.602, 737.902 286.500 C 735.006 284.798, 732.305 284.449, 719.750 284.158 L 705 283.817 705 304.908 M 821.646 295.599 C 818.426 300.839, 816.003 305.337, 816.261 305.595 C 816.519 305.853, 822.204 305.937, 828.894 305.782 L 841.057 305.500 834.955 295.750 C 831.599 290.387, 828.549 286.016, 828.177 286.036 C 827.805 286.056, 824.866 290.359, 821.646 295.599 M 322 366 C 322 367.810, 322.667 368, 329 368 L 336 368 336 382.570 C 336 397.107, 336.005 397.138, 338.250 396.820 C 340.448 396.507, 340.506 396.170, 340.777 382.250 L 341.055 368 347.361 368 C 354.109 368, 355.169 367.604, 354.324 365.402 C 353.894 364.281, 350.605 364, 337.893 364 C 322.667 364, 322 364.084, 322 366 M 359.441 365.294 C 359.168 366.006, 359.069 373.318, 359.222 381.544 C 359.494 396.196, 359.546 396.506, 361.750 396.820 C 363.862 397.119, 364 396.781, 364.006 391.320 C 364.017 379.680, 366.930 375, 374.166 375 C 379.717 375, 381 377.482, 381 388.223 C 381 396.918, 381.023 397, 383.500 397 C 385.991 397, 386 396.966, 386 387.516 C 386 378.450, 385.871 377.888, 383.082 374.766 C 380.460 371.831, 379.609 371.500, 374.687 371.500 C 370.874 371.500, 368.622 372.032, 367.276 373.250 C 366.213 374.212, 365.040 375, 364.671 375 C 364.302 375, 364 372.525, 364 369.500 C 364 364.638, 363.764 364, 361.969 364 C 360.851 364, 359.714 364.582, 359.441 365.294 M 434.441 365.294 C 434.168 366.006, 434.069 373.318, 434.222 381.544 L 434.500 396.500 437 396.500 C 439.368 396.500, 439.516 396.171, 439.798 390.250 L 440.095 384 447.147 384 C 455.245 384, 460.164 382.129, 461.861 378.405 C 464.384 372.869, 462.395 367.775, 456.844 365.554 C 451.854 363.558, 435.181 363.364, 434.441 365.294 M 649.073 366.635 C 647.933 368.084, 647 370.334, 647 371.635 C 647 373.491, 646.462 374, 644.500 374 C 642.667 374, 642 374.533, 642 376 C 642 377.467, 642.667 378, 644.500 378 C 646.991 378, 647 378.033, 647 387.500 C 647 396.967, 647.009 397, 649.500 397 C 651.991 397, 652 396.967, 652 387.500 L 652 378 656.500 378 C 660.333 378, 661 377.704, 661 376 C 661 374.296, 660.333 374, 656.500 374 C 652.722 374, 652 373.690, 652 372.071 C 652 369.062, 654.930 366.763, 658.161 367.237 C 660.396 367.565, 661 367.265, 661 365.827 C 661 364.305, 660.178 364, 656.073 364 C 651.940 364, 650.811 364.425, 649.073 366.635 M 679.225 380.250 L 679.500 396.500 689.648 396.448 C 701.020 396.390, 706.724 394.596, 709.626 390.167 C 713.931 383.598, 713.073 372.922, 707.891 368.562 C 703.798 365.118, 699.026 364.012, 688.225 364.006 L 678.950 364 679.225 380.250 M 440 374 L 440 380 446.566 380 C 455.275 380, 457 378.998, 457 373.940 C 457 369.102, 454.948 368, 445.935 368 L 440 368 440 374 M 685 380.372 L 685 393 690.250 392.994 C 701.864 392.982, 706.988 389.097, 706.996 380.297 C 707.004 371.454, 703.944 368.855, 692.750 368.198 L 685 367.743 685 380.372 M 399.500 371.403 C 394.671 373.534, 392.707 376.488, 392.221 382.352 C 391.663 389.076, 393.628 393.121, 398.597 395.479 C 404.918 398.478, 416.181 395.958, 417.770 391.189 C 418.356 389.431, 412.494 389.700, 411 391.500 C 410.246 392.408, 408.057 393, 405.450 393 C 401.990 393, 400.738 392.483, 399.073 390.365 C 395.198 385.440, 395.941 385, 408.131 385 L 419.262 385 418.677 381.394 C 417.869 376.419, 415.459 373.090, 411.454 371.416 C 407.278 369.672, 403.431 369.667, 399.500 371.403 M 474.035 371.247 C 466.701 373.899, 463.325 385.330, 468.088 391.385 C 472.399 396.865, 481.120 398.648, 488.510 395.560 C 497.273 391.899, 498.521 377.848, 490.547 372.623 C 487.066 370.342, 478.511 369.629, 474.035 371.247 M 553.270 371.483 C 548.831 373.412, 546.008 378.377, 546.004 384.265 C 546.001 388.298, 546.525 389.603, 549.423 392.765 C 552.704 396.345, 553.117 396.500, 559.350 396.500 C 565.828 396.500, 570.694 394.419, 571.770 391.189 C 572.331 389.506, 567.915 389.749, 565.559 391.532 C 564.491 392.339, 561.711 393, 559.381 393 C 555.996 393, 554.729 392.471, 553.073 390.365 C 549.205 385.448, 549.950 385, 562 385 L 573 385 572.996 382.250 C 572.984 373.363, 562.327 367.545, 553.270 371.483 M 590.643 371.033 C 589.071 371.501, 586.933 372.655, 585.893 373.597 C 584.091 375.227, 584 375.206, 584 373.155 C 584 371.516, 583.394 371, 581.470 371 L 578.940 371 579.220 383.750 C 579.487 395.924, 579.597 396.514, 581.645 396.806 C 583.674 397.095, 583.809 396.644, 584.145 388.469 C 584.475 380.448, 584.702 379.653, 587.306 377.413 C 588.930 376.017, 591.381 375, 593.125 375 C 595.650 375, 596.087 374.648, 595.820 372.828 C 595.439 370.241, 594.450 369.898, 590.643 371.033 M 617.500 371.412 C 607.254 375.966, 606.344 390.425, 616 395.248 C 623.284 398.887, 634.598 396.612, 637.544 390.915 C 639.967 386.230, 639.437 378.673, 636.436 375.106 C 632.441 370.359, 623.704 368.654, 617.500 371.412 M 730.643 371.033 C 729.071 371.501, 726.933 372.655, 725.893 373.597 C 724.091 375.227, 724 375.206, 724 373.155 C 724 371.516, 723.394 371, 721.470 371 L 718.940 371 719.220 383.750 C 719.487 395.924, 719.597 396.514, 721.645 396.806 C 723.674 397.095, 723.809 396.644, 724.145 388.469 C 724.475 380.448, 724.702 379.653, 727.306 377.413 C 728.930 376.017, 731.381 375, 733.125 375 C 735.650 375, 736.087 374.648, 735.820 372.828 C 735.439 370.241, 734.450 369.898, 730.643 371.033 M 747.333 370.695 C 743.872 371.370, 740.230 375.433, 739.004 379.986 C 737.561 385.345, 739.345 391.467, 743.176 394.301 C 748.870 398.512, 761.288 397.068, 764.070 391.870 C 764.941 390.242, 764.693 390, 762.158 390 C 760.556 390, 758.685 390.675, 758 391.500 C 756.586 393.204, 749.848 393.524, 747.039 392.021 C 746.033 391.483, 744.736 389.683, 744.157 388.021 L 743.104 385 754.052 385 L 765 385 765 381.950 C 765 373.452, 757.546 368.704, 747.333 370.695 M 778.021 371.116 C 775.180 372.250, 772 374.911, 772 376.155 C 772 377.587, 777.055 377.088, 778.643 375.500 C 780.841 373.302, 787.308 373.578, 789.466 375.963 C 792.362 379.162, 790.872 380.473, 783.958 380.806 C 780.496 380.973, 776.726 381.609, 775.581 382.218 C 770.299 385.031, 769.634 389.787, 773.923 394.077 C 776.256 396.410, 777.719 396.999, 781.173 396.994 C 783.553 396.990, 786.789 396.315, 788.364 395.494 C 791.914 393.642, 792 393.644, 792 395.570 C 792 396.607, 792.727 397.031, 794.143 396.820 C 796.185 396.515, 796.277 396.030, 796.086 386.500 C 795.951 379.807, 795.411 375.772, 794.452 374.300 C 792.096 370.682, 783.354 368.988, 778.021 371.116 M 811.250 371.989 C 808.598 373.606, 808 373.697, 808 372.485 C 808 371.563, 807.041 371, 805.470 371 L 802.940 371 803.220 383.750 C 803.492 396.113, 803.568 396.510, 805.750 396.820 C 807.910 397.126, 808 396.842, 808 389.719 C 808 378.494, 810.224 374, 815.779 374 C 819.649 374, 820.902 377.009, 821.210 387.034 C 821.479 395.816, 821.654 396.522, 823.625 396.803 C 825.634 397.090, 825.774 396.602, 826.190 387.911 C 826.597 379.388, 826.830 378.543, 829.371 376.358 C 832.499 373.667, 834.790 373.395, 837.519 375.390 C 839.117 376.559, 839.486 378.401, 839.829 386.944 C 840.218 396.640, 840.335 397.094, 842.368 396.804 C 844.384 396.517, 844.500 395.947, 844.500 386.328 C 844.500 376.954, 844.311 375.954, 842.090 373.593 C 837.701 368.927, 829.034 369.555, 826.117 374.750 C 825.185 376.410, 825.099 376.408, 824.446 374.713 C 823.667 372.691, 819.009 369.998, 816.300 370.004 C 815.310 370.006, 813.038 370.899, 811.250 371.989 M 857.295 371.107 C 853.859 372.101, 851 375.332, 851 378.223 C 851 381.451, 854.681 383.793, 862.489 385.530 C 870.457 387.303, 872.449 388.980, 869.768 391.661 C 867.724 393.705, 859.380 393.654, 857.092 391.583 C 854.849 389.553, 851 389.510, 851 391.515 C 851 394.138, 857.039 396.992, 862.601 396.996 C 871.783 397.003, 876 394.399, 876 388.721 C 876 385.141, 873.306 383.321, 865.315 381.504 C 857.080 379.630, 854.468 377.593, 857.479 375.392 C 860.037 373.521, 867.415 373.590, 869 375.500 C 869.685 376.325, 871.556 377, 873.158 377 C 875.800 377, 875.967 376.806, 874.955 374.915 C 872.726 370.750, 864.593 368.997, 857.295 371.107 M 499.627 374.680 C 500.011 376.231, 501.756 381.775, 503.503 387 L 506.680 396.500 510.555 396.500 L 514.430 396.500 517.586 386.500 C 519.445 380.609, 520.999 377.116, 521.369 378 C 521.713 378.825, 523.275 383.325, 524.839 388 L 527.682 396.500 531.464 396.500 L 535.247 396.500 539.104 384.500 C 541.225 377.900, 542.970 372.387, 542.981 372.250 C 542.991 372.113, 541.650 372, 540 372 C 538.277 372, 536.991 372.532, 536.980 373.250 C 536.969 373.938, 535.680 378.550, 534.116 383.500 L 531.272 392.500 528.093 382.250 L 524.914 372 520.993 372 L 517.072 372 513.822 382.250 L 510.572 392.500 507.483 382.500 C 504.626 373.252, 504.188 372.476, 501.660 372.180 C 499.120 371.883, 498.976 372.059, 499.627 374.680 M 399.455 376.455 C 395.535 380.374, 396.298 381, 405 381 C 413.726 381, 414.966 379.966, 411 376 C 408.126 373.126, 402.564 373.345, 399.455 376.455 M 473.923 376.923 C 469.695 381.151, 470.158 388.067, 474.913 391.718 C 477.725 393.877, 484.574 393.270, 487.694 390.586 C 490.076 388.537, 490.485 387.453, 490.400 383.413 C 490.319 379.551, 489.791 378.217, 487.594 376.327 C 483.579 372.874, 477.717 373.129, 473.923 376.923 M 553.455 376.455 C 549.504 380.405, 550.284 381, 559.406 381 C 567.363 381, 567.784 380.891, 567.282 378.969 C 565.926 373.785, 557.633 372.276, 553.455 376.455 M 618.097 375.750 C 613.680 379.389, 613.761 388.318, 618.239 391.455 C 621.769 393.927, 628.633 393.458, 631.545 390.545 C 634.003 388.088, 634.868 382.425, 633.379 378.545 C 631.774 374.362, 621.961 372.567, 618.097 375.750 M 746.189 376.039 C 741.994 379.947, 743.227 381, 752 381 C 760.785 381, 761.855 380.091, 757.686 376.174 C 754.678 373.348, 749.146 373.283, 746.189 376.039 M 779.389 384.980 C 776.698 386.067, 775.719 388.606, 777.039 391.072 C 777.838 392.566, 779.154 393, 782.880 393 C 788.383 393, 791 390.960, 791 386.671 C 791 384.142, 790.747 384.003, 786.250 384.063 C 783.638 384.098, 780.550 384.511, 779.389 384.980" stroke="none" fill="#a12222" fill-rule="evenodd"/><path d="M 1 315 L 1 629 600 629 L 1199 629 1199 315 L 1199 1 600 1 L 1 1 1 315 M 462.500 269.430 C 444.648 272.961, 434.463 279.520, 429.111 290.933 C 426.921 295.603, 426.507 297.869, 426.543 305 C 426.595 315.384, 428.743 320.795, 435.487 327.539 C 444.686 336.738, 459.212 341, 481.370 341 C 505.003 341, 519.709 336.475, 528.954 326.360 C 534.911 319.843, 537 314.053, 536.999 304.072 C 536.998 287.667, 527.167 276.453, 508 270.988 C 498.235 268.205, 473.053 267.342, 462.500 269.430 M 300 275.439 L 300 279.877 304.750 280.489 C 312.941 281.544, 312.468 280.122, 312.770 304.607 C 313.071 328.937, 313.054 329, 306.391 329 C 300.891 329, 300 329.784, 300 334.623 L 300 339.032 327.250 338.766 L 354.500 338.500 354.819 334.602 C 355.197 329.988, 354.104 329.037, 348.405 329.015 C 342.497 328.993, 341 326.902, 341 318.671 L 341 312 362.113 312 L 383.226 312 382.831 318.982 C 382.614 322.822, 381.953 326.447, 381.361 327.039 C 380.769 327.631, 377.746 328.377, 374.642 328.697 L 369 329.280 369 334.140 L 369 339 396.555 339 L 424.110 339 423.805 334.250 L 423.500 329.500 418.049 328.835 C 414.568 328.410, 412.127 327.527, 411.299 326.394 C 410.335 325.076, 410 319.395, 410 304.380 C 410 282.514, 410.353 281, 415.446 281 C 416.713 281, 419.156 280.719, 420.875 280.375 C 423.804 279.789, 424 279.475, 424 275.375 L 424 271 396.500 271 L 369 271 369 275.386 L 369 279.773 374.723 280.636 C 381.601 281.674, 382.963 283.588, 382.985 292.250 L 383 298 362 298 L 341 298 341 291.071 C 341 283.493, 342.348 281, 346.446 281 C 347.713 281, 350.156 280.719, 351.875 280.375 C 354.804 279.789, 355 279.475, 355 275.375 L 355 271 327.500 271 L 300 271 300 275.439 M 540 275.439 L 540 279.877 544.750 280.513 C 547.362 280.863, 550.069 281.329, 550.765 281.549 C 553.481 282.407, 554.111 287.639, 553.807 306.798 C 553.525 324.617, 553.345 326.278, 551.559 327.582 C 550.491 328.362, 548.166 329, 546.391 329 C 540.896 329, 540 329.786, 540 334.607 L 540 339 562 339 L 584 339 584 334.607 C 584 329.752, 583.118 329, 577.418 329 C 575.333 329, 573.220 328.220, 572 327 C 570.147 325.147, 570 323.667, 570 306.800 C 570 296.790, 570.378 289.028, 570.839 289.550 C 571.301 290.072, 579.457 300.850, 588.964 313.500 C 598.472 326.150, 606.955 337.063, 607.816 337.750 C 608.941 338.647, 614.546 339, 627.691 339 L 646 339 646 312.223 C 646 283.209, 646.384 281, 651.432 281 C 652.707 281, 655.156 280.719, 656.875 280.375 C 659.804 279.789, 660 279.475, 660 275.375 L 660 271 638 271 L 616 271 616 275.428 L 616 279.856 621.557 280.550 C 629.886 281.591, 630.104 282.191, 629.774 303.111 L 629.500 320.500 610.710 295.750 L 591.919 271 565.960 271 L 540 271 540 275.439 M 665 275.406 L 665 279.812 670.026 280.504 C 678.119 281.617, 678 281.252, 678 305 C 678 327.803, 677.713 328.985, 672.179 329.014 C 666.109 329.045, 665 329.910, 665 334.617 L 665 339 702.750 338.983 C 742.753 338.964, 749.484 338.365, 758.460 334.019 C 765.103 330.803, 770.648 325.416, 773.689 319.224 C 776.138 314.237, 776.500 312.341, 776.500 304.500 C 776.500 297.397, 776.046 294.519, 774.348 290.844 C 771.755 285.236, 765.416 278.860, 759.693 276.104 C 749.822 271.352, 746.002 271, 704.290 271 L 665 271 665 275.406 M 794 275.439 L 794 279.877 798.750 280.468 C 805.808 281.345, 808.442 282.343, 808.816 284.282 C 809.229 286.427, 785.657 325.426, 782.693 327.502 C 781.517 328.326, 779.117 329, 777.359 329 C 771.898 329, 771 329.792, 771 334.607 L 771 339 793.055 339 L 815.110 339 814.805 334.250 L 814.500 329.500 810.230 328.930 C 804.028 328.102, 803.081 326.753, 805.513 322.212 L 807.502 318.500 828.524 318.231 L 849.546 317.962 851.273 320.885 C 854.533 326.404, 853.423 328.106, 846 328.974 L 841.500 329.500 841.195 334.250 L 840.890 339 870.445 339 L 900 339 900 334.140 L 900 329.280 894.333 328.695 C 890.801 328.330, 888.006 327.430, 886.916 326.305 C 885.954 325.312, 877.879 313.250, 868.972 299.500 C 860.065 285.750, 852.082 273.712, 851.233 272.750 C 849.833 271.162, 847.109 271, 821.845 271 L 794 271 794 275.439 M 476.500 281.434 C 475.950 281.655, 473.803 282.120, 471.729 282.467 C 466.782 283.295, 461.546 288.003, 459.441 293.515 C 458.159 296.873, 457.855 300.088, 458.180 306.872 C 458.540 314.401, 459.017 316.427, 461.214 319.747 C 462.648 321.914, 465.549 324.532, 467.661 325.563 C 472.353 327.856, 485.753 328.682, 491.807 327.052 C 501.752 324.374, 506.807 315.164, 505.684 301.766 C 504.559 288.346, 498.491 282.552, 484.500 281.539 C 480.650 281.261, 477.050 281.213, 476.500 281.434 M 705 304.908 L 705 326 715.364 326 C 739.575 326, 745.330 321.838, 745.249 304.386 C 745.204 294.530, 743.180 289.602, 737.902 286.500 C 735.006 284.798, 732.305 284.449, 719.750 284.158 L 705 283.817 705 304.908 M 821.646 295.599 C 818.426 300.839, 816.003 305.337, 816.261 305.595 C 816.519 305.853, 822.204 305.937, 828.894 305.782 L 841.057 305.500 834.955 295.750 C 831.599 290.387, 828.549 286.016, 828.177 286.036 C 827.805 286.056, 824.866 290.359, 821.646 295.599 M 322 366 C 322 367.810, 322.667 368, 329 368 L 336 368 336 382.570 C 336 397.107, 336.005 397.138, 338.250 396.820 C 340.448 396.507, 340.506 396.170, 340.777 382.250 L 341.055 368 347.361 368 C 354.109 368, 355.169 367.604, 354.324 365.402 C 353.894 364.281, 350.605 364, 337.893 364 C 322.667 364, 322 364.084, 322 366 M 359.441 365.294 C 359.168 366.006, 359.069 373.318, 359.222 381.544 C 359.494 396.196, 359.546 396.506, 361.750 396.820 C 363.862 397.119, 364 396.781, 364.006 391.320 C 364.017 379.680, 366.930 375, 374.166 375 C 379.717 375, 381 377.482, 381 388.223 C 381 396.918, 381.023 397, 383.500 397 C 385.991 397, 386 396.966, 386 387.516 C 386 378.450, 385.871 377.888, 383.082 374.766 C 380.460 371.831, 379.609 371.500, 374.687 371.500 C 370.874 371.500, 368.622 372.032, 367.276 373.250 C 366.213 374.212, 365.040 375, 364.671 375 C 364.302 375, 364 372.525, 364 369.500 C 364 364.638, 363.764 364, 361.969 364 C 360.851 364, 359.714 364.582, 359.441 365.294 M 434.441 365.294 C 434.168 366.006, 434.069 373.318, 434.222 381.544 L 434.500 396.500 437 396.500 C 439.368 396.500, 439.516 396.171, 439.798 390.250 L 440.095 384 447.147 384 C 455.245 384, 460.164 382.129, 461.861 378.405 C 464.384 372.869, 462.395 367.775, 456.844 365.554 C 451.854 363.558, 435.181 363.364, 434.441 365.294 M 649.073 366.635 C 647.933 368.084, 647 370.334, 647 371.635 C 647 373.491, 646.462 374, 644.500 374 C 642.667 374, 642 374.533, 642 376 C 642 377.467, 642.667 378, 644.500 378 C 646.991 378, 647 378.033, 647 387.500 C 647 396.967, 647.009 397, 649.500 397 C 651.991 397, 652 396.967, 652 387.500 L 652 378 656.500 378 C 660.333 378, 661 377.704, 661 376 C 661 374.296, 660.333 374, 656.500 374 C 652.722 374, 652 373.690, 652 372.071 C 652 369.062, 654.930 366.763, 658.161 367.237 C 660.396 367.565, 661 367.265, 661 365.827 C 661 364.305, 660.178 364, 656.073 364 C 651.940 364, 650.811 364.425, 649.073 366.635 M 679.225 380.250 L 679.500 396.500 689.648 396.448 C 701.020 396.390, 706.724 394.596, 709.626 390.167 C 713.931 383.598, 713.073 372.922, 707.891 368.562 C 703.798 365.118, 699.026 364.012, 688.225 364.006 L 678.950 364 679.225 380.250 M 440 374 L 440 380 446.566 380 C 455.275 380, 457 378.998, 457 373.940 C 457 369.102, 454.948 368, 445.935 368 L 440 368 440 374 M 685 380.372 L 685 393 690.250 392.994 C 701.864 392.982, 706.988 389.097, 706.996 380.297 C 707.004 371.454, 703.944 368.855, 692.750 368.198 L 685 367.743 685 380.372 M 399.500 371.403 C 394.671 373.534, 392.707 376.488, 392.221 382.352 C 391.663 389.076, 393.628 393.121, 398.597 395.479 C 404.918 398.478, 416.181 395.958, 417.770 391.189 C 418.356 389.431, 412.494 389.700, 411 391.500 C 410.246 392.408, 408.057 393, 405.450 393 C 401.990 393, 400.738 392.483, 399.073 390.365 C 395.198 385.440, 395.941 385, 408.131 385 L 419.262 385 418.677 381.394 C 417.869 376.419, 415.459 373.090, 411.454 371.416 C 407.278 369.672, 403.431 369.667, 399.500 371.403 M 474.035 371.247 C 466.701 373.899, 463.325 385.330, 468.088 391.385 C 472.399 396.865, 481.120 398.648, 488.510 395.560 C 497.273 391.899, 498.521 377.848, 490.547 372.623 C 487.066 370.342, 478.511 369.629, 474.035 371.247 M 553.270 371.483 C 548.831 373.412, 546.008 378.377, 546.004 384.265 C 546.001 388.298, 546.525 389.603, 549.423 392.765 C 552.704 396.345, 553.117 396.500, 559.350 396.500 C 565.828 396.500, 570.694 394.419, 571.770 391.189 C 572.331 389.506, 567.915 389.749, 565.559 391.532 C 564.491 392.339, 561.711 393, 559.381 393 C 555.996 393, 554.729 392.471, 553.073 390.365 C 549.205 385.448, 549.950 385, 562 385 L 573 385 572.996 382.250 C 572.984 373.363, 562.327 367.545, 553.270 371.483 M 590.643 371.033 C 589.071 371.501, 586.933 372.655, 585.893 373.597 C 584.091 375.227, 584 375.206, 584 373.155 C 584 371.516, 583.394 371, 581.470 371 L 578.940 371 579.220 383.750 C 579.487 395.924, 579.597 396.514, 581.645 396.806 C 583.674 397.095, 583.809 396.644, 584.145 388.469 C 584.475 380.448, 584.702 379.653, 587.306 377.413 C 588.930 376.017, 591.381 375, 593.125 375 C 595.650 375, 596.087 374.648, 595.820 372.828 C 595.439 370.241, 594.450 369.898, 590.643 371.033 M 617.500 371.412 C 607.254 375.966, 606.344 390.425, 616 395.248 C 623.284 398.887, 634.598 396.612, 637.544 390.915 C 639.967 386.230, 639.437 378.673, 636.436 375.106 C 632.441 370.359, 623.704 368.654, 617.500 371.412 M 730.643 371.033 C 729.071 371.501, 726.933 372.655, 725.893 373.597 C 724.091 375.227, 724 375.206, 724 373.155 C 724 371.516, 723.394 371, 721.470 371 L 718.940 371 719.220 383.750 C 719.487 395.924, 719.597 396.514, 721.645 396.806 C 723.674 397.095, 723.809 396.644, 724.145 388.469 C 724.475 380.448, 724.702 379.653, 727.306 377.413 C 728.930 376.017, 731.381 375, 733.125 375 C 735.650 375, 736.087 374.648, 735.820 372.828 C 735.439 370.241, 734.450 369.898, 730.643 371.033 M 747.333 370.695 C 743.872 371.370, 740.230 375.433, 739.004 379.986 C 737.561 385.345, 739.345 391.467, 743.176 394.301 C 748.870 398.512, 761.288 397.068, 764.070 391.870 C 764.941 390.242, 764.693 390, 762.158 390 C 760.556 390, 758.685 390.675, 758 391.500 C 756.586 393.204, 749.848 393.524, 747.039 392.021 C 746.033 391.483, 744.736 389.683, 744.157 388.021 L 743.104 385 754.052 385 L 765 385 765 381.950 C 765 373.452, 757.546 368.704, 747.333 370.695 M 778.021 371.116 C 775.180 372.250, 772 374.911, 772 376.155 C 772 377.587, 777.055 377.088, 778.643 375.500 C 780.841 373.302, 787.308 373.578, 789.466 375.963 C 792.362 379.162, 790.872 380.473, 783.958 380.806 C 780.496 380.973, 776.726 381.609, 775.581 382.218 C 770.299 385.031, 769.634 389.787, 773.923 394.077 C 776.256 396.410, 777.719 396.999, 781.173 396.994 C 783.553 396.990, 786.789 396.315, 788.364 395.494 C 791.914 393.642, 792 393.644, 792 395.570 C 792 396.607, 792.727 397.031, 794.143 396.820 C 796.185 396.515, 796.277 396.030, 796.086 386.500 C 795.951 379.807, 795.411 375.772, 794.452 374.300 C 792.096 370.682, 783.354 368.988, 778.021 371.116 M 811.250 371.989 C 808.598 373.606, 808 373.697, 808 372.485 C 808 371.563, 807.041 371, 805.470 371 L 802.940 371 803.220 383.750 C 803.492 396.113, 803.568 396.510, 805.750 396.820 C 807.910 397.126, 808 396.842, 808 389.719 C 808 378.494, 810.224 374, 815.779 374 C 819.649 374, 820.902 377.009, 821.210 387.034 C 821.479 395.816, 821.654 396.522, 823.625 396.803 C 825.634 397.090, 825.774 396.602, 826.190 387.911 C 826.597 379.388, 826.830 378.543, 829.371 376.358 C 832.499 373.667, 834.790 373.395, 837.519 375.390 C 839.117 376.559, 839.486 378.401, 839.829 386.944 C 840.218 396.640, 840.335 397.094, 842.368 396.804 C 844.384 396.517, 844.500 395.947, 844.500 386.328 C 844.500 376.954, 844.311 375.954, 842.090 373.593 C 837.701 368.927, 829.034 369.555, 826.117 374.750 C 825.185 376.410, 825.099 376.408, 824.446 374.713 C 823.667 372.691, 819.009 369.998, 816.300 370.004 C 815.310 370.006, 813.038 370.899, 811.250 371.989 M 857.295 371.107 C 853.859 372.101, 851 375.332, 851 378.223 C 851 381.451, 854.681 383.793, 862.489 385.530 C 870.457 387.303, 872.449 388.980, 869.768 391.661 C 867.724 393.705, 859.380 393.654, 857.092 391.583 C 854.849 389.553, 851 389.510, 851 391.515 C 851 394.138, 857.039 396.992, 862.601 396.996 C 871.783 397.003, 876 394.399, 876 388.721 C 876 385.141, 873.306 383.321, 865.315 381.504 C 857.080 379.630, 854.468 377.593, 857.479 375.392 C 860.037 373.521, 867.415 373.590, 869 375.500 C 869.685 376.325, 871.556 377, 873.158 377 C 875.800 377, 875.967 376.806, 874.955 374.915 C 872.726 370.750, 864.593 368.997, 857.295 371.107 M 499.627 374.680 C 500.011 376.231, 501.756 381.775, 503.503 387 L 506.680 396.500 510.555 396.500 L 514.430 396.500 517.586 386.500 C 519.445 380.609, 520.999 377.116, 521.369 378 C 521.713 378.825, 523.275 383.325, 524.839 388 L 527.682 396.500 531.464 396.500 L 535.247 396.500 539.104 384.500 C 541.225 377.900, 542.970 372.387, 542.981 372.250 C 542.991 372.113, 541.650 372, 540 372 C 538.277 372, 536.991 372.532, 536.980 373.250 C 536.969 373.938, 535.680 378.550, 534.116 383.500 L 531.272 392.500 528.093 382.250 L 524.914 372 520.993 372 L 517.072 372 513.822 382.250 L 510.572 392.500 507.483 382.500 C 504.626 373.252, 504.188 372.476, 501.660 372.180 C 499.120 371.883, 498.976 372.059, 499.627 374.680 M 399.455 376.455 C 395.535 380.374, 396.298 381, 405 381 C 413.726 381, 414.966 379.966, 411 376 C 408.126 373.126, 402.564 373.345, 399.455 376.455 M 473.923 376.923 C 469.695 381.151, 470.158 388.067, 474.913 391.718 C 477.725 393.877, 484.574 393.270, 487.694 390.586 C 490.076 388.537, 490.485 387.453, 490.400 383.413 C 490.319 379.551, 489.791 378.217, 487.594 376.327 C 483.579 372.874, 477.717 373.129, 473.923 376.923 M 553.455 376.455 C 549.504 380.405, 550.284 381, 559.406 381 C 567.363 381, 567.784 380.891, 567.282 378.969 C 565.926 373.785, 557.633 372.276, 553.455 376.455 M 618.097 375.750 C 613.680 379.389, 613.761 388.318, 618.239 391.455 C 621.769 393.927, 628.633 393.458, 631.545 390.545 C 634.003 388.088, 634.868 382.425, 633.379 378.545 C 631.774 374.362, 621.961 372.567, 618.097 375.750 M 746.189 376.039 C 741.994 379.947, 743.227 381, 752 381 C 760.785 381, 761.855 380.091, 757.686 376.174 C 754.678 373.348, 749.146 373.283, 746.189 376.039 M 779.389 384.980 C 776.698 386.067, 775.719 388.606, 777.039 391.072 C 777.838 392.566, 779.154 393, 782.880 393 C 788.383 393, 791 390.960, 791 386.671 C 791 384.142, 790.747 384.003, 786.250 384.063 C 783.638 384.098, 780.550 384.511, 779.389 384.980" stroke="none" fill="#fbfbfb" fill-rule="evenodd"/></svg>