<?xml version="1.0" encoding="UTF-8"?>
<!DOCTYPE svg PUBLIC "-//W3C//DTD SVG 1.1//EN" "http://www.w3.org/Graphics/SVG/1.1/DTD/svg11.dtd">
<svg xmlns="http://www.w3.org/2000/svg" version="1.1" width="3500px" height="1824px" style="shape-rendering:geometricPrecision; text-rendering:geometricPrecision; image-rendering:optimizeQuality; fill-rule:evenodd; clip-rule:evenodd" xmlns:xlink="http://www.w3.org/1999/xlink">
<g><path style="opacity:1" fill="#e60012" d="M -0.5,-0.5 C 1166.17,-0.5 2332.83,-0.5 3499.5,-0.5C 3499.5,607.5 3499.5,1215.5 3499.5,1823.5C 2332.83,1823.5 1166.17,1823.5 -0.5,1823.5C -0.5,1215.5 -0.5,607.5 -0.5,-0.5 Z"/></g>
<g><path style="opacity:1" fill="#fffdfd" d="M 1568.5,570.5 C 1569.5,589.326 1569.83,608.326 1569.5,627.5C 1540.44,658.916 1504.44,672.082 1461.5,667C 1406.28,655.45 1373.78,621.95 1364,566.5C 1361.86,511.657 1385.69,472.823 1435.5,450C 1479.92,434.276 1520.58,440.943 1557.5,470C 1575.7,489.2 1593.54,508.7 1611,528.5C 1641.16,556.081 1676,564.247 1715.5,553C 1760.65,536.677 1783.99,504.51 1785.5,456.5C 1781.93,409.762 1757.93,378.928 1713.5,364C 1665.11,352.352 1625.28,365.852 1594,404.5C 1584.66,417.504 1577.16,431.504 1571.5,446.5C 1570.5,423.339 1570.17,400.006 1570.5,376.5C 1611.13,326.678 1662.8,309.511 1725.5,325C 1779.98,342.812 1813.48,379.645 1826,435.5C 1833.03,496.924 1810.86,544.424 1759.5,578C 1711.34,604.177 1662.67,605.177 1613.5,581C 1603.95,575.445 1594.95,569.111 1586.5,562C 1567.8,542.3 1549.46,522.3 1531.5,502C 1507.18,482.334 1480.18,477.668 1450.5,488C 1410.84,508.299 1397.67,539.799 1411,582.5C 1423.11,607.599 1442.94,622.433 1470.5,627C 1509.1,629.781 1539.27,615.281 1561,583.5C 1563.51,579.139 1566.01,574.806 1568.5,570.5 Z"/></g>
<g><path style="opacity:1" fill="#f27d86" d="M 1570.5,376.5 C 1570.17,400.006 1570.5,423.339 1571.5,446.5C 1571.01,447.473 1570.51,448.473 1570,449.5C 1569.17,424.997 1569.34,400.663 1570.5,376.5 Z"/></g>
<g><path style="opacity:1" fill="#f28189" d="M 1569.5,627.5 C 1569.83,608.326 1569.5,589.326 1568.5,570.5C 1568.78,569.711 1569.28,569.044 1570,568.5C 1570.83,588.338 1570.66,608.004 1569.5,627.5 Z"/></g>
<g><path style="opacity:1" fill="#fffefe" d="M 2420.5,707.5 C 2420.83,733.005 2420.5,758.339 2419.5,783.5C 2408.73,767.592 2394.06,756.758 2375.5,751C 2344.07,742.137 2312.73,742.47 2281.5,752C 2244.45,766.904 2227.28,794.404 2230,834.5C 2233.04,852.744 2241.87,867.577 2256.5,879C 2262,882.916 2267.66,886.582 2273.5,890C 2316.84,911.997 2359.5,934.997 2401.5,959C 2426.46,975.617 2445.29,997.451 2458,1024.5C 2474.77,1072.2 2467.44,1115.86 2436,1155.5C 2413.14,1180.35 2385.31,1197.19 2352.5,1206C 2297.59,1218.96 2242.26,1220.96 2186.5,1212C 2180.03,1210.63 2173.69,1208.8 2167.5,1206.5C 2157.51,1176.19 2147.51,1145.85 2137.5,1115.5C 2155.18,1134.06 2176.85,1147.23 2202.5,1155C 2222.42,1161.11 2242.75,1164.94 2263.5,1166.5C 2285.6,1165.65 2306.94,1161.15 2327.5,1153C 2359.45,1138.41 2377.45,1113.75 2381.5,1079C 2380.39,1061.79 2373.39,1047.45 2360.5,1036C 2355.11,1031.61 2349.44,1027.61 2343.5,1024C 2302.34,1002.25 2261.34,980.254 2220.5,958C 2193.67,941.833 2172.17,920.333 2156,893.5C 2137.47,855.433 2137.14,817.1 2155,778.5C 2175.72,739.36 2207.55,713.86 2250.5,702C 2282.37,693.994 2314.7,691.328 2347.5,694C 2368.78,695.118 2389.78,698.118 2410.5,703C 2414.19,703.836 2417.52,705.336 2420.5,707.5 Z"/></g>
<g><path style="opacity:1" fill="#ee5560" d="M 1103.5,703.5 C 1048.33,703.168 993.331,703.501 938.5,704.5C 937.957,704.44 937.624,704.107 937.5,703.5C 992.999,702.169 1048.33,702.169 1103.5,703.5 Z"/></g>
<g><path style="opacity:1" fill="#ec404c" d="M 1220.5,703.5 C 1275.67,702.169 1331,702.169 1386.5,703.5C 1386.38,704.107 1386.04,704.44 1385.5,704.5C 1330.67,703.501 1275.67,703.168 1220.5,703.5 Z"/></g>
<g><path style="opacity:1" fill="#e92232" d="M 1599.5,703.5 C 1654.67,702.169 1710,702.169 1765.5,703.5C 1765.38,704.107 1765.04,704.44 1764.5,704.5C 1709.67,703.501 1654.67,703.168 1599.5,703.5 Z"/></g>
<g><path style="opacity:1" fill="#ee5561" d="M 1792.5,703.5 C 1910,702.5 2027.67,702.167 2145.5,702.5C 2145.74,703.791 2145.4,704.791 2144.5,705.5C 2027.5,703.502 1910.17,702.835 1792.5,703.5 Z"/></g>
<g><path style="opacity:1" fill="#ee5561" d="M 2463.5,703.5 C 2518.67,702.169 2574,702.169 2629.5,703.5C 2629.38,704.107 2629.04,704.44 2628.5,704.5C 2573.67,703.501 2518.67,703.168 2463.5,703.5 Z"/></g>
<g><path style="opacity:1" fill="#fefefe" d="M 926.5,703.5 C 926.831,731.005 926.498,758.338 925.5,785.5C 919.454,767.126 906.787,756.793 887.5,754.5C 833.669,753.501 779.669,753.168 725.5,753.5C 725.5,805.5 725.5,857.5 725.5,909.5C 779.5,909.5 833.5,909.5 887.5,909.5C 887.831,938.671 887.498,967.671 886.5,996.5C 883.487,977.977 872.82,966.144 854.5,961C 811.53,959.538 768.53,959.038 725.5,959.5C 725.023,1029.19 725.523,1098.86 727,1168.5C 732.409,1187.91 744.909,1199.74 764.5,1204C 709.167,1204.67 653.833,1204.67 598.5,1204C 621.097,1198.73 633.93,1184.57 637,1161.5C 637.667,1021.83 637.667,882.167 637,742.5C 632.69,720.98 619.857,708.147 598.5,704C 707.833,703.5 817.166,703.333 926.5,703.5 Z"/></g>
<g><path style="opacity:1" fill="#fefefe" d="M 938.5,704.5 C 993.331,703.501 1048.33,703.168 1103.5,703.5C 1081.59,708.923 1068.75,722.923 1065,745.5C 1064.33,855.5 1064.33,965.5 1065,1075.5C 1071.57,1124.73 1099.07,1154.9 1147.5,1166C 1197.82,1169.63 1232.98,1148.47 1253,1102.5C 1255.61,1096.08 1257.27,1089.41 1258,1082.5C 1259.65,969.856 1259.98,857.189 1259,744.5C 1254.8,722.475 1241.97,708.808 1220.5,703.5C 1275.67,703.168 1330.67,703.501 1385.5,704.5C 1377.09,705.204 1369.76,708.37 1363.5,714C 1355.87,721.766 1350.7,730.933 1348,741.5C 1347.67,851.167 1347.33,960.833 1347,1070.5C 1340.27,1135.49 1306.43,1179.65 1245.5,1203C 1189.8,1222.3 1134.13,1222.3 1078.5,1203C 1017.55,1179.58 983.712,1135.42 977,1070.5C 976.667,960.833 976.333,851.167 976,741.5C 972.372,725.887 963.539,714.387 949.5,707C 945.93,705.69 942.263,704.857 938.5,704.5 Z"/></g>
<g><path style="opacity:1" fill="#fffefe" d="M 1407.5,704.5 C 1462.67,703.335 1518,703.168 1573.5,704C 1552.15,708.138 1539.31,720.971 1535,742.5C 1534.67,909.5 1534.33,1076.5 1534,1243.5C 1529.05,1300.26 1502.22,1343.09 1453.5,1372C 1428.29,1386.85 1401.29,1396.51 1372.5,1401C 1404.11,1377.36 1425.61,1346.53 1437,1308.5C 1441.15,1294.75 1444.15,1280.75 1446,1266.5C 1446.67,1092.5 1446.67,918.5 1446,744.5C 1442.72,724.557 1431.55,711.39 1412.5,705C 1410.87,704.506 1409.2,704.34 1407.5,704.5 Z"/></g>
<g><path style="opacity:1" fill="#fefefe" d="M 1599.5,703.5 C 1654.67,703.168 1709.67,703.501 1764.5,704.5C 1744.43,708.4 1731.93,720.4 1727,740.5C 1726.33,881.5 1726.33,1022.5 1727,1163.5C 1730.07,1183.06 1740.9,1196.06 1759.5,1202.5C 1707.83,1203.83 1656.17,1203.83 1604.5,1202.5C 1624.14,1195.94 1635.31,1182.27 1638,1161.5C 1638.67,1022.17 1638.67,882.833 1638,743.5C 1634.07,721.402 1621.23,708.069 1599.5,703.5 Z"/></g>
<g><path style="opacity:1" fill="#fefefe" d="M 1792.5,703.5 C 1910.17,702.835 2027.5,703.502 2144.5,705.5C 2135.5,734.826 2126.5,764.16 2117.5,793.5C 2114.81,771.277 2102.48,758.11 2080.5,754C 2053.84,753.5 2027.17,753.333 2000.5,753.5C 2000.33,890.167 2000.5,1026.83 2001,1163.5C 2004.16,1183.49 2015.33,1196.49 2034.5,1202.5C 1982.5,1203.83 1930.5,1203.83 1878.5,1202.5C 1898.26,1196.03 1909.26,1182.37 1911.5,1161.5C 1912.5,1025.67 1912.83,889.668 1912.5,753.5C 1881,753.168 1849.66,753.502 1818.5,754.5C 1794.93,759.561 1777.1,772.561 1765,793.5C 1773.26,763.214 1782.43,733.214 1792.5,703.5 Z"/></g>
<g><path style="opacity:1" fill="#fefefe" d="M 2463.5,703.5 C 2518.67,703.168 2573.67,703.501 2628.5,704.5C 2615.12,706.271 2604.96,712.938 2598,724.5C 2594.83,729.834 2592.5,735.501 2591,741.5C 2590.33,854.167 2590.33,966.833 2591,1079.5C 2596.75,1117.24 2616.92,1144.07 2651.5,1160C 2693.93,1174.1 2730.43,1164.93 2761,1132.5C 2773.69,1117.11 2781.36,1099.44 2784,1079.5C 2784.67,967.167 2784.67,854.833 2784,742.5C 2779.69,720.98 2766.86,708.147 2745.5,704C 2800.83,703.333 2856.17,703.333 2911.5,704C 2889.89,708.952 2877.05,722.452 2873,744.5C 2872.67,855.833 2872.33,967.167 2872,1078.5C 2864.76,1129.86 2838.6,1168.02 2793.5,1193C 2742.39,1217.46 2689.06,1223.8 2633.5,1212C 2594.51,1203.6 2561.68,1184.76 2535,1155.5C 2516.13,1132.25 2505.46,1105.58 2503,1075.5C 2502.67,965.167 2502.33,854.833 2502,744.5C 2497.81,722.479 2484.97,708.812 2463.5,703.5 Z"/></g>
<g><path style="opacity:1" fill="#f3818a" d="M 2420.5,707.5 C 2421.83,733.003 2421.83,758.67 2420.5,784.5C 2419.89,784.376 2419.56,784.043 2419.5,783.5C 2420.5,758.339 2420.83,733.005 2420.5,707.5 Z"/></g>
<g><path style="opacity:1" fill="#fce0e2" d="M 926.5,703.5 C 927.664,732.664 927.83,761.997 927,791.5C 926.685,789.414 926.185,787.414 925.5,785.5C 926.498,758.338 926.831,731.005 926.5,703.5 Z"/></g>
<g><path style="opacity:1" fill="#f06066" d="M 887.5,754.5 C 833.833,754.5 780.167,754.5 726.5,754.5C 726.5,805.833 726.5,857.167 726.5,908.5C 780.336,908.168 834.003,908.501 887.5,909.5C 833.5,909.5 779.5,909.5 725.5,909.5C 725.5,857.5 725.5,805.5 725.5,753.5C 779.669,753.168 833.669,753.501 887.5,754.5 Z"/></g>
<g><path style="opacity:1" fill="#f17a83" d="M 887.5,909.5 C 888.83,938.669 888.83,968.003 887.5,997.5C 886.893,997.376 886.56,997.043 886.5,996.5C 887.498,967.671 887.831,938.671 887.5,909.5 Z"/></g>
<g><path style="opacity:1" fill="#ed4d58" d="M 1818.5,754.5 C 1849.66,753.502 1881,753.168 1912.5,753.5C 1912.83,889.668 1912.5,1025.67 1911.5,1161.5C 1911.5,1025.83 1911.5,890.167 1911.5,754.5C 1880.5,754.5 1849.5,754.5 1818.5,754.5 Z"/></g>
<g><path style="opacity:1" fill="#facace" d="M 1604.5,1202.5 C 1656.17,1203.83 1707.83,1203.83 1759.5,1202.5C 1761.18,1202.89 1762.85,1203.39 1764.5,1204C 1709.5,1204.67 1654.5,1204.67 1599.5,1204C 1600.9,1202.73 1602.57,1202.23 1604.5,1202.5 Z"/></g>
<g><path style="opacity:1" fill="#f9cace" d="M 1878.5,1202.5 C 1930.5,1203.83 1982.5,1203.83 2034.5,1202.5C 2036.09,1203.15 2037.75,1203.65 2039.5,1204C 1984.17,1204.67 1928.83,1204.67 1873.5,1204C 1875.02,1202.99 1876.69,1202.49 1878.5,1202.5 Z"/></g>
</svg>
