<?xml version="1.0" encoding="UTF-8"?>
<svg version="1.1" xmlns="http://www.w3.org/2000/svg" width="616" height="577">
<path d="M0 0 C203.28 0 406.56 0 616 0 C616 190.41 616 380.82 616 577 C412.72 577 209.44 577 0 577 C0 386.59 0 196.18 0 0 Z " fill="#FEFEFE" transform="translate(0,0)"/>
<path d="M0 0 C83.16 0 166.32 0 252 0 C252 83.16 252 166.32 252 252 C168.84 252 85.68 252 0 252 C0 168.84 0 85.68 0 0 Z " fill="#FDFDFD" transform="translate(185,104)"/>
<path d="M0 0 C83.16 0 166.32 0 252 0 C252 83.16 252 166.32 252 252 C168.84 252 85.68 252 0 252 C0 168.84 0 85.68 0 0 Z M8 7 C12.09901327 11.78218214 16.07622171 16.14579897 20.55859375 20.49609375 C21.36425781 21.32238281 22.16992188 22.14867187 23 23 C23.85608117 23.67244027 23.85608117 23.67244027 24.7294569 24.35846519 C28.82814741 28.04901746 30.40386885 31.28816821 30.88023722 36.82277608 C31.08015021 40.91337052 31.12332629 44.99742752 31.14379883 49.09228516 C31.17787394 50.93957009 31.21467394 52.78680645 31.25398254 54.63398743 C31.3498136 59.64098566 31.39929298 64.64735492 31.43425202 69.6551137 C31.45706138 72.79320771 31.48777633 75.93113163 31.52078819 79.06913376 C31.62184356 88.91490749 31.69407473 98.7602802 31.72561151 108.60652602 C31.76216853 119.92140042 31.8933231 131.22984382 32.10811597 142.54270899 C32.26888185 151.31862812 32.34335978 160.09274975 32.35463923 168.87012136 C32.36321718 174.09801486 32.4063283 179.31972134 32.54001808 184.54603958 C33.39949558 220.04558609 33.39949558 220.04558609 23.47141451 231.20721328 C19.35772114 235.47370435 14.82494258 239.14718181 9.9815321 242.55960655 C9.3276265 243.03493639 8.67372091 243.51026623 8 244 C8 244.33 8 244.66 8 245 C85.88 245 163.76 245 244 245 C239.21110441 239.12423008 239.21110441 239.12423008 233.78210449 235.08877563 C227.16399782 230.38874585 221.69179494 225.10416324 219.97940063 216.90416718 C218.15017883 205.30016569 218.44483634 193.3790591 218.51887703 181.66720152 C218.53553993 177.51760766 218.49990158 173.36908258 218.46507788 169.21965182 C218.38405179 159.41358675 218.39087018 149.61031757 218.45410156 139.80419922 C218.51745958 129.74842925 218.43500928 119.70141515 218.27954912 109.64684331 C218.15034905 100.96025265 218.11212589 92.27638772 218.14456892 83.58890116 C218.16307382 78.4235656 218.14970862 73.26390869 218.04859924 68.0994072 C217.42645257 33.16604569 217.42645257 33.16604569 227.84834242 21.53260434 C232.16483586 17.06555585 236.90070562 13.17663726 241.93379974 9.53913307 C242.61564583 9.03121916 243.29749191 8.52330524 244 8 C244 7.67 244 7.34 244 7 C166.12 7 88.24 7 8 7 Z " fill="#1A1819" transform="translate(185,104)"/>
<path d="M0 0 C3.90551898 1.30183966 5.17684959 3.49098459 7 7 C8.45889628 10.77812255 9.56917718 14.65972897 10.7109375 18.54296875 C10.95070313 19.31511719 11.19046875 20.08726562 11.4375 20.8828125 C11.64246094 21.57777832 11.84742188 22.27274414 12.05859375 22.98876953 C13.30102397 25.64311085 14.73922552 27.13915131 17 29 C19.41424586 29.92231381 19.41424586 29.92231381 22.0703125 30.34375 C23.53984375 30.63572266 23.53984375 30.63572266 25.0390625 30.93359375 C26.05742187 31.12050781 27.07578125 31.30742187 28.125 31.5 C48.05710178 35.24372378 48.05710178 35.24372378 53.0625 41.125 C55.60324794 44.89514211 56.12658981 46.59837809 56.15771484 51.08544922 C56.16797699 52.14770721 56.17823914 53.20996521 56.18881226 54.30441284 C56.19611359 55.45950348 56.20341492 56.61459412 56.2109375 57.8046875 C56.23903176 60.2500064 56.26769636 62.6953188 56.296875 65.140625 C56.33794955 68.99576457 56.37483335 72.85078617 56.40136719 76.70605469 C56.42919757 80.42668881 56.47509767 84.14677049 56.5234375 87.8671875 C56.52669037 89.00203583 56.52994324 90.13688416 56.53329468 91.30612183 C56.63468712 98.0004271 57.47849016 103.97157155 59.29336548 110.42166138 C60.16732923 113.61054394 60.62721089 116.71945583 61 120 C53.17150814 113.22335396 49.4408188 100.62005307 48.25390625 90.625 C48.05383056 87.7685347 47.89832883 84.92273911 47.77734375 82.0625 C47.7397998 81.18625977 47.70225586 80.31001953 47.66357422 79.40722656 C47.59809414 77.68576486 47.54796014 75.96362314 47.51611328 74.24121094 C47.3422782 68.5535088 46.60387838 63.13615355 44 58 C36.82537385 53.11514815 28.39905178 53.33037173 20 54 C15.69709912 55.17868242 13.51977971 57.13967496 11.1875 61 C9.38974016 66.16023659 8.67337013 71.59855786 8 77 C7.89042969 77.71414062 7.78085937 78.42828125 7.66796875 79.1640625 C7.17993591 84.67996853 9.57493941 88.17342846 12.2265625 92.7421875 C21.78041893 110.29266385 25.80072829 130.64238162 30 150 C29.34 150 28.68 150 28 150 C27.47212891 148.71706055 27.47212891 148.71706055 26.93359375 147.40820312 C18.46602834 120.78992933 18.46602834 120.78992933 3 100 C-0.05270463 99.84188612 -0.05270463 99.84188612 -3 101 C-11.67951598 110.63114334 -15.79496734 124.45670635 -20.62451172 136.33911133 C-21.46795472 138.40944495 -22.31944565 140.47632243 -23.171875 142.54296875 C-23.6678418 143.76008545 -24.16380859 144.97720215 -24.67480469 146.23120117 C-26 149 -26 149 -28 150 C-27.56012356 144.45755691 -26.66204084 139.83340045 -24.85375977 134.59399414 C-23.58695415 130.74503513 -22.55802099 126.83844722 -21.50146484 122.92749023 C-15.08596637 99.21159043 -15.08596637 99.21159043 -9.1875 91 C-4.41207487 83.73174289 -6.9831665 73.77241557 -8.26953125 65.69140625 C-9.48094807 61.22795068 -11.15757433 58.71300955 -14.6953125 55.71875 C-18.53051305 53.72408305 -21.64860118 53.38447543 -25.875 53.5 C-26.93400513 53.51921509 -26.93400513 53.51921509 -28.0144043 53.53881836 C-33.14167347 53.73832069 -38.31217207 54.11756373 -42 58 C-45.32121765 63.90696752 -45.34936526 69.081624 -45.375 75.75 C-45.78879051 92.04918215 -49.35588656 106.12457872 -58 120 C-58.33 120 -58.66 120 -59 120 C-58.57385623 116.0226581 -58.12713778 112.43268255 -56.99560547 108.58178711 C-55.62717397 103.13876827 -55.68384858 97.74520877 -55.65625 92.16015625 C-55.6416272 91.03862656 -55.62700439 89.91709686 -55.61193848 88.76158142 C-55.5656707 85.19525671 -55.53134206 81.62898519 -55.5 78.0625 C-55.4586632 73.36568561 -55.40493324 68.66924947 -55.34375 63.97265625 C-55.3384729 62.90676773 -55.3331958 61.84087921 -55.32775879 60.74269104 C-55.13018875 45.79967664 -55.13018875 45.79967664 -50.8125 40.125 C-44.70203274 35.50820252 -37.78169112 34.07585931 -30.4375 32.4375 C-20.97996649 30.45442891 -20.97996649 30.45442891 -12 27 C-11.01474384 24.17480762 -10.11409013 21.36197983 -9.25 18.5 C-7.07390889 11.58474489 -4.66877507 5.66213147 0 0 Z " fill="#1B191A" transform="translate(310,154)"/>
<path d="M0 0 C4.02636333 3.26764819 6.53191964 7.89587053 8.82421875 12.48046875 C10.31268244 30.7188593 10.31268244 30.7188593 4.54296875 38.625 C-0.49013694 44.05846637 -5.57562372 45.60359921 -12.86328125 45.91796875 C-19.42592485 45.82993329 -23.56451437 44.16702162 -28.17578125 39.48046875 C-33.83990275 32.22082007 -34.13326855 24.38510066 -33.17578125 15.48046875 C-31.9861436 9.42501811 -28.85729998 4.49319909 -24.17578125 0.48046875 C-16.88798653 -3.93922611 -7.41989584 -4.16898813 0 0 Z " fill="#1D1D1D" transform="translate(317.17578125,442.51953125)"/>
<path d="M0 0 C6.06603576 2.69216444 9.2954243 7.06229457 11.72265625 13.11328125 C13.66216949 20.1567767 14.10912083 29.12405511 11.05078125 35.91015625 C7.6416544 41.4590542 2.77518124 45.32107581 -3.38671875 47.34765625 C-9.59839989 48.24991161 -14.96276642 48.15267632 -20.38671875 44.78515625 C-25.33159089 40.99587923 -28.21398965 36.52331227 -29.38671875 30.34765625 C-30.55709336 13.69380118 -30.55709336 13.69380118 -25.38671875 7.34765625 C-18.09701932 -0.17883156 -10.46052223 -2.85909527 0 0 Z " fill="#FAFAFA" transform="translate(177.38671875,440.65234375)"/>
<path d="M0 0 C5.96404174 2.92780231 9.07504582 7.15009164 12 13 C12 16.96 12 20.92 12 25 C1.77 25 -8.46 25 -19 25 C-17.20035546 33.8430559 -17.20035546 33.8430559 -12 40 C-8.99674904 41.50162548 -5.91443758 41.14368999 -2.625 41.125 C-1.61566406 41.13080078 -1.61566406 41.13080078 -0.5859375 41.13671875 C2.75280945 41.13014641 5.80853085 41.03109003 9 40 C9.495 42.97 9.495 42.97 10 46 C2.65354922 48.73356308 -6.55384843 49.68645324 -14 46.8125 C-19.93362445 43.2276019 -23.46730685 38.87871342 -25.5546875 32.234375 C-27.17640892 24.09731667 -27.12264873 15.88717427 -22.49609375 8.8359375 C-16.24413304 1.16381861 -9.72385804 -1.14315312 0 0 Z " fill="#1A1A1A" transform="translate(412,440)"/>
<path d="M0 0 C2.31 0 4.62 0 7 0 C7.33 8.58 7.66 17.16 8 26 C9.65 24.68 11.3 23.36 13 22 C18.31412822 19.20309041 23.01270201 19.3937057 28.6875 21.125 C33.37323046 23.77730026 35.32002293 26.96006878 37 32 C37.08494728 34.65894107 37.11594796 37.29085377 37.09765625 39.94921875 C37.0962413 40.72183548 37.09482635 41.49445221 37.09336853 42.29048157 C37.08777466 44.75619389 37.07522333 47.22181515 37.0625 49.6875 C37.05748421 51.36002473 37.05292144 53.03255088 37.04882812 54.70507812 C37.03780724 58.80342046 37.02054684 62.90169479 37 67 C34.69 67 32.38 67 30 67 C29.98598145 65.54762939 29.98598145 65.54762939 29.97167969 64.06591797 C29.93163217 60.45364353 29.86583446 56.84220765 29.79248047 53.23046875 C29.76435587 51.6710085 29.74309911 50.11140796 29.72900391 48.55175781 C29.70745458 46.30200827 29.66074943 44.05393026 29.609375 41.8046875 C29.60814636 41.1138205 29.60691772 40.42295349 29.60565186 39.71115112 C29.4569075 34.73079811 28.11714645 31.84574479 25 28 C21.89046621 26.4452331 19.43733239 26.71355563 16 27 C12.00196424 29.11216984 9.57070811 30.75005899 8 35 C7.76536081 37.49587111 7.62842258 39.89211723 7.5859375 42.390625 C7.56657135 43.09523865 7.5472052 43.79985229 7.5272522 44.52581787 C7.46767265 46.76709039 7.42115877 49.00841489 7.375 51.25 C7.33680021 52.77345938 7.29774731 54.29689762 7.2578125 55.8203125 C7.16198982 59.54668106 7.07787893 63.27320835 7 67 C4.69 67 2.38 67 0 67 C0 44.89 0 22.78 0 0 Z " fill="#171717" transform="translate(479,420)"/>
<path d="M0 0 C2.31 0 4.62 0 7 0 C7.33 13.53 7.66 27.06 8 41 C13.445 34.07 13.445 34.07 19 27 C24 21 24 21 26.45703125 20.4140625 C27.23433594 20.48367188 28.01164062 20.55328125 28.8125 20.625 C29.60269531 20.67914063 30.39289063 20.73328125 31.20703125 20.7890625 C31.79871094 20.85867188 32.39039063 20.92828125 33 21 C29.11384281 26.59301838 24.80188472 31.3382498 19.85546875 36.01953125 C17.7826904 37.95551964 17.7826904 37.95551964 17 41 C17.87897337 42.77311145 17.87897337 42.77311145 19.31640625 44.51171875 C19.83396484 45.18783203 20.35152344 45.86394531 20.88476562 46.56054688 C21.43841797 47.26244141 21.99207031 47.96433594 22.5625 48.6875 C23.62630208 50.06640625 24.69010417 51.4453125 25.75390625 52.82421875 C27.41485792 54.96174314 29.07679927 57.09845894 30.74169922 59.23291016 C31.56371826 60.3029126 31.56371826 60.3029126 32.40234375 61.39453125 C32.90113037 62.0388208 33.39991699 62.68311035 33.91381836 63.34692383 C35 65 35 65 35 67 C31.75326439 67.8116839 29.2244939 67.97787918 26 67 C22.6796954 63.39253392 20.41363342 59.24799482 18 55 C16.89167341 53.26009928 15.76866347 51.52937979 14.625 49.8125 C13.93277344 48.73935547 13.93277344 48.73935547 13.2265625 47.64453125 C12.0830187 45.85417759 12.0830187 45.85417759 10 45 C8.38364512 47.86973884 7.7266582 50.04464203 7.5859375 53.328125 C7.54726562 54.12734375 7.50859375 54.9265625 7.46875 55.75 C7.4378125 56.575 7.406875 57.4 7.375 58.25 C7.33632812 59.09046875 7.29765625 59.9309375 7.2578125 60.796875 C7.16384164 62.86423382 7.08084436 64.93208627 7 67 C4.69 67 2.38 67 0 67 C0 44.89 0 22.78 0 0 Z " fill="#171717" transform="translate(201,420)"/>
<path d="M0 0 C4.19201767 1.97374165 6.94415644 5.50964761 8.52734375 9.8515625 C10.11861344 17.08460654 9.81235578 23.8860328 6.16796875 30.37890625 C4.00577332 33.37994673 2.56604234 34.81131922 -1 36 C-5.86972999 36.64929733 -9.08436322 36.54259957 -13.375 34 C-18.49137739 28.15271156 -19.58636819 22.37881649 -19.3515625 14.68359375 C-18.64353708 9.27899967 -16.35261829 5.59131564 -12.875 1.5 C-8.58022471 -0.74075232 -4.73844197 -0.8656769 0 0 Z " fill="#FAFAFA" transform="translate(310,446)"/>
<path d="M0 0 C6.06603576 2.69216444 9.2954243 7.06229457 11.72265625 13.11328125 C13.66216949 20.1567767 14.10912083 29.12405511 11.05078125 35.91015625 C7.6416544 41.4590542 2.77518124 45.32107581 -3.38671875 47.34765625 C-9.59839989 48.24991161 -14.96276642 48.15267632 -20.38671875 44.78515625 C-25.33159089 40.99587923 -28.21398965 36.52331227 -29.38671875 30.34765625 C-30.55709336 13.69380118 -30.55709336 13.69380118 -25.38671875 7.34765625 C-18.09701932 -0.17883156 -10.46052223 -2.85909527 0 0 Z M-19.38671875 10.34765625 C-23.04906857 16.32949429 -23.2104754 22.45555892 -22.38671875 29.34765625 C-21.11645483 33.5613812 -19.09317044 36.51653661 -16.26171875 39.84765625 C-11.97987901 42.08165959 -8.11500278 42.09669134 -3.38671875 41.34765625 C0.77166919 39.17806254 2.96646529 35.94640464 4.8828125 31.75390625 C6.77447625 25.52254332 6.64473368 18.79605831 3.92578125 12.84765625 C1.91878017 9.51422885 0.13023338 7.18258779 -3.38671875 5.34765625 C-10.39051461 4.11583286 -14.698885 4.97379805 -19.38671875 10.34765625 Z " fill="#1B1B1B" transform="translate(177.38671875,440.65234375)"/>
<path d="M0 0 C2.64 0 5.28 0 8 0 C8.25394531 0.78503906 8.50789062 1.57007813 8.76953125 2.37890625 C10.62600327 8.0456654 12.61393307 13.53192996 15 19 C17.03930059 24.28224852 19.01098266 29.40902443 20 35 C23.80823522 26.52360549 26.79648778 17.86326432 29.67602539 9.03637695 C29.96340576 8.15554443 30.25078613 7.27471191 30.546875 6.3671875 C30.80307617 5.57425293 31.05927734 4.78131836 31.32324219 3.96435547 C32 2 32 2 33 0 C35.31 0 37.62 0 40 0 C37.64617521 8.32266848 34.78801276 16.44443544 31.8125 24.5625 C31.45041946 25.55188065 31.45041946 25.55188065 31.08102417 26.56124878 C28.1616963 34.50720358 25.16392126 42.39492972 21.5625 50.0625 C21.10484253 51.04101929 21.10484253 51.04101929 20.63793945 52.03930664 C18.01254063 57.4097372 15.09249532 61.68374562 9.9375 64.8125 C9.26589844 65.23144531 8.59429687 65.65039062 7.90234375 66.08203125 C6 67 6 67 3 67 C2.67 65.02 2.34 63.04 2 61 C2.51949219 60.6596875 3.03898438 60.319375 3.57421875 59.96875 C8.44860668 56.58100534 13.25837913 52.89105639 15 47 C14.8732711 40.63841383 13.23156299 35.15311964 10.83984375 29.31640625 C10.53051407 28.53482651 10.22118439 27.75324677 9.90248108 26.94798279 C8.92448962 24.4818837 7.93180155 22.02206263 6.9375 19.5625 C5.94236701 17.07695048 4.95038031 14.59020128 3.96180725 12.10203552 C3.34857439 10.56109783 2.73106624 9.02185327 2.10887146 7.48451233 C0 2.2207848 0 2.2207848 0 0 Z " fill="#1C1C1C" transform="translate(239,441)"/>
<path d="M0 0 C15.18 0 30.36 0 46 0 C46 1.98 46 3.96 46 6 C39.4 6 32.8 6 26 6 C26 25.14 26 44.28 26 64 C23.69 64 21.38 64 19 64 C19 44.86 19 25.72 19 6 C12.73 6 6.46 6 0 6 C0 4.02 0 2.04 0 0 Z " fill="#242424" transform="translate(104,423)"/>
<path d="M0 0 C14.85 0 29.7 0 45 0 C45 1.98 45 3.96 45 6 C38.73 6 32.46 6 26 6 C26 25.14 26 44.28 26 64 C23.69 64 21.38 64 19 64 C19 44.86 19 25.72 19 6 C12.73 6 6.46 6 0 6 C0 4.02 0 2.04 0 0 Z " fill="#1B1B1B" transform="translate(344,423)"/>
<path d="M0 0 C-0.66 1.98 -1.32 3.96 -2 6 C-2.99 5.67 -3.98 5.34 -5 5 C-10.56890149 4.50980809 -15.42201941 4.28021938 -20.5625 6.625 C-24.24317164 10.21129545 -25.8076768 13.51430327 -26.46875 18.62109375 C-26.77047004 26.87321379 -26.77047004 26.87321379 -23.75 34.3125 C-20.50351664 37.48519965 -18.67071743 38.86607021 -14.125 39.23046875 C-13.09375 39.21628906 -12.0625 39.20210938 -11 39.1875 C-9.96875 39.18105469 -8.9375 39.17460937 -7.875 39.16796875 C-5.41931318 39.02449792 -3.34492245 38.7046041 -1 38 C-1 39.98 -1 41.96 -1 44 C-7.6511346 47.05198315 -15.38702953 47.11871622 -22.375 44.9375 C-27.99775344 42.43590075 -31.46449222 37.72606207 -33.875 32.1875 C-36.39795755 24.40838088 -35.59473204 16.29798429 -32 9 C-24.91363525 -2.17040674 -12.14273042 -5.39676908 0 0 Z " fill="#202020" transform="translate(468,442)"/>
<path d="M0 0 C2.1640625 -0.29296875 2.1640625 -0.29296875 4.625 -0.1875 C5.44226563 -0.16042969 6.25953125 -0.13335937 7.1015625 -0.10546875 C8.04128906 -0.05326172 8.04128906 -0.05326172 9 0 C5.11384281 5.59301838 0.80188472 10.3382498 -4.14453125 15.01953125 C-6.2173096 16.95551964 -6.2173096 16.95551964 -7 20 C-6.12102663 21.77311145 -6.12102663 21.77311145 -4.68359375 23.51171875 C-3.90725586 24.52588867 -3.90725586 24.52588867 -3.11523438 25.56054688 C-2.56158203 26.26244141 -2.00792969 26.96433594 -1.4375 27.6875 C-0.37369792 29.06640625 0.69010417 30.4453125 1.75390625 31.82421875 C3.41485792 33.96174314 5.07679927 36.09845894 6.74169922 38.23291016 C7.56371826 39.3029126 7.56371826 39.3029126 8.40234375 40.39453125 C8.90113037 41.0388208 9.39991699 41.68311035 9.91381836 42.34692383 C11 44 11 44 11 46 C7.75326439 46.8116839 5.2244939 46.97787918 2 46 C-1.32030794 42.3925303 -3.58584806 38.24768506 -6 34 C-7.08777597 32.30188819 -8.19004384 30.61289023 -9.3125 28.9375 C-9.76238281 28.24527344 -10.21226562 27.55304688 -10.67578125 26.83984375 C-11.92784818 24.93704802 -11.92784818 24.93704802 -13.73046875 23.56640625 C-15 22 -15 22 -15.05859375 19.7578125 C-13.52204535 15.75484877 -10.91782647 13.02547636 -8.0625 9.875 C-6.96875688 8.64437909 -5.87626058 7.41264865 -4.78515625 6.1796875 C-4.29926025 5.64069824 -3.81336426 5.10170898 -3.31274414 4.54638672 C-1.7986318 2.82318067 -1.7986318 2.82318067 0 0 Z " fill="#1D1D1D" transform="translate(225,441)"/>
<path d="M0 0 C2.82401892 1.86606741 4.65227227 3.89365193 6 7 C6 9.31 6 11.62 6 14 C-1.92 14 -9.84 14 -18 14 C-16.937638 6.56346602 -16.71863669 5.83372539 -12 1 C-8.22010728 -0.88994636 -4.0957871 -0.75778324 0 0 Z " fill="#F0F0F0" transform="translate(411,446)"/>
<path d="M0 0 C2.50172969 1.11187986 4.16352972 2.15500029 6.171875 4.05859375 C9.84465976 6.57982859 12.1493505 6.43959169 16.5625 6.3125 C17.86316406 6.28800781 19.16382813 6.26351563 20.50390625 6.23828125 C23.19191952 6.05507588 25.44834324 5.79861013 28 5 C28.33 6.98 28.66 8.96 29 11 C21.62624541 13.74372264 12.3611823 14.7339355 4.9375 11.6875 C2.45468372 10.26120129 0.19079421 8.84026714 -2 7 C-1.34 4.69 -0.68 2.38 0 0 Z " fill="#212121" transform="translate(393,475)"/>
<path d="M0 0 C3.86397652 2.18715652 5.30640922 3.93997577 7.3125 7.875 C8.0625 11.25 8.0625 11.25 8.3125 13.875 C7.3225 13.215 6.3325 12.555 5.3125 11.875 C3.9925 12.865 2.6725 13.855 1.3125 14.875 C0.97476562 14.30910156 0.63703125 13.74320312 0.2890625 13.16015625 C-0.15695312 12.42667969 -0.60296875 11.69320313 -1.0625 10.9375 C-1.50335938 10.20660156 -1.94421875 9.47570312 -2.3984375 8.72265625 C-3.5648984 6.73727728 -3.5648984 6.73727728 -5.6875 5.875 C-9.36079964 5.74142547 -12.18602959 5.7078432 -15.6875 6.875 C-15.6875 6.215 -15.6875 5.555 -15.6875 4.875 C-16.6775 4.215 -17.6675 3.555 -18.6875 2.875 C-12.12142985 -0.945259 -7.54345401 -2.30139275 0 0 Z " fill="#202020" transform="translate(507.6875,441.125)"/>
<path d="M0 0 C0.66 0 1.32 0 2 0 C3.10518515 4.1070032 4.20777722 8.21469166 5.30810547 12.32299805 C5.68176483 13.7167378 6.05609794 15.11029712 6.43115234 16.50366211 C8.44083849 23.97165583 10.4070511 31.42930077 12 39 C11.34 39 10.68 39 10 39 C8.11568514 34.66451603 6.24645104 30.32295708 4.39086914 25.97509766 C3.75760206 24.49709607 3.12025734 23.02083466 2.47875977 21.54638672 C1.55707098 19.42600275 0.65025466 17.29978163 -0.25390625 15.171875 C-0.54342667 14.51443298 -0.83294708 13.85699097 -1.13124084 13.17962646 C-2.27277209 10.45962796 -3.06922129 8.5160975 -2.67163086 5.55175781 C-2.44999268 5.03967773 -2.22835449 4.52759766 -2 4 C-1.34 4 -0.68 4 0 4 C0 2.68 0 1.36 0 0 Z " fill="#1E1E1E" transform="translate(328,265)"/>
<path d="M0 0 C9.73032529 -0.62329486 9.73032529 -0.62329486 14.4375 1.6875 C17.92582821 4.8355035 20.50169243 7.5050773 22 12 C20.02 12.66 18.04 13.32 16 14 C15.68289063 13.4946875 15.36578125 12.989375 15.0390625 12.46875 C12.07325952 8.32464661 12.07325952 8.32464661 7.48046875 6.5 C3.69654145 6.5 0.60086242 6.79971253 -3 8 C-3 7.01 -3 6.02 -3 5 C-1.68 4.34 -0.36 3.68 1 3 C0.67 2.01 0.34 1.02 0 0 Z " fill="#232323" transform="translate(401,440)"/>
<path d="M0 0 C1.07765625 0.01804687 2.1553125 0.03609375 3.265625 0.0546875 C4.49539062 0.08949219 4.49539062 0.08949219 5.75 0.125 C5.09 2.105 4.43 4.085 3.75 6.125 C3.15832031 6.15078125 2.56664062 6.1765625 1.95703125 6.203125 C-3.33662511 6.58309381 -6.35607857 7.23107857 -10.25 11.125 C-10.91 11.785 -11.57 12.445 -12.25 13.125 C-12.25 12.135 -12.25 11.145 -12.25 10.125 C-13.24 9.795 -14.23 9.465 -15.25 9.125 C-16.24 9.785 -17.23 10.445 -18.25 11.125 C-16.48442786 6.35795523 -12.63634964 3.63325562 -8.4453125 0.984375 C-5.5407954 -0.15262457 -3.10797858 -0.06756475 0 0 Z " fill="#232323" transform="translate(169.25,439.875)"/>
<path d="M0 0 C2 1.3125 2 1.3125 4 3 C4 3.99 4 4.98 4 6 C-2.79219135 10.17981006 -8.11397658 10.4731614 -16 10 C-15.125 5.125 -15.125 5.125 -14 4 C-11.5165743 3.75572862 -9.03432707 3.61640241 -6.54296875 3.4765625 C-3.64556241 2.93357698 -2.19926003 1.91730361 0 0 Z " fill="#212121" transform="translate(178,478)"/>
<path d="M0 0 C-0.66 1.98 -1.32 3.96 -2 6 C-2.99 5.67 -3.98 5.34 -5 5 C-7.39254576 4.77439324 -9.78928123 4.59151405 -12.1875 4.4375 C-13.45980469 4.35371094 -14.73210937 4.26992188 -16.04296875 4.18359375 C-17.01878906 4.12300781 -17.99460937 4.06242187 -19 4 C-18.1875 1.5625 -18.1875 1.5625 -17 -1 C-11.03577817 -2.98807394 -5.74527607 -2.29811043 0 0 Z " fill="#181818" transform="translate(468,442)"/>
<path d="M0 0 C-1.89297317 6.12432497 -4.15844279 12.06155039 -6.5625 18 C-6.86744385 18.76626709 -7.1723877 19.53253418 -7.48657227 20.32202148 C-9.76467508 25.88233754 -9.76467508 25.88233754 -12 27 C-11.55122306 21.34541056 -10.69068875 16.47209508 -8.75 11.14453125 C-8.04466304 9.12770837 -7.54458455 7.1414896 -7.0625 5.0625 C-6 2 -6 2 -4 0.5625 C-2 0 -2 0 0 0 Z " fill="#202020" transform="translate(294,277)"/>
<path d="M0 0 C2 1 2 1 2.68603516 2.73413086 C2.88503418 3.47026611 3.0840332 4.20640137 3.2890625 4.96484375 C3.50820313 5.76470703 3.72734375 6.56457031 3.953125 7.38867188 C4.17484375 8.22978516 4.3965625 9.07089844 4.625 9.9375 C4.85445313 10.77474609 5.08390625 11.61199219 5.3203125 12.47460938 C7 18.68845331 7 18.68845331 7 21 C6.34 21 5.68 21 5 21 C3.96048324 18.63170965 2.94357672 16.25746106 1.9375 13.875 C1.49567383 12.87726563 1.49567383 12.87726563 1.04492188 11.859375 C-0.76981528 7.50400582 -1.28501839 4.71418176 0 0 Z " fill="#272727" transform="translate(333,283)"/>
<path d="M0 0 C0.70045456 1.91197039 1.384919 3.82980435 2.0625 5.75 C2.44535156 6.81734375 2.82820313 7.8846875 3.22265625 8.984375 C3.98010011 11.92280042 4.07151741 13.22348948 3 16 C-0.33455096 11.0999919 -2.67231025 6.79355528 -4 1 C-2 0 -2 0 0 0 Z " fill="#1D1D1D" transform="translate(367,258)"/>
<path d="M0 0 C0.33 1.98 0.66 3.96 1 6 C-1.97 6.66 -4.94 7.32 -8 8 C-7.8125 5.6875 -7.8125 5.6875 -7 3 C-2.96551724 0 -2.96551724 0 0 0 Z " fill="#292929" transform="translate(421,480)"/>
<path d="M0 0 C-0.42523816 1.60746056 -0.86570126 3.21089836 -1.3125 4.8125 C-1.55613281 5.70582031 -1.79976563 6.59914063 -2.05078125 7.51953125 C-3.0200819 10.05247738 -3.95009604 11.2716496 -6 13 C-5.85831863 11.56208484 -5.71148957 10.1246763 -5.5625 8.6875 C-5.48128906 7.88699219 -5.40007812 7.08648437 -5.31640625 6.26171875 C-5 4 -5 4 -4 1 C-2 0 -2 0 0 0 Z " fill="#383838" transform="translate(288,291)"/>
<path d="M0 0 C0.66 0 1.32 0 2 0 C2.33 2.97 2.66 5.94 3 9 C-1 8 -1 8 -3 7 C-2.67 6.01 -2.34 5.02 -2 4 C-1.34 4 -0.68 4 0 4 C0 2.68 0 1.36 0 0 Z " fill="#242424" transform="translate(328,265)"/>
<path d="M0 0 C0.78375 0.04125 1.5675 0.0825 2.375 0.125 C2.375 1.115 2.375 2.105 2.375 3.125 C0 3.75 0 3.75 -2.625 4.125 C-3.285 3.465 -3.945 2.805 -4.625 2.125 C-2.625 0.125 -2.625 0.125 0 0 Z " fill="#151515" transform="translate(501.625,439.875)"/>
<path d="M0 0 C1.32 0 2.64 0 4 0 C4.33 2.31 4.66 4.62 5 7 C2.47411298 4.63707344 1.11179163 3.33537489 0 0 Z " fill="#3C3C3C" transform="translate(366,267)"/>
</svg>
